<svg xmlns="http://www.w3.org/2000/svg" viewBox="0 0 200 200"><defs><pattern id="k-noise" width="1" height="1"></pattern></defs><defs><linearGradient id="k15w6tlcyl" x1="0" x2="1" y1="0" y2="0"><stop offset="0" stop-color="#ffcf98" stop-opacity=".42"></stop><stop offset=".16" stop-color="#ffe6c8" stop-opacity=".2"></stop><stop offset=".38" stop-color="#000" stop-opacity="0"></stop><stop offset=".68" stop-color="#000" stop-opacity=".46"></stop><stop offset=".88" stop-color="#000" stop-opacity=".34"></stop><stop offset="1" stop-color="#9cc8ff" stop-opacity=".32"></stop></linearGradient><linearGradient id="k15w6tltop" x1="0" x2="0" y1="0" y2="1"><stop offset="0" stop-color="#fff" stop-opacity=".16"></stop><stop offset=".45" stop-color="#fff" stop-opacity="0"></stop><stop offset="1" stop-color="#000" stop-opacity=".5"></stop></linearGradient><linearGradient id="k15w6tlrim" x1="0" x2="1" y1="0" y2="0"><stop offset="0" stop-color="#ffc27a" stop-opacity="1"></stop><stop offset=".22" stop-color="#ff9a40" stop-opacity=".3"></stop><stop offset=".45" stop-color="#ff9a40" stop-opacity="0"></stop><stop offset=".82" stop-color="#8fc8ff" stop-opacity="0"></stop><stop offset="1" stop-color="#a8d8ff" stop-opacity=".7"></stop></linearGradient><linearGradient id="k15w6tlblade" x1="0" x2="1" y1="0" y2="0"><stop offset="0" stop-color="#f4f0ea"></stop><stop offset=".46" stop-color="#9aa2ae"></stop><stop offset=".5" stop-color="#4a505c"></stop><stop offset="1" stop-color="#262a32"></stop></linearGradient><linearGradient id="k15w6tlember" x1="0" x2="0" y1="0" y2="1"><stop offset="0" stop-color="#fff2c8"></stop><stop offset=".45" stop-color="#ffb040"></stop><stop offset="1" stop-color="#ff5a10" stop-opacity=".1"></stop></linearGradient><radialGradient id="k15w6tlball" cx="35%" cy="30%" r="75%"><stop offset="0" stop-color="#fff" stop-opacity=".35"></stop><stop offset=".35" stop-color="#fff" stop-opacity=".04"></stop><stop offset=".7" stop-color="#000" stop-opacity=".3"></stop><stop offset="1" stop-color="#000" stop-opacity=".62"></stop></radialGradient><radialGradient id="k15w6tlao" cx="50%" cy="50%" r="50%"><stop offset="0" stop-color="#000" stop-opacity=".75"></stop><stop offset="1" stop-color="#000" stop-opacity="0"></stop></radialGradient><radialGradient id="k15w6tlglow" cx="50%" cy="50%" r="50%"><stop offset="0" stop-color="#fff" stop-opacity=".9"></stop><stop offset=".3" stop-color="#fff" stop-opacity=".35"></stop><stop offset="1" stop-color="#fff" stop-opacity="0"></stop></radialGradient><pattern id="k15w6tlmail" patternUnits="userSpaceOnUse" width="4" height="3.4"><path d="M0 3.2a2 2 0 0 1 4 0" fill="none" stroke="#000" stroke-opacity=".55" stroke-width=".9"></path><path d="M.6 2.4a1.5 1.5 0 0 1 2 -.6" fill="none" stroke="#dfe6f0" stroke-opacity=".35" stroke-width=".6"></path></pattern><pattern id="k15w6tlscale" patternUnits="userSpaceOnUse" width="7" height="5"><path d="M0 5a3.5 3.5 0 0 1 7 0" fill="none" stroke="#000" stroke-opacity=".45" stroke-width="1"></path><path d="M1 3.6a2.6 2.6 0 0 1 3 -1.6" fill="none" stroke="#fff" stroke-opacity=".18" stroke-width=".7"></path></pattern><filter id="k15w6tlb3" x="-50%" y="-50%" width="200%" height="200%"><feGaussianBlur stdDeviation="2.6"></feGaussianBlur></filter><filter id="k15w6tlb1" x="-50%" y="-50%" width="200%" height="200%"><feGaussianBlur stdDeviation="1"></feGaussianBlur></filter><filter id="k15w6tlb8" x="-100%" y="-100%" width="300%" height="300%"><feGaussianBlur stdDeviation="8"></feGaussianBlur></filter></defs><ellipse class="rig-shadow" cx="124" cy="188" rx="66" ry="9" fill="url(#k15w6tlao)" transform="translate(0.00 0)"></ellipse><g data-b="pool" transform="matrix(1.0000 0.0000 0.0000 1.0000 0.00 0.00)"><ellipse cx="124" cy="182" rx="62" ry="12" fill="#0c1826" stroke="#07050a" stroke-width="1.4"></ellipse><ellipse cx="124" cy="183" rx="54" ry="8.5" fill="#03070c"></ellipse><path d="M78 182C96 178 112 180 124 178C138 180 152 178 168 182" fill="none" stroke="#9fd8ff" stroke-opacity=".3" stroke-width="1.4"></path><g transform="rotate(-24 70 180)"><g><clipPath id="cp15xdnz"><path d="M65 180L65 170.1L70 164L75 170.1L75 180Z"></path></clipPath><path d="M65 180L65 170.1L70 164L75 170.1L75 180Z" fill="#3e6680"></path><g clip-path="url(#cp15xdnz)"><path d="M65 180L65 170.1L70 164L75 170.1L75 180Z" fill="url(#k15w6tlcyl)" opacity="0.75"></path><path d="M65 180L65 170.1L70 164L75 170.1L75 180Z" fill="url(#k15w6tltop)"></path><path d="M65 180L65 170.1L70 164L75 170.1L75 180Z" fill="url(#k-noise)" opacity="0.12"></path><path d="M65 180L65 170.1L70 164L75 170.1L75 180Z" fill="none" stroke="#000" stroke-opacity="0.55" stroke-width="3" filter="url(#k15w6tlb3)"></path><path d="M65 180L65 170.1L70 164L69.5 180Z" fill="#dff4ff" opacity=".26"></path><path d="M70 164L69.5 180" stroke="#eaf8ff" stroke-width=".9" opacity=".55"></path><path d="M66.9 178.1L66.9 172" fill="none" stroke="#ffe8cc" stroke-opacity="0.32" stroke-width="4.2" stroke-linecap="round" filter="url(#k15w6tlb1)"></path><path d="M66.9 178.1L66.9 172" fill="none" stroke="#fff6ea" stroke-opacity="0.6" stroke-width=".9" stroke-linecap="round"></path><path d="M65 180L65 170.1L70 164L75 170.1L75 180Z" fill="none" stroke="url(#k15w6tlrim)" stroke-width="1.6"></path></g><path d="M65 180L65 170.1L70 164L75 170.1L75 180Z" fill="none" stroke="#07050a" stroke-width="1" stroke-linejoin="round"></path></g></g><g transform="rotate(22 176 180)"><g><clipPath id="cp15y7ak"><path d="M170 180L170 167.6L176 160L182 167.6L182 180Z"></path></clipPath><path d="M170 180L170 167.6L176 160L182 167.6L182 180Z" fill="#3e6680"></path><g clip-path="url(#cp15y7ak)"><path d="M170 180L170 167.6L176 160L182 167.6L182 180Z" fill="url(#k15w6tlcyl)" opacity="0.75"></path><path d="M170 180L170 167.6L176 160L182 167.6L182 180Z" fill="url(#k15w6tltop)"></path><path d="M170 180L170 167.6L176 160L182 167.6L182 180Z" fill="url(#k-noise)" opacity="0.12"></path><path d="M170 180L170 167.6L176 160L182 167.6L182 180Z" fill="none" stroke="#000" stroke-opacity="0.55" stroke-width="3" filter="url(#k15w6tlb3)"></path><path d="M170 180L170 167.6L176 160L175.4 180Z" fill="#dff4ff" opacity=".26"></path><path d="M176 160L175.4 180" stroke="#eaf8ff" stroke-width=".9" opacity=".55"></path><path d="M172.3 177.6L172.3 170" fill="none" stroke="#ffe8cc" stroke-opacity="0.32" stroke-width="4.2" stroke-linecap="round" filter="url(#k15w6tlb1)"></path><path d="M172.3 177.6L172.3 170" fill="none" stroke="#fff6ea" stroke-opacity="0.6" stroke-width=".9" stroke-linecap="round"></path><path d="M170 180L170 167.6L176 160L182 167.6L182 180Z" fill="none" stroke="url(#k15w6tlrim)" stroke-width="1.6"></path></g><path d="M170 180L170 167.6L176 160L182 167.6L182 180Z" fill="none" stroke="#07050a" stroke-width="1" stroke-linejoin="round"></path></g></g><g transform="rotate(8 164 176)"><g><clipPath id="cp15z3kx"><path d="M160.5 176L160.5 168.6L164 164L167.5 168.6L167.5 176Z"></path></clipPath><path d="M160.5 176L160.5 168.6L164 164L167.5 168.6L167.5 176Z" fill="#4f7f9e"></path><g clip-path="url(#cp15z3kx)"><path d="M160.5 176L160.5 168.6L164 164L167.5 168.6L167.5 176Z" fill="url(#k15w6tlcyl)" opacity="0.75"></path><path d="M160.5 176L160.5 168.6L164 164L167.5 168.6L167.5 176Z" fill="url(#k15w6tltop)"></path><path d="M160.5 176L160.5 168.6L164 164L167.5 168.6L167.5 176Z" fill="url(#k-noise)" opacity="0.12"></path><path d="M160.5 176L160.5 168.6L164 164L167.5 168.6L167.5 176Z" fill="none" stroke="#000" stroke-opacity="0.55" stroke-width="3" filter="url(#k15w6tlb3)"></path><path d="M160.5 176L160.5 168.6L164 164L163.7 176Z" fill="#dff4ff" opacity=".26"></path><path d="M164 164L163.7 176" stroke="#eaf8ff" stroke-width=".9" opacity=".55"></path><path d="M161.8 174.6L161.8 170" fill="none" stroke="#ffe8cc" stroke-opacity="0.32" stroke-width="4.2" stroke-linecap="round" filter="url(#k15w6tlb1)"></path><path d="M161.8 174.6L161.8 170" fill="none" stroke="#fff6ea" stroke-opacity="0.6" stroke-width=".9" stroke-linecap="round"></path><path d="M160.5 176L160.5 168.6L164 164L167.5 168.6L167.5 176Z" fill="none" stroke="url(#k15w6tlrim)" stroke-width="1.6"></path></g><path d="M160.5 176L160.5 168.6L164 164L167.5 168.6L167.5 176Z" fill="none" stroke="#07050a" stroke-width="1" stroke-linejoin="round"></path></g></g></g><g data-b="armB" transform="matrix(1.0000 0.0000 0.0000 1.0000 0.00 0.00)"><g opacity="0.92"><clipPath id="cp160iai"><path d="M146 128C158 118 172 112 186 112C180 122 176 134 170 146C162 146 156 142 150 138Z"></path></clipPath><path d="M146 128C158 118 172 112 186 112C180 122 176 134 170 146C162 146 156 142 150 138Z" fill="#34546e"></path><g clip-path="url(#cp160iai)"><path d="M146 128C158 118 172 112 186 112C180 122 176 134 170 146C162 146 156 142 150 138Z" fill="url(#k15w6tlcyl)" opacity="1"></path><path d="M146 128C158 118 172 112 186 112C180 122 176 134 170 146C162 146 156 142 150 138Z" fill="url(#k15w6tltop)"></path><path d="M146 128C158 118 172 112 186 112C180 122 176 134 170 146C162 146 156 142 150 138Z" fill="url(#k-noise)" opacity="0.4"></path><path d="M146 128C158 118 172 112 186 112C180 122 176 134 170 146C162 146 156 142 150 138Z" fill="none" stroke="#000" stroke-opacity="0.55" stroke-width="3" filter="url(#k15w6tlb3)"></path><path d="M150 132L180 116" stroke="#0a1622" stroke-width="1.2"></path><path d="M154 136L180 124" stroke="#0a1622" stroke-width="1.2"></path><path d="M158 140L176 134" stroke="#0a1622" stroke-width="1.2"></path><path d="M186 112C180 122 176 134 170 146" fill="none" stroke="#9fd8ff" stroke-opacity=".45" stroke-width="1"></path><path d="M146 128C158 118 172 112 186 112C180 122 176 134 170 146C162 146 156 142 150 138Z" fill="none" stroke="url(#k15w6tlrim)" stroke-width="3.2"></path></g><path d="M146 128C158 118 172 112 186 112C180 122 176 134 170 146C162 146 156 142 150 138Z" fill="none" stroke="#07050a" stroke-width="1.3" stroke-linejoin="round"></path></g></g><g data-b="body" transform="matrix(1.0000 0.0000 0.0000 1.0000 0.00 0.00)"><g><clipPath id="cp161ofn"><path d="M94 188C94 162 102 140 112 126C122 114 144 108 156 118C168 130 170 156 168 188Z"></path></clipPath><path d="M94 188C94 162 102 140 112 126C122 114 144 108 156 118C168 130 170 156 168 188Z" fill="#243a52"></path><g clip-path="url(#cp161ofn)"><path d="M94 188C94 162 102 140 112 126C116 122 120 120 124 119C114 136 108 160 110 188Z" fill="#6f8ea2" opacity=".5"></path><path d="M94 188C94 162 102 140 112 126C122 114 144 108 156 118C168 130 170 156 168 188Z" fill="url(#k15w6tlscale)" opacity="0.9"></path><path d="M94 188C94 162 102 140 112 126C122 114 144 108 156 118C168 130 170 156 168 188Z" fill="url(#k15w6tlcyl)" opacity="1"></path><path d="M94 188C94 162 102 140 112 126C122 114 144 108 156 118C168 130 170 156 168 188Z" fill="url(#k15w6tltop)"></path><path d="M94 188C94 162 102 140 112 126C122 114 144 108 156 118C168 130 170 156 168 188Z" fill="url(#k-noise)" opacity="0.5"></path><path d="M94 188C94 162 102 140 112 126C122 114 144 108 156 118C168 130 170 156 168 188Z" fill="none" stroke="#000" stroke-opacity="0.55" stroke-width="9" filter="url(#k15w6tlb3)"></path><circle cx="131.4" cy="115.6" r="0.4" fill="#e8f8ff" opacity="0.4"></circle><circle cx="122" cy="144" r="0.8" fill="#e8f8ff" opacity="0.2"></circle><circle cx="132.8" cy="126.5" r="1" fill="#e8f8ff" opacity="0.5"></circle><circle cx="161.2" cy="127.7" r="0.4" fill="#e8f8ff" opacity="0.5"></circle><circle cx="141" cy="143.3" r="0.8" fill="#e8f8ff" opacity="0.2"></circle><circle cx="163.6" cy="151.6" r="0.5" fill="#e8f8ff" opacity="0.3"></circle><circle cx="150" cy="150.5" r="0.7" fill="#e8f8ff" opacity="0.3"></circle><circle cx="145.7" cy="122.8" r="0.7" fill="#e8f8ff" opacity="0.4"></circle><circle cx="130.7" cy="119" r="0.6" fill="#e8f8ff" opacity="0.2"></circle><circle cx="127.5" cy="138.2" r="0.9" fill="#e8f8ff" opacity="0.2"></circle><circle cx="162.9" cy="138.6" r="1" fill="#e8f8ff" opacity="0.2"></circle><circle cx="157" cy="117.5" r="0.6" fill="#e8f8ff" opacity="0.3"></circle><circle cx="144.3" cy="131.8" r="0.4" fill="#e8f8ff" opacity="0.4"></circle><circle cx="141.4" cy="139.2" r="0.8" fill="#e8f8ff" opacity="0.3"></circle><path d="M142 128L148 140L144 152" fill="none" stroke="#07050a" stroke-width="2.4" stroke-linecap="round"></path><path d="M142 128L148 140L144 152" fill="none" stroke="#9fd8ff" stroke-width="1.1" stroke-linecap="round"></path><path d="M142 128L148 140L144 152" fill="none" stroke="#9fd8ff" stroke-width="4" stroke-linecap="round" opacity=".35" filter="url(#k15w6tlb1)"></path><path d="M126 116C138 112 150 114 158 122" fill="none" stroke="#ffe8cc" stroke-opacity="0.32" stroke-width="4.2" stroke-linecap="round" filter="url(#k15w6tlb1)"></path><path d="M126 116C138 112 150 114 158 122" fill="none" stroke="#fff6ea" stroke-opacity="0.6" stroke-width=".9" stroke-linecap="round"></path><path d="M94 188C94 162 102 140 112 126C122 114 144 108 156 118C168 130 170 156 168 188Z" fill="none" stroke="url(#k15w6tlrim)" stroke-width="3.2"></path></g><path d="M94 188C94 162 102 140 112 126C122 114 144 108 156 118C168 130 170 156 168 188Z" fill="none" stroke="#07050a" stroke-width="1.3" stroke-linejoin="round"></path></g><g><clipPath id="cp162s2b"><path d="M149.1 113.5Q150.4 105.3 153 97.6Q148.6 104.4 142.9 110.5Z"></path></clipPath><path d="M149.1 113.5Q150.4 105.3 153 97.6Q148.6 104.4 142.9 110.5Z" fill="#5f8aa6"></path><g clip-path="url(#cp162s2b)"><path d="M149.1 113.5Q150.4 105.3 153 97.6Q148.6 104.4 142.9 110.5Z" fill="url(#k15w6tlcyl)" opacity="1"></path><path d="M149.1 113.5Q150.4 105.3 153 97.6Q148.6 104.4 142.9 110.5Z" fill="url(#k15w6tltop)"></path><path d="M149.1 113.5Q150.4 105.3 153 97.6Q148.6 104.4 142.9 110.5Z" fill="url(#k-noise)" opacity="0.2"></path><path d="M149.1 113.5Q150.4 105.3 153 97.6Q148.6 104.4 142.9 110.5Z" fill="none" stroke="url(#k15w6tlrim)" stroke-width="1.6"></path></g><path d="M149.1 113.5Q150.4 105.3 153 97.6Q148.6 104.4 142.9 110.5Z" fill="none" stroke="#07050a" stroke-width="1.1" stroke-linejoin="round"></path></g><g><clipPath id="cp163nax"><path d="M158.4 120.4Q163.5 112.1 169.7 104.8Q162.1 110.7 153.6 115.6Z"></path></clipPath><path d="M158.4 120.4Q163.5 112.1 169.7 104.8Q162.1 110.7 153.6 115.6Z" fill="#5f8aa6"></path><g clip-path="url(#cp163nax)"><path d="M158.4 120.4Q163.5 112.1 169.7 104.8Q162.1 110.7 153.6 115.6Z" fill="url(#k15w6tlcyl)" opacity="1"></path><path d="M158.4 120.4Q163.5 112.1 169.7 104.8Q162.1 110.7 153.6 115.6Z" fill="url(#k15w6tltop)"></path><path d="M158.4 120.4Q163.5 112.1 169.7 104.8Q162.1 110.7 153.6 115.6Z" fill="url(#k-noise)" opacity="0.2"></path><path d="M158.4 120.4Q163.5 112.1 169.7 104.8Q162.1 110.7 153.6 115.6Z" fill="none" stroke="url(#k15w6tlrim)" stroke-width="1.6"></path></g><path d="M158.4 120.4Q163.5 112.1 169.7 104.8Q162.1 110.7 153.6 115.6Z" fill="none" stroke="#07050a" stroke-width="1.1" stroke-linejoin="round"></path></g><g><clipPath id="cp164we1"><path d="M164.4 133.1Q171.2 127.5 178.5 123.1Q170.4 125.6 161.6 126.9Z"></path></clipPath><path d="M164.4 133.1Q171.2 127.5 178.5 123.1Q170.4 125.6 161.6 126.9Z" fill="#5f8aa6"></path><g clip-path="url(#cp164we1)"><path d="M164.4 133.1Q171.2 127.5 178.5 123.1Q170.4 125.6 161.6 126.9Z" fill="url(#k15w6tlcyl)" opacity="1"></path><path d="M164.4 133.1Q171.2 127.5 178.5 123.1Q170.4 125.6 161.6 126.9Z" fill="url(#k15w6tltop)"></path><path d="M164.4 133.1Q171.2 127.5 178.5 123.1Q170.4 125.6 161.6 126.9Z" fill="url(#k-noise)" opacity="0.2"></path><path d="M164.4 133.1Q171.2 127.5 178.5 123.1Q170.4 125.6 161.6 126.9Z" fill="none" stroke="url(#k15w6tlrim)" stroke-width="1.6"></path></g><path d="M164.4 133.1Q171.2 127.5 178.5 123.1Q170.4 125.6 161.6 126.9Z" fill="none" stroke="#07050a" stroke-width="1.1" stroke-linejoin="round"></path></g><g><clipPath id="cp165jch"><path d="M167.5 148.4Q174.1 145 180.9 143.1Q173.8 143 166.5 141.6Z"></path></clipPath><path d="M167.5 148.4Q174.1 145 180.9 143.1Q173.8 143 166.5 141.6Z" fill="#5f8aa6"></path><g clip-path="url(#cp165jch)"><path d="M167.5 148.4Q174.1 145 180.9 143.1Q173.8 143 166.5 141.6Z" fill="url(#k15w6tlcyl)" opacity="1"></path><path d="M167.5 148.4Q174.1 145 180.9 143.1Q173.8 143 166.5 141.6Z" fill="url(#k15w6tltop)"></path><path d="M167.5 148.4Q174.1 145 180.9 143.1Q173.8 143 166.5 141.6Z" fill="url(#k-noise)" opacity="0.2"></path><path d="M167.5 148.4Q174.1 145 180.9 143.1Q173.8 143 166.5 141.6Z" fill="none" stroke="url(#k15w6tlrim)" stroke-width="1.6"></path></g><path d="M167.5 148.4Q174.1 145 180.9 143.1Q173.8 143 166.5 141.6Z" fill="none" stroke="#07050a" stroke-width="1.1" stroke-linejoin="round"></path></g><g><clipPath id="cp166upl"><path d="M167.6 163.4Q172.9 161.5 177.9 161Q173.1 159.5 168.4 156.6Z"></path></clipPath><path d="M167.6 163.4Q172.9 161.5 177.9 161Q173.1 159.5 168.4 156.6Z" fill="#5f8aa6"></path><g clip-path="url(#cp166upl)"><path d="M167.6 163.4Q172.9 161.5 177.9 161Q173.1 159.5 168.4 156.6Z" fill="url(#k15w6tlcyl)" opacity="1"></path><path d="M167.6 163.4Q172.9 161.5 177.9 161Q173.1 159.5 168.4 156.6Z" fill="url(#k15w6tltop)"></path><path d="M167.6 163.4Q172.9 161.5 177.9 161Q173.1 159.5 168.4 156.6Z" fill="url(#k-noise)" opacity="0.2"></path><path d="M167.6 163.4Q172.9 161.5 177.9 161Q173.1 159.5 168.4 156.6Z" fill="none" stroke="url(#k15w6tlrim)" stroke-width="1.6"></path></g><path d="M167.6 163.4Q172.9 161.5 177.9 161Q173.1 159.5 168.4 156.6Z" fill="none" stroke="#07050a" stroke-width="1.1" stroke-linejoin="round"></path></g><circle cx="130" cy="146" r="18" fill="#3a8ab8" opacity="0.2" filter="url(#k15w6tlb8)"></circle></g><g data-b="neck" transform="matrix(0.9987 0.0501 -0.0501 0.9987 6.46 -5.95)"><g><clipPath id="cp1678th"><path d="M86 128C88 110 102 96 120 96C136 96 148 106 150 118C144 128 134 138 122 146C106 152 90 142 86 128Z"></path></clipPath><path d="M86 128C88 110 102 96 120 96C136 96 148 106 150 118C144 128 134 138 122 146C106 152 90 142 86 128Z" fill="#243a52"></path><g clip-path="url(#cp1678th)"><path d="M86 128C88 118 94 110 102 106C102 120 104 134 110 148C98 148 88 140 86 128Z" fill="#6f8ea2" opacity=".5"></path><path d="M86 128C88 110 102 96 120 96C136 96 148 106 150 118C144 128 134 138 122 146C106 152 90 142 86 128Z" fill="url(#k15w6tlscale)" opacity="0.9"></path><path d="M86 128C88 110 102 96 120 96C136 96 148 106 150 118C144 128 134 138 122 146C106 152 90 142 86 128Z" fill="url(#k15w6tlcyl)" opacity="1"></path><path d="M86 128C88 110 102 96 120 96C136 96 148 106 150 118C144 128 134 138 122 146C106 152 90 142 86 128Z" fill="url(#k15w6tltop)"></path><path d="M86 128C88 110 102 96 120 96C136 96 148 106 150 118C144 128 134 138 122 146C106 152 90 142 86 128Z" fill="url(#k-noise)" opacity="0.5"></path><path d="M86 128C88 110 102 96 120 96C136 96 148 106 150 118C144 128 134 138 122 146C106 152 90 142 86 128Z" fill="none" stroke="#000" stroke-opacity="0.3" stroke-width="5" filter="url(#k15w6tlb3)"></path><path d="M110 104C116 112 118 124 114 136" fill="none" stroke="#000" stroke-opacity=".5" stroke-width="2.4" filter="url(#k15w6tlb1)"></path><path d="M118 102C124 110 126 122 122 134" fill="none" stroke="#000" stroke-opacity=".5" stroke-width="2.4" filter="url(#k15w6tlb1)"></path><path d="M112 100C122 96 132 98 140 104" fill="none" stroke="#ffe8cc" stroke-opacity="0.32" stroke-width="4.2" stroke-linecap="round" filter="url(#k15w6tlb1)"></path><path d="M112 100C122 96 132 98 140 104" fill="none" stroke="#fff6ea" stroke-opacity="0.6" stroke-width=".9" stroke-linecap="round"></path><path d="M86 128C88 110 102 96 120 96C136 96 148 106 150 118C144 128 134 138 122 146C106 152 90 142 86 128Z" fill="none" stroke="url(#k15w6tlrim)" stroke-width="3.2"></path></g></g><path d="M86 128C88 110 102 96 120 96C136 96 148 106 150 118" fill="none" stroke="#07050a" stroke-width="1.3"></path><path d="M86 128C88 136 94 142 102 146" fill="none" stroke="#07050a" stroke-width="1.3"></path><g><clipPath id="cp168ib7"><path d="M129 97.7Q126.1 90.4 124.4 83.1Q124.3 90.6 123 98.3Z"></path></clipPath><path d="M129 97.7Q126.1 90.4 124.4 83.1Q124.3 90.6 123 98.3Z" fill="#5f8aa6"></path><g clip-path="url(#cp168ib7)"><path d="M129 97.7Q126.1 90.4 124.4 83.1Q124.3 90.6 123 98.3Z" fill="url(#k15w6tlcyl)" opacity="1"></path><path d="M129 97.7Q126.1 90.4 124.4 83.1Q124.3 90.6 123 98.3Z" fill="url(#k15w6tltop)"></path><path d="M129 97.7Q126.1 90.4 124.4 83.1Q124.3 90.6 123 98.3Z" fill="url(#k-noise)" opacity="0.2"></path><path d="M129 97.7Q126.1 90.4 124.4 83.1Q124.3 90.6 123 98.3Z" fill="none" stroke="url(#k15w6tlrim)" stroke-width="1.6"></path></g><path d="M129 97.7Q126.1 90.4 124.4 83.1Q124.3 90.6 123 98.3Z" fill="none" stroke="#07050a" stroke-width="1.1" stroke-linejoin="round"></path></g><g><clipPath id="cp169oah"><path d="M139.9 101.6Q139.5 93.4 140.3 85.3Q137.8 93 134.1 100.4Z"></path></clipPath><path d="M139.9 101.6Q139.5 93.4 140.3 85.3Q137.8 93 134.1 100.4Z" fill="#5f8aa6"></path><g clip-path="url(#cp169oah)"><path d="M139.9 101.6Q139.5 93.4 140.3 85.3Q137.8 93 134.1 100.4Z" fill="url(#k15w6tlcyl)" opacity="1"></path><path d="M139.9 101.6Q139.5 93.4 140.3 85.3Q137.8 93 134.1 100.4Z" fill="url(#k15w6tltop)"></path><path d="M139.9 101.6Q139.5 93.4 140.3 85.3Q137.8 93 134.1 100.4Z" fill="url(#k-noise)" opacity="0.2"></path><path d="M139.9 101.6Q139.5 93.4 140.3 85.3Q137.8 93 134.1 100.4Z" fill="none" stroke="url(#k15w6tlrim)" stroke-width="1.6"></path></g><path d="M139.9 101.6Q139.5 93.4 140.3 85.3Q137.8 93 134.1 100.4Z" fill="none" stroke="#07050a" stroke-width="1.1" stroke-linejoin="round"></path></g></g><g data-b="ex1" transform="matrix(0.9906 0.1369 -0.1369 0.9906 16.48 -13.77)"><path d="M66 76C60 60 48 52 36 54" fill="none" stroke="#07050a" stroke-width="4" stroke-linecap="round"></path><path d="M66 76C60 60 48 52 36 54" fill="none" stroke="#3e5a74" stroke-width="2" stroke-linecap="round"></path><circle cx="34" cy="56" r="12" fill="#bfe8ff" opacity="0.55" filter="url(#k15w6tlb8)"></circle><g><clipPath id="cp16gpud"><path d="M34 48L39 54L36 61L31 61L28 54Z"></path></clipPath><path d="M34 48L39 54L36 61L31 61L28 54Z" fill="#bfe8ff"></path><g clip-path="url(#cp16gpud)"><path d="M34 48L39 54L36 61L31 61L28 54Z" fill="url(#k15w6tlcyl)" opacity="0.6"></path><path d="M34 48L39 54L36 61L31 61L28 54Z" fill="url(#k15w6tltop)"></path><circle cx="33.5" cy="55" r="2.4" fill="#fff" opacity=".9" filter="url(#k15w6tlb1)"></circle><path d="M34 48L39 54L36 61L31 61L28 54Z" fill="none" stroke="url(#k15w6tlrim)" stroke-width="1.2"></path></g><path d="M34 48L39 54L36 61L31 61L28 54Z" fill="none" stroke="#07050a" stroke-width="1" stroke-linejoin="round"></path></g></g><g data-b="head" transform="matrix(0.9906 0.1369 -0.1369 0.9906 16.48 -13.77)"><path d="M22 114C40 112 70 112 106 112L102 130C76 130 44 128 26 122Z" fill="#05090f"></path><ellipse cx="62" cy="120" rx="30" ry="5" fill="#5ab8ff" opacity=".35" filter="url(#k15w6tlb3)"></ellipse><g><clipPath id="cp16ak8z"><path d="M16 112C16 104 22 96 32 90C46 80 64 72 84 70C100 70 114 74 120 84C128 94 128 106 120 114C100 116 70 116 50 116C32 116 16 118 16 112Z"></path></clipPath><path d="M16 112C16 104 22 96 32 90C46 80 64 72 84 70C100 70 114 74 120 84C128 94 128 106 120 114C100 116 70 116 50 116C32 116 16 118 16 112Z" fill="#243a52"></path><g clip-path="url(#cp16ak8z)"><path d="M16 112C16 104 22 96 32 90C46 80 64 72 84 70C100 70 114 74 120 84C128 94 128 106 120 114C100 116 70 116 50 116C32 116 16 118 16 112Z" fill="url(#k15w6tlcyl)" opacity="1"></path><path d="M16 112C16 104 22 96 32 90C46 80 64 72 84 70C100 70 114 74 120 84C128 94 128 106 120 114C100 116 70 116 50 116C32 116 16 118 16 112Z" fill="url(#k15w6tltop)"></path><path d="M16 112C16 104 22 96 32 90C46 80 64 72 84 70C100 70 114 74 120 84C128 94 128 106 120 114C100 116 70 116 50 116C32 116 16 118 16 112Z" fill="url(#k-noise)" opacity="0.55"></path><path d="M16 112C16 104 22 96 32 90C46 80 64 72 84 70C100 70 114 74 120 84C128 94 128 106 120 114C100 116 70 116 50 116C32 116 16 118 16 112Z" fill="none" stroke="#000" stroke-opacity="0.55" stroke-width="7" filter="url(#k15w6tlb3)"></path><path d="M40 84C60 74 88 70 106 78L100 96C84 90 62 92 48 98Z" fill="#162436" opacity=".6"></path><path d="M100 86C104 94 104 104 100 112" fill="none" stroke="#07050a" stroke-width="1.6"></path><path d="M100 86C104 94 104 104 100 112" fill="none" stroke="#9fd8ff" stroke-opacity=".25" stroke-width=".7" transform="translate(-1.2 0)"></path><path d="M106 86C110 94 110 104 106 112" fill="none" stroke="#07050a" stroke-width="1.6"></path><path d="M106 86C110 94 110 104 106 112" fill="none" stroke="#9fd8ff" stroke-opacity=".25" stroke-width=".7" transform="translate(-1.2 0)"></path><path d="M112 88C115 96 115 104 112 110" fill="none" stroke="#07050a" stroke-width="1.6"></path><path d="M112 88C115 96 115 104 112 110" fill="none" stroke="#9fd8ff" stroke-opacity=".25" stroke-width=".7" transform="translate(-1.2 0)"></path><ellipse cx="70" cy="100" rx="11" ry="7" fill="#000" opacity=".75" filter="url(#k15w6tlb1)"></ellipse><path d="M24 106C40 108 60 109 84 108" fill="none" stroke="#000" stroke-opacity=".4" stroke-width="2" filter="url(#k15w6tlb1)"></path><path d="M49.4 89.1l3.8 -1.2" stroke="#e8f8ff" stroke-width=".7" stroke-linecap="round" opacity="0.4"></path><path d="M87.1 81.3l4.7 -1.4" stroke="#e8f8ff" stroke-width=".7" stroke-linecap="round" opacity="0.4"></path><path d="M42.5 84.9l4 -1.2" stroke="#e8f8ff" stroke-width=".7" stroke-linecap="round" opacity="0.4"></path><path d="M47.6 77.1l5.6 -1.7" stroke="#e8f8ff" stroke-width=".7" stroke-linecap="round" opacity="0.5"></path><path d="M54.9 85.1l3.8 -1.2" stroke="#e8f8ff" stroke-width=".7" stroke-linecap="round" opacity="0.6"></path><path d="M51.9 77.8l5.2 -1.6" stroke="#e8f8ff" stroke-width=".7" stroke-linecap="round" opacity="0.5"></path><path d="M30.7 88.4l2.7 -0.8" stroke="#e8f8ff" stroke-width=".7" stroke-linecap="round" opacity="0.6"></path><path d="M47.6 86l3.3 -1" stroke="#e8f8ff" stroke-width=".7" stroke-linecap="round" opacity="0.6"></path><path d="M89.8 87l5 -1.5" stroke="#e8f8ff" stroke-width=".7" stroke-linecap="round" opacity="0.4"></path><path d="M43.7 78.3l3 -0.9" stroke="#e8f8ff" stroke-width=".7" stroke-linecap="round" opacity="0.3"></path><path d="M84.2 79.3l2.4 -0.7" stroke="#e8f8ff" stroke-width=".7" stroke-linecap="round" opacity="0.4"></path><path d="M57.9 78.4l5.4 -1.6" stroke="#e8f8ff" stroke-width=".7" stroke-linecap="round" opacity="0.3"></path><path d="M58.6 84.6l3.6 -1.1" stroke="#e8f8ff" stroke-width=".7" stroke-linecap="round" opacity="0.6"></path><path d="M90.6 87.8l4.1 -1.2" stroke="#e8f8ff" stroke-width=".7" stroke-linecap="round" opacity="0.5"></path><path d="M96.1 77.3l2.9 -0.9" stroke="#e8f8ff" stroke-width=".7" stroke-linecap="round" opacity="0.5"></path><path d="M42.9 81.6l2.6 -0.8" stroke="#e8f8ff" stroke-width=".7" stroke-linecap="round" opacity="0.3"></path><path d="M26 98C36 88 52 80 70 74" fill="none" stroke="#ffe8cc" stroke-opacity="0.32" stroke-width="4.2" stroke-linecap="round" filter="url(#k15w6tlb1)"></path><path d="M26 98C36 88 52 80 70 74" fill="none" stroke="#fff6ea" stroke-opacity="0.6" stroke-width=".9" stroke-linecap="round"></path><path d="M16 112C16 104 22 96 32 90C46 80 64 72 84 70C100 70 114 74 120 84C128 94 128 106 120 114C100 116 70 116 50 116C32 116 16 118 16 112Z" fill="none" stroke="url(#k15w6tlrim)" stroke-width="3.2"></path></g><path d="M16 112C16 104 22 96 32 90C46 80 64 72 84 70C100 70 114 74 120 84C128 94 128 106 120 114C100 116 70 116 50 116C32 116 16 118 16 112Z" fill="none" stroke="#07050a" stroke-width="1.3" stroke-linejoin="round"></path></g><g><clipPath id="cp16be2k"><path d="M50 101C60 92 76 86 94 84L93 91C78 92 64 97 53 105Z"></path></clipPath><path d="M50 101C60 92 76 86 94 84L93 91C78 92 64 97 53 105Z" fill="#34506a"></path><g clip-path="url(#cp16be2k)"><path d="M50 101C60 92 76 86 94 84L93 91C78 92 64 97 53 105Z" fill="url(#k15w6tlcyl)" opacity="1"></path><path d="M50 101C60 92 76 86 94 84L93 91C78 92 64 97 53 105Z" fill="url(#k15w6tltop)"></path><path d="M50 101C60 92 76 86 94 84L93 91C78 92 64 97 53 105Z" fill="url(#k-noise)" opacity="0.5"></path><path d="M50 101C60 92 76 86 94 84L93 91C78 92 64 97 53 105Z" fill="none" stroke="#000" stroke-opacity="0.55" stroke-width="3" filter="url(#k15w6tlb3)"></path><path d="M56 97C66 91 78 88 90 87" fill="none" stroke="#ffe8cc" stroke-opacity="0.32" stroke-width="4.2" stroke-linecap="round" filter="url(#k15w6tlb1)"></path><path d="M56 97C66 91 78 88 90 87" fill="none" stroke="#fff6ea" stroke-opacity="0.6" stroke-width=".9" stroke-linecap="round"></path><path d="M50 101C60 92 76 86 94 84L93 91C78 92 64 97 53 105Z" fill="none" stroke="url(#k15w6tlrim)" stroke-width="1.6"></path></g><path d="M50 101C60 92 76 86 94 84L93 91C78 92 64 97 53 105Z" fill="none" stroke="#07050a" stroke-width="1" stroke-linejoin="round"></path></g><g transform="rotate(-36 70 78)"><g><clipPath id="cp16cc2c"><path d="M66 78L66 68.1L70 62L74 68.1L74 78Z"></path></clipPath><path d="M66 78L66 68.1L70 62L74 68.1L74 78Z" fill="#5f8aa6"></path><g clip-path="url(#cp16cc2c)"><path d="M66 78L66 68.1L70 62L74 68.1L74 78Z" fill="url(#k15w6tlcyl)" opacity="0.75"></path><path d="M66 78L66 68.1L70 62L74 68.1L74 78Z" fill="url(#k15w6tltop)"></path><path d="M66 78L66 68.1L70 62L74 68.1L74 78Z" fill="url(#k-noise)" opacity="0.12"></path><path d="M66 78L66 68.1L70 62L74 68.1L74 78Z" fill="none" stroke="#000" stroke-opacity="0.55" stroke-width="3" filter="url(#k15w6tlb3)"></path><path d="M66 78L66 68.1L70 62L69.6 78Z" fill="#dff4ff" opacity=".26"></path><path d="M70 62L69.6 78" stroke="#eaf8ff" stroke-width=".9" opacity=".55"></path><path d="M67.5 76.1L67.5 70" fill="none" stroke="#ffe8cc" stroke-opacity="0.32" stroke-width="4.2" stroke-linecap="round" filter="url(#k15w6tlb1)"></path><path d="M67.5 76.1L67.5 70" fill="none" stroke="#fff6ea" stroke-opacity="0.6" stroke-width=".9" stroke-linecap="round"></path><path d="M66 78L66 68.1L70 62L74 68.1L74 78Z" fill="none" stroke="url(#k15w6tlrim)" stroke-width="1.6"></path></g><path d="M66 78L66 68.1L70 62L74 68.1L74 78Z" fill="none" stroke="#07050a" stroke-width="1" stroke-linejoin="round"></path></g></g><g transform="rotate(-16 86 72)"><g><clipPath id="cp16d8f4"><path d="M81.5 72L81.5 58.4L86 50L90.5 58.4L90.5 72Z"></path></clipPath><path d="M81.5 72L81.5 58.4L86 50L90.5 58.4L90.5 72Z" fill="#6a96b2"></path><g clip-path="url(#cp16d8f4)"><path d="M81.5 72L81.5 58.4L86 50L90.5 58.4L90.5 72Z" fill="url(#k15w6tlcyl)" opacity="0.75"></path><path d="M81.5 72L81.5 58.4L86 50L90.5 58.4L90.5 72Z" fill="url(#k15w6tltop)"></path><path d="M81.5 72L81.5 58.4L86 50L90.5 58.4L90.5 72Z" fill="url(#k-noise)" opacity="0.12"></path><path d="M81.5 72L81.5 58.4L86 50L90.5 58.4L90.5 72Z" fill="none" stroke="#000" stroke-opacity="0.55" stroke-width="3" filter="url(#k15w6tlb3)"></path><path d="M81.5 72L81.5 58.4L86 50L85.5 72Z" fill="#dff4ff" opacity=".26"></path><path d="M86 50L85.5 72" stroke="#eaf8ff" stroke-width=".9" opacity=".55"></path><path d="M83.2 69.4L83.2 61" fill="none" stroke="#ffe8cc" stroke-opacity="0.32" stroke-width="4.2" stroke-linecap="round" filter="url(#k15w6tlb1)"></path><path d="M83.2 69.4L83.2 61" fill="none" stroke="#fff6ea" stroke-opacity="0.6" stroke-width=".9" stroke-linecap="round"></path><path d="M81.5 72L81.5 58.4L86 50L90.5 58.4L90.5 72Z" fill="none" stroke="url(#k15w6tlrim)" stroke-width="1.6"></path></g><path d="M81.5 72L81.5 58.4L86 50L90.5 58.4L90.5 72Z" fill="none" stroke="#07050a" stroke-width="1" stroke-linejoin="round"></path></g></g><g transform="rotate(6 102 73)"><g><clipPath id="cp16eq8q"><path d="M98.5 73L98.5 63.7L102 58L105.5 63.7L105.5 73Z"></path></clipPath><path d="M98.5 73L98.5 63.7L102 58L105.5 63.7L105.5 73Z" fill="#557f9a"></path><g clip-path="url(#cp16eq8q)"><path d="M98.5 73L98.5 63.7L102 58L105.5 63.7L105.5 73Z" fill="url(#k15w6tlcyl)" opacity="0.75"></path><path d="M98.5 73L98.5 63.7L102 58L105.5 63.7L105.5 73Z" fill="url(#k15w6tltop)"></path><path d="M98.5 73L98.5 63.7L102 58L105.5 63.7L105.5 73Z" fill="url(#k-noise)" opacity="0.12"></path><path d="M98.5 73L98.5 63.7L102 58L105.5 63.7L105.5 73Z" fill="none" stroke="#000" stroke-opacity="0.55" stroke-width="3" filter="url(#k15w6tlb3)"></path><path d="M98.5 73L98.5 63.7L102 58L101.7 73Z" fill="#dff4ff" opacity=".26"></path><path d="M102 58L101.7 73" stroke="#eaf8ff" stroke-width=".9" opacity=".55"></path><path d="M99.8 71.2L99.8 65.5" fill="none" stroke="#ffe8cc" stroke-opacity="0.32" stroke-width="4.2" stroke-linecap="round" filter="url(#k15w6tlb1)"></path><path d="M99.8 71.2L99.8 65.5" fill="none" stroke="#fff6ea" stroke-opacity="0.6" stroke-width=".9" stroke-linecap="round"></path><path d="M98.5 73L98.5 63.7L102 58L105.5 63.7L105.5 73Z" fill="none" stroke="url(#k15w6tlrim)" stroke-width="1.6"></path></g><path d="M98.5 73L98.5 63.7L102 58L105.5 63.7L105.5 73Z" fill="none" stroke="#07050a" stroke-width="1" stroke-linejoin="round"></path></g></g><ellipse cx="70" cy="101" rx="7.5" ry="4.8" fill="#bfe8ff" opacity="0.5" filter="url(#k15w6tlb3)"></ellipse><g class="rblink" style="animation-delay:3.3s;animation-duration:5.5s"><path d="M65 101.8L75 99.3Q74.3 102.5 70 103Q66.8 103.1 65 101.8Z" fill="#bfe8ff" stroke="#07050a" stroke-width="0.8" stroke-linejoin="round"></path><ellipse cx="70.3" cy="101.3" rx="0.7" ry="1.5" fill="#0a0610"></ellipse></g><path d="M26 104C27 102 29 101 31 102" fill="none" stroke="#07050a" stroke-width="2" stroke-linecap="round"></path><path d="M23.2 114L25.5 123L26.8 114Z" fill="#e4f6ff" stroke="#07050a" stroke-width=".8" stroke-linejoin="round"></path><path d="M24.3 115.3L25 120.3" stroke="#fff" stroke-opacity=".5" stroke-width=".6"></path><path d="M29.6 115L32.7 135L34.4 115Z" fill="#e4f6ff" stroke="#07050a" stroke-width=".8" stroke-linejoin="round"></path><path d="M31 118L32 129" stroke="#fff" stroke-opacity=".5" stroke-width=".6"></path><path d="M38.2 115L40.5 125L41.8 115Z" fill="#e4f6ff" stroke="#07050a" stroke-width=".8" stroke-linejoin="round"></path><path d="M39.3 116.5L40 122" stroke="#fff" stroke-opacity=".5" stroke-width=".6"></path><path d="M45.4 115L48.8 137L50.6 115Z" fill="#e4f6ff" stroke="#07050a" stroke-width=".8" stroke-linejoin="round"></path><path d="M47 118.3L48 130.4" stroke="#fff" stroke-opacity=".5" stroke-width=".6"></path><path d="M54.2 115L56.5 124L57.8 115Z" fill="#e4f6ff" stroke="#07050a" stroke-width=".8" stroke-linejoin="round"></path><path d="M55.3 116.3L56 121.3" stroke="#fff" stroke-opacity=".5" stroke-width=".6"></path><path d="M61.8 115L64.7 130L66.2 115Z" fill="#e4f6ff" stroke="#07050a" stroke-width=".8" stroke-linejoin="round"></path><path d="M63.1 117.3L64 125.5" stroke="#fff" stroke-opacity=".5" stroke-width=".6"></path><path d="M71.3 115L73.5 123L74.7 115Z" fill="#e4f6ff" stroke="#07050a" stroke-width=".8" stroke-linejoin="round"></path><path d="M72.3 116.2L73 120.6" stroke="#fff" stroke-opacity=".5" stroke-width=".6"></path><path d="M80.2 114L82.5 125L83.8 114Z" fill="#e4f6ff" stroke="#07050a" stroke-width=".8" stroke-linejoin="round"></path><path d="M81.3 115.7L82 121.7" stroke="#fff" stroke-opacity=".5" stroke-width=".6"></path><path d="M90.5 113L92.5 119L93.5 113Z" fill="#e4f6ff" stroke="#07050a" stroke-width=".8" stroke-linejoin="round"></path><path d="M91.4 113.9L92 117.2" stroke="#fff" stroke-opacity=".5" stroke-width=".6"></path></g><g data-b="jaw" transform="matrix(0.9948 0.1022 -0.1022 0.9948 12.09 -10.64)"><g><clipPath id="cp16fktf"><path d="M14 114C34 118 64 120 104 114C108 124 100 136 82 140C60 144 34 138 24 128C18 124 14 120 14 114Z"></path></clipPath><path d="M14 114C34 118 64 120 104 114C108 124 100 136 82 140C60 144 34 138 24 128C18 124 14 120 14 114Z" fill="#1e3246"></path><g clip-path="url(#cp16fktf)"><path d="M14 114C34 118 64 120 104 114L102 120C70 124 40 124 16 120Z" fill="#05090f"></path><path d="M14 114C34 118 64 120 104 114C108 124 100 136 82 140C60 144 34 138 24 128C18 124 14 120 14 114Z" fill="url(#k15w6tlcyl)" opacity="1"></path><path d="M14 114C34 118 64 120 104 114C108 124 100 136 82 140C60 144 34 138 24 128C18 124 14 120 14 114Z" fill="url(#k15w6tltop)"></path><path d="M14 114C34 118 64 120 104 114C108 124 100 136 82 140C60 144 34 138 24 128C18 124 14 120 14 114Z" fill="url(#k-noise)" opacity="0.55"></path><path d="M14 114C34 118 64 120 104 114C108 124 100 136 82 140C60 144 34 138 24 128C18 124 14 120 14 114Z" fill="none" stroke="#000" stroke-opacity="0.55" stroke-width="5" filter="url(#k15w6tlb3)"></path><path d="M40.7 130.4l4.3 -1.3" stroke="#e8f8ff" stroke-width=".7" stroke-linecap="round" opacity="0.4"></path><path d="M68.8 135.8l3 -0.9" stroke="#e8f8ff" stroke-width=".7" stroke-linecap="round" opacity="0.5"></path><path d="M38.5 136.8l2.9 -0.9" stroke="#e8f8ff" stroke-width=".7" stroke-linecap="round" opacity="0.4"></path><path d="M30.9 135.3l3 -0.9" stroke="#e8f8ff" stroke-width=".7" stroke-linecap="round" opacity="0.3"></path><path d="M39.8 133.9l3 -0.9" stroke="#e8f8ff" stroke-width=".7" stroke-linecap="round" opacity="0.3"></path><path d="M51.2 131.8l5.3 -1.6" stroke="#e8f8ff" stroke-width=".7" stroke-linecap="round" opacity="0.6"></path><path d="M68.8 131.1l5.1 -1.5" stroke="#e8f8ff" stroke-width=".7" stroke-linecap="round" opacity="0.3"></path><path d="M30.8 130l5.4 -1.6" stroke="#e8f8ff" stroke-width=".7" stroke-linecap="round" opacity="0.5"></path><path d="M57.6 129.9l2.5 -0.8" stroke="#e8f8ff" stroke-width=".7" stroke-linecap="round" opacity="0.5"></path><path d="M44.6 126.9l4.6 -1.4" stroke="#e8f8ff" stroke-width=".7" stroke-linecap="round" opacity="0.6"></path><path d="M28 132C50 138 72 138 94 128" fill="none" stroke="#000" stroke-opacity=".5" stroke-width="2" filter="url(#k15w6tlb1)"></path><path d="M30 134C46 140 64 140 80 136" fill="none" stroke="#ffe8cc" stroke-opacity="0.32" stroke-width="4.2" stroke-linecap="round" filter="url(#k15w6tlb1)"></path><path d="M30 134C46 140 64 140 80 136" fill="none" stroke="#fff6ea" stroke-opacity="0.6" stroke-width=".9" stroke-linecap="round"></path><path d="M14 114C34 118 64 120 104 114C108 124 100 136 82 140C60 144 34 138 24 128C18 124 14 120 14 114Z" fill="none" stroke="url(#k15w6tlrim)" stroke-width="3.2"></path></g><path d="M14 114C34 118 64 120 104 114C108 124 100 136 82 140C60 144 34 138 24 128C18 124 14 120 14 114Z" fill="none" stroke="#07050a" stroke-width="1.3" stroke-linejoin="round"></path></g><path d="M15.8 116L17.3 102L20.2 116Z" fill="#e4f6ff" stroke="#07050a" stroke-width=".8" stroke-linejoin="round"></path><path d="M17.1 113.9L18 106.2" stroke="#fff" stroke-opacity=".5" stroke-width=".6"></path><path d="M25.2 118L27.2 94L30.8 118Z" fill="#e4f6ff" stroke="#07050a" stroke-width=".8" stroke-linejoin="round"></path><path d="M26.9 114.4L28 101.2" stroke="#fff" stroke-opacity=".5" stroke-width=".6"></path><path d="M37 119L38.4 108L41 119Z" fill="#e4f6ff" stroke="#07050a" stroke-width=".8" stroke-linejoin="round"></path><path d="M38.2 117.3L39 111.3" stroke="#fff" stroke-opacity=".5" stroke-width=".6"></path><path d="M45.7 120L47.3 103L50.3 120Z" fill="#e4f6ff" stroke="#07050a" stroke-width=".8" stroke-linejoin="round"></path><path d="M47.1 117.5L48 108.1" stroke="#fff" stroke-opacity=".5" stroke-width=".6"></path><path d="M56.2 120L57.5 111L59.8 120Z" fill="#e4f6ff" stroke="#07050a" stroke-width=".8" stroke-linejoin="round"></path><path d="M57.3 118.7L58 113.7" stroke="#fff" stroke-opacity=".5" stroke-width=".6"></path><path d="M68.2 119L69.5 109L71.8 119Z" fill="#e4f6ff" stroke="#07050a" stroke-width=".8" stroke-linejoin="round"></path><path d="M69.3 117.5L70 112" stroke="#fff" stroke-opacity=".5" stroke-width=".6"></path><path d="M80.4 118L81.5 111L83.6 118Z" fill="#e4f6ff" stroke="#07050a" stroke-width=".8" stroke-linejoin="round"></path><path d="M81.4 117L82 113.1" stroke="#fff" stroke-opacity=".5" stroke-width=".6"></path></g><g data-b="armF" transform="matrix(1.0000 0.0000 0.0000 1.0000 0.00 0.00)"><g opacity="0.92"><clipPath id="cp16h6tg"><path d="M114 146C104 152 94 164 86 180C96 178 104 172 110 168C112 164 116 158 120 152Z"></path></clipPath><path d="M114 146C104 152 94 164 86 180C96 178 104 172 110 168C112 164 116 158 120 152Z" fill="#34546e"></path><g clip-path="url(#cp16h6tg)"><path d="M114 146C104 152 94 164 86 180C96 178 104 172 110 168C112 164 116 158 120 152Z" fill="url(#k15w6tlcyl)" opacity="1"></path><path d="M114 146C104 152 94 164 86 180C96 178 104 172 110 168C112 164 116 158 120 152Z" fill="url(#k15w6tltop)"></path><path d="M114 146C104 152 94 164 86 180C96 178 104 172 110 168C112 164 116 158 120 152Z" fill="url(#k-noise)" opacity="0.4"></path><path d="M114 146C104 152 94 164 86 180C96 178 104 172 110 168C112 164 116 158 120 152Z" fill="none" stroke="#000" stroke-opacity="0.55" stroke-width="3" filter="url(#k15w6tlb3)"></path><path d="M114 150L90 176" stroke="#0a1622" stroke-width="1.1"></path><path d="M116 154L100 172" stroke="#0a1622" stroke-width="1.1"></path><path d="M118 156L108 168" stroke="#0a1622" stroke-width="1.1"></path><path d="M86 180C96 178 104 172 110 168" fill="none" stroke="#9fd8ff" stroke-opacity=".5" stroke-width="1"></path><path d="M114 146C104 152 94 164 86 180C96 178 104 172 110 168C112 164 116 158 120 152Z" fill="none" stroke="url(#k15w6tlrim)" stroke-width="3.2"></path></g><path d="M114 146C104 152 94 164 86 180C96 178 104 172 110 168C112 164 116 158 120 152Z" fill="none" stroke="#07050a" stroke-width="1.3" stroke-linejoin="round"></path></g></g><g data-b="pool" transform="matrix(1.0000 0.0000 0.0000 1.0000 0.00 0.00)"><g><clipPath id="cp16ihx2"><path d="M62 182C70 190 96 196 124 196C152 196 178 190 186 182C182 188 182 194 176 196L72 196C66 194 64 188 62 182Z"></path></clipPath><path d="M62 182C70 190 96 196 124 196C152 196 178 190 186 182C182 188 182 194 176 196L72 196C66 194 64 188 62 182Z" fill="#3e6680"></path><g clip-path="url(#cp16ihx2)"><path d="M62 182C70 190 96 196 124 196C152 196 178 190 186 182C182 188 182 194 176 196L72 196C66 194 64 188 62 182Z" fill="url(#k15w6tlcyl)" opacity="0.5"></path><path d="M62 182C70 190 96 196 124 196C152 196 178 190 186 182C182 188 182 194 176 196L72 196C66 194 64 188 62 182Z" fill="url(#k15w6tltop)"></path><path d="M62 182C70 190 96 196 124 196C152 196 178 190 186 182C182 188 182 194 176 196L72 196C66 194 64 188 62 182Z" fill="url(#k-noise)" opacity="0.3"></path><path d="M62 182C70 190 96 196 124 196C152 196 178 190 186 182C182 188 182 194 176 196L72 196C66 194 64 188 62 182Z" fill="none" stroke="#000" stroke-opacity="0.3" stroke-width="3" filter="url(#k15w6tlb3)"></path><path d="M94.2 194l5.6 -1.7" stroke="#e8f8ff" stroke-width=".7" stroke-linecap="round" opacity="0.5"></path><path d="M149.1 186.8l2.1 -0.6" stroke="#e8f8ff" stroke-width=".7" stroke-linecap="round" opacity="0.5"></path><path d="M107.8 193.4l3.6 -1.1" stroke="#e8f8ff" stroke-width=".7" stroke-linecap="round" opacity="0.8"></path><path d="M143.8 193.1l3.5 -1" stroke="#e8f8ff" stroke-width=".7" stroke-linecap="round" opacity="0.7"></path><path d="M182.4 193.3l4.5 -1.4" stroke="#e8f8ff" stroke-width=".7" stroke-linecap="round" opacity="0.4"></path><path d="M167.1 190.2l5.5 -1.7" stroke="#e8f8ff" stroke-width=".7" stroke-linecap="round" opacity="0.5"></path><path d="M163.1 187.8l4.2 -1.3" stroke="#e8f8ff" stroke-width=".7" stroke-linecap="round" opacity="0.4"></path><path d="M142.8 188.4l3.7 -1.1" stroke="#e8f8ff" stroke-width=".7" stroke-linecap="round" opacity="0.6"></path><path d="M168 186.4l3.1 -0.9" stroke="#e8f8ff" stroke-width=".7" stroke-linecap="round" opacity="0.6"></path><path d="M151.5 192.7l5.3 -1.6" stroke="#e8f8ff" stroke-width=".7" stroke-linecap="round" opacity="0.7"></path><path d="M94.9 189.6l4.2 -1.2" stroke="#e8f8ff" stroke-width=".7" stroke-linecap="round" opacity="0.7"></path><path d="M165.2 185.3l3.5 -1" stroke="#e8f8ff" stroke-width=".7" stroke-linecap="round" opacity="0.8"></path><path d="M124.8 184.4l2.1 -0.6" stroke="#e8f8ff" stroke-width=".7" stroke-linecap="round" opacity="0.6"></path><path d="M180.2 189l4.2 -1.2" stroke="#e8f8ff" stroke-width=".7" stroke-linecap="round" opacity="0.6"></path><path d="M62 182C70 190 96 196 124 196C152 196 178 190 186 182C182 188 182 194 176 196L72 196C66 194 64 188 62 182Z" fill="none" stroke="url(#k15w6tlrim)" stroke-width="1.6"></path></g><path d="M62 182C70 190 96 196 124 196C152 196 178 190 186 182C182 188 182 194 176 196L72 196C66 194 64 188 62 182Z" fill="none" stroke="#07050a" stroke-width="1" stroke-linejoin="round"></path></g><path d="M92 186C100 189 112 189 120 186M128 188C138 190 150 189 158 185" fill="none" stroke="#cfefff" stroke-opacity=".55" stroke-width="1.2" stroke-linecap="round"></path><g transform="rotate(-14 82 192)"><g><clipPath id="cp16js0s"><path d="M77.5 192L77.5 183.3L82 178L86.5 183.3L86.5 192Z"></path></clipPath><path d="M77.5 192L77.5 183.3L82 178L86.5 183.3L86.5 192Z" fill="#4f7f9e"></path><g clip-path="url(#cp16js0s)"><path d="M77.5 192L77.5 183.3L82 178L86.5 183.3L86.5 192Z" fill="url(#k15w6tlcyl)" opacity="0.75"></path><path d="M77.5 192L77.5 183.3L82 178L86.5 183.3L86.5 192Z" fill="url(#k15w6tltop)"></path><path d="M77.5 192L77.5 183.3L82 178L86.5 183.3L86.5 192Z" fill="url(#k-noise)" opacity="0.12"></path><path d="M77.5 192L77.5 183.3L82 178L86.5 183.3L86.5 192Z" fill="none" stroke="#000" stroke-opacity="0.55" stroke-width="3" filter="url(#k15w6tlb3)"></path><path d="M77.5 192L77.5 183.3L82 178L81.5 192Z" fill="#dff4ff" opacity=".26"></path><path d="M82 178L81.5 192" stroke="#eaf8ff" stroke-width=".9" opacity=".55"></path><path d="M79.2 190.3L79.2 185" fill="none" stroke="#ffe8cc" stroke-opacity="0.32" stroke-width="4.2" stroke-linecap="round" filter="url(#k15w6tlb1)"></path><path d="M79.2 190.3L79.2 185" fill="none" stroke="#fff6ea" stroke-opacity="0.6" stroke-width=".9" stroke-linecap="round"></path><path d="M77.5 192L77.5 183.3L82 178L86.5 183.3L86.5 192Z" fill="none" stroke="url(#k15w6tlrim)" stroke-width="1.6"></path></g><path d="M77.5 192L77.5 183.3L82 178L86.5 183.3L86.5 192Z" fill="none" stroke="#07050a" stroke-width="1" stroke-linejoin="round"></path></g></g><g transform="rotate(16 158 193)"><g><clipPath id="cp16kdme"><path d="M153 193L153 183.1L158 177L163 183.1L163 193Z"></path></clipPath><path d="M153 193L153 183.1L158 177L163 183.1L163 193Z" fill="#4f7f9e"></path><g clip-path="url(#cp16kdme)"><path d="M153 193L153 183.1L158 177L163 183.1L163 193Z" fill="url(#k15w6tlcyl)" opacity="0.75"></path><path d="M153 193L153 183.1L158 177L163 183.1L163 193Z" fill="url(#k15w6tltop)"></path><path d="M153 193L153 183.1L158 177L163 183.1L163 193Z" fill="url(#k-noise)" opacity="0.12"></path><path d="M153 193L153 183.1L158 177L163 183.1L163 193Z" fill="none" stroke="#000" stroke-opacity="0.55" stroke-width="3" filter="url(#k15w6tlb3)"></path><path d="M153 193L153 183.1L158 177L157.5 193Z" fill="#dff4ff" opacity=".26"></path><path d="M158 177L157.5 193" stroke="#eaf8ff" stroke-width=".9" opacity=".55"></path><path d="M154.9 191.1L154.9 185" fill="none" stroke="#ffe8cc" stroke-opacity="0.32" stroke-width="4.2" stroke-linecap="round" filter="url(#k15w6tlb1)"></path><path d="M154.9 191.1L154.9 185" fill="none" stroke="#fff6ea" stroke-opacity="0.6" stroke-width=".9" stroke-linecap="round"></path><path d="M153 193L153 183.1L158 177L163 183.1L163 193Z" fill="none" stroke="url(#k15w6tlrim)" stroke-width="1.6"></path></g><path d="M153 193L153 183.1L158 177L163 183.1L163 193Z" fill="none" stroke="#07050a" stroke-width="1" stroke-linejoin="round"></path></g></g><circle cx="90" cy="168" r="1.4" fill="#cfefff" opacity=".7"></circle><circle cx="168" cy="164" r="1.1" fill="#cfefff" opacity=".6"></circle></g></svg>