<svg xmlns="http://www.w3.org/2000/svg" viewBox="0 0 200 200"><defs><pattern id="k-noise" width="1" height="1"></pattern></defs><defs><linearGradient id="k019ucyl" x1="0" x2="1" y1="0" y2="0"><stop offset="0" stop-color="#ffcf98" stop-opacity=".42"></stop><stop offset=".16" stop-color="#ffe6c8" stop-opacity=".2"></stop><stop offset=".38" stop-color="#000" stop-opacity="0"></stop><stop offset=".68" stop-color="#000" stop-opacity=".46"></stop><stop offset=".88" stop-color="#000" stop-opacity=".34"></stop><stop offset="1" stop-color="#9cc8ff" stop-opacity=".32"></stop></linearGradient><linearGradient id="k019utop" x1="0" x2="0" y1="0" y2="1"><stop offset="0" stop-color="#fff" stop-opacity=".16"></stop><stop offset=".45" stop-color="#fff" stop-opacity="0"></stop><stop offset="1" stop-color="#000" stop-opacity=".5"></stop></linearGradient><linearGradient id="k019urim" x1="0" x2="1" y1="0" y2="0"><stop offset="0" stop-color="#ffc27a" stop-opacity="1"></stop><stop offset=".22" stop-color="#ff9a40" stop-opacity=".3"></stop><stop offset=".45" stop-color="#ff9a40" stop-opacity="0"></stop><stop offset=".82" stop-color="#8fc8ff" stop-opacity="0"></stop><stop offset="1" stop-color="#a8d8ff" stop-opacity=".7"></stop></linearGradient><linearGradient id="k019ublade" x1="0" x2="1" y1="0" y2="0"><stop offset="0" stop-color="#f4f0ea"></stop><stop offset=".46" stop-color="#9aa2ae"></stop><stop offset=".5" stop-color="#4a505c"></stop><stop offset="1" stop-color="#262a32"></stop></linearGradient><linearGradient id="k019uember" x1="0" x2="0" y1="0" y2="1"><stop offset="0" stop-color="#fff2c8"></stop><stop offset=".45" stop-color="#ffb040"></stop><stop offset="1" stop-color="#ff5a10" stop-opacity=".1"></stop></linearGradient><radialGradient id="k019uball" cx="35%" cy="30%" r="75%"><stop offset="0" stop-color="#fff" stop-opacity=".35"></stop><stop offset=".35" stop-color="#fff" stop-opacity=".04"></stop><stop offset=".7" stop-color="#000" stop-opacity=".3"></stop><stop offset="1" stop-color="#000" stop-opacity=".62"></stop></radialGradient><radialGradient id="k019uao" cx="50%" cy="50%" r="50%"><stop offset="0" stop-color="#000" stop-opacity=".75"></stop><stop offset="1" stop-color="#000" stop-opacity="0"></stop></radialGradient><radialGradient id="k019uglow" cx="50%" cy="50%" r="50%"><stop offset="0" stop-color="#fff" stop-opacity=".9"></stop><stop offset=".3" stop-color="#fff" stop-opacity=".35"></stop><stop offset="1" stop-color="#fff" stop-opacity="0"></stop></radialGradient><pattern id="k019umail" patternUnits="userSpaceOnUse" width="4" height="3.4"><path d="M0 3.2a2 2 0 0 1 4 0" fill="none" stroke="#000" stroke-opacity=".55" stroke-width=".9"></path><path d="M.6 2.4a1.5 1.5 0 0 1 2 -.6" fill="none" stroke="#dfe6f0" stroke-opacity=".35" stroke-width=".6"></path></pattern><pattern id="k019uscale" patternUnits="userSpaceOnUse" width="7" height="5"><path d="M0 5a3.5 3.5 0 0 1 7 0" fill="none" stroke="#000" stroke-opacity=".45" stroke-width="1"></path><path d="M1 3.6a2.6 2.6 0 0 1 3 -1.6" fill="none" stroke="#fff" stroke-opacity=".18" stroke-width=".7"></path></pattern><filter id="k019ub3" x="-50%" y="-50%" width="200%" height="200%"><feGaussianBlur stdDeviation="2.6"></feGaussianBlur></filter><filter id="k019ub1" x="-50%" y="-50%" width="200%" height="200%"><feGaussianBlur stdDeviation="1"></feGaussianBlur></filter><filter id="k019ub8" x="-100%" y="-100%" width="300%" height="300%"><feGaussianBlur stdDeviation="8"></feGaussianBlur></filter></defs><ellipse class="rig-shadow" cx="100" cy="188" rx="70" ry="8" fill="url(#k019uao)" transform="translate(0.00 0)"></ellipse><g data-b="body" transform="matrix(1.0000 0.0000 0.0000 1.0000 0.00 0.00)"><g><clipPath id="cp1saj"><path d="M28 188C22 160 32 124 56 110C68 88 104 80 128 92C156 98 176 128 174 160C173 172 170 182 166 188C158 184 150 190 140 186C130 191 118 185 108 190C96 186 86 191 74 186C62 191 50 185 40 190C34 189 30 189 28 188Z"></path></clipPath><path d="M28 188C22 160 32 124 56 110C68 88 104 80 128 92C156 98 176 128 174 160C173 172 170 182 166 188C158 184 150 190 140 186C130 191 118 185 108 190C96 186 86 191 74 186C62 191 50 185 40 190C34 189 30 189 28 188Z" fill="#2c4624"></path><g clip-path="url(#cp1saj)"><path d="M28 188C22 160 32 124 56 110C68 88 104 80 128 92C156 98 176 128 174 160C173 172 170 182 166 188C158 184 150 190 140 186C130 191 118 185 108 190C96 186 86 191 74 186C62 191 50 185 40 190C34 189 30 189 28 188Z" fill="url(#k019uball)"></path><path d="M28 188C22 160 32 124 56 110C68 88 104 80 128 92C156 98 176 128 174 160C173 172 170 182 166 188C158 184 150 190 140 186C130 191 118 185 108 190C96 186 86 191 74 186C62 191 50 185 40 190C34 189 30 189 28 188Z" fill="url(#k019utop)"></path><path d="M28 188C22 160 32 124 56 110C68 88 104 80 128 92C156 98 176 128 174 160C173 172 170 182 166 188C158 184 150 190 140 186C130 191 118 185 108 190C96 186 86 191 74 186C62 191 50 185 40 190C34 189 30 189 28 188Z" fill="url(#k-noise)" opacity="0.6"></path><path d="M28 188C22 160 32 124 56 110C68 88 104 80 128 92C156 98 176 128 174 160C173 172 170 182 166 188C158 184 150 190 140 186C130 191 118 185 108 190C96 186 86 191 74 186C62 191 50 185 40 190C34 189 30 189 28 188Z" fill="none" stroke="#000" stroke-opacity="0.55" stroke-width="10" filter="url(#k019ub3)"></path><path d="M121.3 157.9q-1.4 -3.4 0.7 -4.7" fill="none" stroke="#7a9a4a" stroke-width="1.8" stroke-linecap="round" opacity=".75"></path><path d="M147.9 166.9q-1.6 -4.1 0.8 -5.7" fill="none" stroke="#7a9a4a" stroke-width="1.3" stroke-linecap="round" opacity=".75"></path><path d="M85.9 145.2q-2.5 -6.2 1.2 -8.7" fill="none" stroke="#4a6a2e" stroke-width="1.5" stroke-linecap="round" opacity=".75"></path><path d="M82.4 144.7q-2.7 -6.7 1.3 -9.3" fill="none" stroke="#7a9a4a" stroke-width="1" stroke-linecap="round" opacity=".75"></path><path d="M87.1 160.3q-1.3 -3.3 0.7 -4.6" fill="none" stroke="#4a6a2e" stroke-width="1.9" stroke-linecap="round" opacity=".75"></path><path d="M141.2 146.7q-1.3 -3.2 0.6 -4.5" fill="none" stroke="#4a6a2e" stroke-width="1.8" stroke-linecap="round" opacity=".75"></path><path d="M73.7 180.6q-1.6 -3.9 0.8 -5.4" fill="none" stroke="#4a6a2e" stroke-width="1.9" stroke-linecap="round" opacity=".75"></path><path d="M142.4 129q-1.5 -3.8 0.8 -5.3" fill="none" stroke="#4a6a2e" stroke-width="1.6" stroke-linecap="round" opacity=".75"></path><path d="M92.2 138.8q-2.4 -6.1 1.2 -8.5" fill="none" stroke="#4a6a2e" stroke-width="1" stroke-linecap="round" opacity=".75"></path><path d="M83.4 163.6q-2.6 -6.5 1.3 -9" fill="none" stroke="#4a6a2e" stroke-width="1.6" stroke-linecap="round" opacity=".75"></path><path d="M139.9 121.3q-1.5 -3.8 0.8 -5.4" fill="none" stroke="#4a6a2e" stroke-width="1.5" stroke-linecap="round" opacity=".75"></path><path d="M79.8 152.6q-2.2 -5.6 1.1 -7.8" fill="none" stroke="#4a6a2e" stroke-width="1.5" stroke-linecap="round" opacity=".75"></path><path d="M136.9 150.2q-1.5 -3.7 0.7 -5.2" fill="none" stroke="#4a6a2e" stroke-width="1.7" stroke-linecap="round" opacity=".75"></path><path d="M82.3 182.7q-1.9 -4.8 1 -6.8" fill="none" stroke="#7a9a4a" stroke-width="1.3" stroke-linecap="round" opacity=".75"></path><path d="M66.9 116.4q-2.6 -6.5 1.3 -9.1" fill="none" stroke="#7a9a4a" stroke-width="1" stroke-linecap="round" opacity=".75"></path><path d="M84.8 144.1q-2 -4.9 1 -6.9" fill="none" stroke="#7a9a4a" stroke-width="1.5" stroke-linecap="round" opacity=".75"></path><path d="M144.5 176.5q-1.7 -4.1 0.8 -5.8" fill="none" stroke="#7a9a4a" stroke-width="1.5" stroke-linecap="round" opacity=".75"></path><path d="M145.3 163q-1.7 -4.2 0.8 -5.9" fill="none" stroke="#7a9a4a" stroke-width="1.7" stroke-linecap="round" opacity=".75"></path><path d="M97 125.8q-2.5 -6.1 1.2 -8.6" fill="none" stroke="#7a9a4a" stroke-width="1.1" stroke-linecap="round" opacity=".75"></path><path d="M137.6 142.2q-1.6 -3.9 0.8 -5.5" fill="none" stroke="#4a6a2e" stroke-width="1.4" stroke-linecap="round" opacity=".75"></path><path d="M116.1 179.4q-1.4 -3.5 0.7 -4.8" fill="none" stroke="#7a9a4a" stroke-width="1.9" stroke-linecap="round" opacity=".75"></path><path d="M92.6 140.3q-2 -5.1 1 -7.1" fill="none" stroke="#7a9a4a" stroke-width="1.8" stroke-linecap="round" opacity=".75"></path><path d="M92.8 154.9q-2.2 -5.4 1.1 -7.6" fill="none" stroke="#4a6a2e" stroke-width="1.1" stroke-linecap="round" opacity=".75"></path><path d="M78.9 139.2q-2 -5.1 1 -7.1" fill="none" stroke="#7a9a4a" stroke-width="1.6" stroke-linecap="round" opacity=".75"></path><path d="M126.8 146.3q-2.5 -6.2 1.2 -8.7" fill="none" stroke="#7a9a4a" stroke-width="1.7" stroke-linecap="round" opacity=".75"></path><path d="M61.8 139.5q-1.4 -3.4 0.7 -4.8" fill="none" stroke="#7a9a4a" stroke-width="1.6" stroke-linecap="round" opacity=".75"></path><path d="M105 144.5q-1.3 -3.4 0.7 -4.7" fill="none" stroke="#7a9a4a" stroke-width="1.1" stroke-linecap="round" opacity=".75"></path><path d="M139.8 123.7q-1.4 -3.5 0.7 -4.9" fill="none" stroke="#7a9a4a" stroke-width="1.8" stroke-linecap="round" opacity=".75"></path><path d="M126.7 154.1q-3.2 -8 1.6 -11.1" fill="none" stroke="#4a6a2e" stroke-width="1.5" stroke-linecap="round" opacity=".75"></path><path d="M58.5 156.2q-2.4 -6 1.2 -8.4" fill="none" stroke="#4a6a2e" stroke-width="1.8" stroke-linecap="round" opacity=".75"></path><path d="M83.3 180.1q-2.3 -5.7 1.1 -7.9" fill="none" stroke="#4a6a2e" stroke-width="1.4" stroke-linecap="round" opacity=".75"></path><path d="M76.5 182.1q-1.5 -3.8 0.8 -5.3" fill="none" stroke="#4a6a2e" stroke-width="1.3" stroke-linecap="round" opacity=".75"></path><path d="M88.7 158.5q-2.5 -6.2 1.2 -8.7" fill="none" stroke="#4a6a2e" stroke-width="1.2" stroke-linecap="round" opacity=".75"></path><path d="M75 130q-2.6 -6.6 1.3 -9.2" fill="none" stroke="#4a6a2e" stroke-width="1.7" stroke-linecap="round" opacity=".75"></path><path d="M78.2 167q-1.3 -3.1 0.6 -4.4" fill="none" stroke="#7a9a4a" stroke-width="1.6" stroke-linecap="round" opacity=".75"></path><path d="M101.9 126.4q-3 -7.6 1.5 -10.6" fill="none" stroke="#7a9a4a" stroke-width="1.4" stroke-linecap="round" opacity=".75"></path><path d="M128.3 126.9q-1.4 -3.6 0.7 -5" fill="none" stroke="#7a9a4a" stroke-width="1.9" stroke-linecap="round" opacity=".75"></path><path d="M73.6 177.1q-3 -7.5 1.5 -10.5" fill="none" stroke="#7a9a4a" stroke-width="1.4" stroke-linecap="round" opacity=".75"></path><path d="M52.4 179.6q-3.1 -7.7 1.5 -10.8" fill="none" stroke="#7a9a4a" stroke-width="1.4" stroke-linecap="round" opacity=".75"></path><path d="M122.3 155.2q-2.5 -6.3 1.3 -8.8" fill="none" stroke="#4a6a2e" stroke-width="1.5" stroke-linecap="round" opacity=".75"></path><path d="M93.7 118q-1.8 -4.4 0.9 -6.2" fill="none" stroke="#7a9a4a" stroke-width="1.6" stroke-linecap="round" opacity=".75"></path><path d="M140.7 122.6q-2.3 -5.8 1.2 -8.1" fill="none" stroke="#7a9a4a" stroke-width="1.2" stroke-linecap="round" opacity=".75"></path><path d="M116.3 168.9q-2.6 -6.4 1.3 -9" fill="none" stroke="#7a9a4a" stroke-width="1.1" stroke-linecap="round" opacity=".75"></path><path d="M75.7 146.5q-1.7 -4.3 0.9 -6" fill="none" stroke="#4a6a2e" stroke-width="1.5" stroke-linecap="round" opacity=".75"></path><path d="M113.6 133.6q-1.4 -3.5 0.7 -4.8" fill="none" stroke="#4a6a2e" stroke-width="2" stroke-linecap="round" opacity=".75"></path><path d="M127.2 178.7q-2.3 -5.8 1.2 -8.2" fill="none" stroke="#7a9a4a" stroke-width="1.8" stroke-linecap="round" opacity=".75"></path><path d="M40 150C60 136 84 132 104 136" fill="none" stroke="#000" stroke-opacity=".35" stroke-width="5" filter="url(#k019ub3)"></path><path d="M28 188C22 160 32 124 56 110C68 88 104 80 128 92C156 98 176 128 174 160C173 172 170 182 166 188C158 184 150 190 140 186C130 191 118 185 108 190C96 186 86 191 74 186C62 191 50 185 40 190C34 189 30 189 28 188Z" fill="none" stroke="url(#k019urim)" stroke-width="3.2"></path></g><path d="M28 188C22 160 32 124 56 110C68 88 104 80 128 92C156 98 176 128 174 160C173 172 170 182 166 188C158 184 150 190 140 186C130 191 118 185 108 190C96 186 86 191 74 186C62 191 50 185 40 190C34 189 30 189 28 188Z" fill="none" stroke="#07050a" stroke-width="1.3" stroke-linejoin="round"></path></g><g><clipPath id="cp2ius"><path d="M34 186C30 166 42 152 60 156C74 160 76 178 66 188Z"></path></clipPath><path d="M34 186C30 166 42 152 60 156C74 160 76 178 66 188Z" fill="#45463f"></path><g clip-path="url(#cp2ius)"><path d="M34 186C30 166 42 152 60 156C74 160 76 178 66 188Z" fill="url(#k019uball)"></path><path d="M34 186C30 166 42 152 60 156C74 160 76 178 66 188Z" fill="url(#k019utop)"></path><path d="M34 186C30 166 42 152 60 156C74 160 76 178 66 188Z" fill="url(#k-noise)" opacity="0.8"></path><path d="M34 186C30 166 42 152 60 156C74 160 76 178 66 188Z" fill="none" stroke="#000" stroke-opacity="0.55" stroke-width="6" filter="url(#k019ub3)"></path><path d="M40 168C42 162 46 159 52 158" fill="none" stroke="#ffe8cc" stroke-opacity="0.32" stroke-width="4.2" stroke-linecap="round" filter="url(#k019ub1)"></path><path d="M40 168C42 162 46 159 52 158" fill="none" stroke="#fff6ea" stroke-opacity="0.6" stroke-width=".9" stroke-linecap="round"></path><path d="M34 186C30 166 42 152 60 156C74 160 76 178 66 188Z" fill="none" stroke="url(#k019urim)" stroke-width="3.2"></path></g><path d="M34 186C30 166 42 152 60 156C74 160 76 178 66 188Z" fill="none" stroke="#07050a" stroke-width="1.3" stroke-linejoin="round"></path></g><g><clipPath id="cp3v9t"><path d="M150 188C148 176 156 168 166 170C174 174 174 184 170 188Z"></path></clipPath><path d="M150 188C148 176 156 168 166 170C174 174 174 184 170 188Z" fill="#3e3f3a"></path><g clip-path="url(#cp3v9t)"><path d="M150 188C148 176 156 168 166 170C174 174 174 184 170 188Z" fill="url(#k019uball)"></path><path d="M150 188C148 176 156 168 166 170C174 174 174 184 170 188Z" fill="url(#k019utop)"></path><path d="M150 188C148 176 156 168 166 170C174 174 174 184 170 188Z" fill="url(#k-noise)" opacity="0.8"></path><path d="M150 188C148 176 156 168 166 170C174 174 174 184 170 188Z" fill="none" stroke="#000" stroke-opacity="0.55" stroke-width="6" filter="url(#k019ub3)"></path><path d="M150 188C148 176 156 168 166 170C174 174 174 184 170 188Z" fill="none" stroke="url(#k019urim)" stroke-width="3.2"></path></g><path d="M150 188C148 176 156 168 166 170C174 174 174 184 170 188Z" fill="none" stroke="#07050a" stroke-width="1.3" stroke-linejoin="round"></path></g><path d="M58 182q-3 8 2 14" fill="none" stroke="#07050a" stroke-width="3.4" stroke-linecap="round"></path><path d="M58 182q-3 8 2 14" fill="none" stroke="#5a4630" stroke-width="1.6" stroke-linecap="round"></path><path d="M96 186q4 7 0 12" fill="none" stroke="#07050a" stroke-width="3.4" stroke-linecap="round"></path><path d="M96 186q4 7 0 12" fill="none" stroke="#5a4630" stroke-width="1.6" stroke-linecap="round"></path><path d="M128 184q-2 8 3 12" fill="none" stroke="#07050a" stroke-width="3.4" stroke-linecap="round"></path><path d="M128 184q-2 8 3 12" fill="none" stroke="#5a4630" stroke-width="1.6" stroke-linecap="round"></path><circle cx="96" cy="199" r="1.6" fill="#bff4ff" opacity=".8"></circle></g><g data-b="ex2" transform="matrix(1.0000 0.0000 0.0000 1.0000 0.00 0.00)"><path d="M142 112C144 100 150 92 158 92C164 92 166 98 162 101C158 104 154 100 157 97" fill="none" stroke="#07050a" stroke-width="4" stroke-linecap="round"></path><path d="M142 112C144 100 150 92 158 92C164 92 166 98 162 101C158 104 154 100 157 97" fill="none" stroke="#6a9a3e" stroke-width="2.2" stroke-linecap="round"></path></g><g data-b="ex1" transform="matrix(1.0000 0.0000 0.0000 1.0000 0.00 0.00)"><g><clipPath id="cp8qcr"><path d="M102 98L104 80L110 80L111 98Z"></path></clipPath><path d="M102 98L104 80L110 80L111 98Z" fill="#d8ccb0"></path><g clip-path="url(#cp8qcr)"><path d="M102 98L104 80L110 80L111 98Z" fill="url(#k019ucyl)" opacity="1"></path><path d="M102 98L104 80L110 80L111 98Z" fill="url(#k019utop)"></path><path d="M102 98L104 80L110 80L111 98Z" fill="url(#k-noise)" opacity="0.3"></path><path d="M102 98L104 80L110 80L111 98Z" fill="none" stroke="#000" stroke-opacity="0.55" stroke-width="3" filter="url(#k019ub3)"></path><path d="M102 98L104 80L110 80L111 98Z" fill="none" stroke="url(#k019urim)" stroke-width="3.2"></path></g><path d="M102 98L104 80L110 80L111 98Z" fill="none" stroke="#07050a" stroke-width="1.1" stroke-linejoin="round"></path></g><g><clipPath id="cp9llj"><path d="M93 84C96 69 118 66 125 81C114 86 102 86 93 84Z"></path></clipPath><path d="M93 84C96 69 118 66 125 81C114 86 102 86 93 84Z" fill="#7a2e20"></path><g clip-path="url(#cp9llj)"><path d="M93 84C96 69 118 66 125 81C114 86 102 86 93 84Z" fill="url(#k019uball)"></path><path d="M93 84C96 69 118 66 125 81C114 86 102 86 93 84Z" fill="url(#k019utop)"></path><path d="M93 84C96 69 118 66 125 81C114 86 102 86 93 84Z" fill="url(#k-noise)" opacity="0.3"></path><path d="M93 84C96 69 118 66 125 81C114 86 102 86 93 84Z" fill="none" stroke="#000" stroke-opacity="0.55" stroke-width="6" filter="url(#k019ub3)"></path><circle cx="103" cy="76" r="2" fill="#f0e2c4" opacity=".9"></circle><circle cx="113" cy="74" r="1.6" fill="#f0e2c4" opacity=".9"></circle><circle cx="118" cy="79" r="1.4" fill="#f0e2c4" opacity=".9"></circle><path d="M99 77C102 73 107 71 112 71" fill="none" stroke="#ffe8cc" stroke-opacity="0.32" stroke-width="4.2" stroke-linecap="round" filter="url(#k019ub1)"></path><path d="M99 77C102 73 107 71 112 71" fill="none" stroke="#fff6ea" stroke-opacity="0.6" stroke-width=".9" stroke-linecap="round"></path><path d="M93 84C96 69 118 66 125 81C114 86 102 86 93 84Z" fill="none" stroke="url(#k019urim)" stroke-width="3.2"></path></g><path d="M93 84C96 69 118 66 125 81C114 86 102 86 93 84Z" fill="none" stroke="#07050a" stroke-width="1.3" stroke-linejoin="round"></path></g></g><g data-b="head" transform="matrix(1.0000 0.0000 0.0000 1.0000 0.00 0.00)"><path d="M58 124C72 138 110 138 124 124L126 146C108 154 74 154 56 146Z" fill="#000" opacity=".45" filter="url(#k019ub3)"></path><circle cx="76" cy="138" r="15.6" fill="#e7f28a" opacity="0.4" filter="url(#k019ub3)"></circle><g class="rblink" style="animation-delay:1.99s;animation-duration:5.50s"><ellipse cx="76" cy="138" rx="6" ry="3.3" fill="#e7f28a" stroke="#07050a" stroke-width="1.1"></ellipse><ellipse cx="76" cy="138" rx="1.3" ry="2.6" fill="#120806"></ellipse><circle cx="74.1" cy="136.9" r="1.6" fill="#fff" opacity=".9"></circle></g><circle cx="103" cy="136" r="13" fill="#e7f28a" opacity="0.4" filter="url(#k019ub3)"></circle><g class="rblink" style="animation-delay:1.23s;animation-duration:6.89s"><ellipse cx="103" cy="136" rx="5" ry="2.8" fill="#e7f28a" stroke="#07050a" stroke-width="1.1"></ellipse><ellipse cx="103" cy="136" rx="1.1" ry="2.2" fill="#120806"></ellipse><circle cx="101.4" cy="135.1" r="1.3" fill="#fff" opacity=".9"></circle></g><g><clipPath id="cp4lpm"><path d="M56 124C66 122 78 126 90 133C82 131 70 130 58 132Z"></path></clipPath><path d="M56 124C66 122 78 126 90 133C82 131 70 130 58 132Z" fill="#3d5e2c"></path><g clip-path="url(#cp4lpm)"><path d="M56 124C66 122 78 126 90 133C82 131 70 130 58 132Z" fill="url(#k019ucyl)" opacity="1"></path><path d="M56 124C66 122 78 126 90 133C82 131 70 130 58 132Z" fill="url(#k019utop)"></path><path d="M56 124C66 122 78 126 90 133C82 131 70 130 58 132Z" fill="url(#k-noise)" opacity="0.6"></path><path d="M56 124C66 122 78 126 90 133C82 131 70 130 58 132Z" fill="none" stroke="#000" stroke-opacity="0.55" stroke-width="3" filter="url(#k019ub3)"></path><path d="M56 124C66 122 78 126 90 133C82 131 70 130 58 132Z" fill="none" stroke="url(#k019urim)" stroke-width="2"></path></g><path d="M56 124C66 122 78 126 90 133C82 131 70 130 58 132Z" fill="none" stroke="#07050a" stroke-width="1.2" stroke-linejoin="round"></path></g><g><clipPath id="cp51r0"><path d="M94 132C102 125 112 121 124 121C118 125 110 129 98 135Z"></path></clipPath><path d="M94 132C102 125 112 121 124 121C118 125 110 129 98 135Z" fill="#3d5e2c"></path><g clip-path="url(#cp51r0)"><path d="M94 132C102 125 112 121 124 121C118 125 110 129 98 135Z" fill="url(#k019ucyl)" opacity="1"></path><path d="M94 132C102 125 112 121 124 121C118 125 110 129 98 135Z" fill="url(#k019utop)"></path><path d="M94 132C102 125 112 121 124 121C118 125 110 129 98 135Z" fill="url(#k-noise)" opacity="0.6"></path><path d="M94 132C102 125 112 121 124 121C118 125 110 129 98 135Z" fill="none" stroke="#000" stroke-opacity="0.55" stroke-width="3" filter="url(#k019ub3)"></path><path d="M94 132C102 125 112 121 124 121C118 125 110 129 98 135Z" fill="none" stroke="url(#k019urim)" stroke-width="2"></path></g><path d="M94 132C102 125 112 121 124 121C118 125 110 129 98 135Z" fill="none" stroke="#07050a" stroke-width="1.2" stroke-linejoin="round"></path></g><circle cx="88" cy="138" r="20" fill="#d8ff6a" opacity="0.16" filter="url(#k019ub8)"></circle><path d="M56 154C66 150 76 151 86 156C96 151 110 148 128 152" fill="none" stroke="#07050a" stroke-width="2.4"></path><path d="M63.6 151L66.6 158L68.4 151Z" fill="#c9bf98" stroke="#07050a" stroke-width=".9"></path><path d="M73.6 152L76.6 161L78.4 152Z" fill="#c9bf98" stroke="#07050a" stroke-width=".9"></path><path d="M85.6 155L88.6 161L90.4 155Z" fill="#c9bf98" stroke="#07050a" stroke-width=".9"></path><path d="M96.6 152L99.6 162L101.4 152Z" fill="#c9bf98" stroke="#07050a" stroke-width=".9"></path><path d="M109.6 150L112.6 157L114.4 150Z" fill="#c9bf98" stroke="#07050a" stroke-width=".9"></path><path d="M118.6 151L121.6 156L123.4 151Z" fill="#c9bf98" stroke="#07050a" stroke-width=".9"></path></g><g data-b="jaw" transform="matrix(0.9997 -0.0262 0.0262 0.9997 -3.95 2.46)"><g><clipPath id="cp6aq1"><path d="M56 154C66 152 76 154 86 157C98 153 112 151 128 153C124 168 110 176 90 176C72 175 60 166 56 154Z"></path></clipPath><path d="M56 154C66 152 76 154 86 157C98 153 112 151 128 153C124 168 110 176 90 176C72 175 60 166 56 154Z" fill="#0a1306"></path><g clip-path="url(#cp6aq1)"><path d="M65.8 168L68 162L70.2 168Z" fill="#b8ae88" stroke="#07050a" stroke-width=".8"></path><path d="M79.8 172L82 164L84.2 172Z" fill="#b8ae88" stroke="#07050a" stroke-width=".8"></path><path d="M93.8 172L96 166L98.2 172Z" fill="#b8ae88" stroke="#07050a" stroke-width=".8"></path><path d="M107.8 168L110 161L112.2 168Z" fill="#b8ae88" stroke="#07050a" stroke-width=".8"></path><ellipse cx="90" cy="166" rx="18" ry="5" fill="#a8d84a" opacity=".18" filter="url(#k019ub3)"></ellipse></g><path d="M56 154C66 152 76 154 86 157C98 153 112 151 128 153C124 168 110 176 90 176C72 175 60 166 56 154Z" fill="none" stroke="#07050a" stroke-width="1.3" stroke-linejoin="round"></path></g><g><clipPath id="cp7w0l"><path d="M54 160C64 172 80 180 96 180C112 180 124 172 130 158C132 172 120 186 96 188C74 188 58 176 54 160Z"></path></clipPath><path d="M54 160C64 172 80 180 96 180C112 180 124 172 130 158C132 172 120 186 96 188C74 188 58 176 54 160Z" fill="#2f4a26"></path><g clip-path="url(#cp7w0l)"><path d="M54 160C64 172 80 180 96 180C112 180 124 172 130 158C132 172 120 186 96 188C74 188 58 176 54 160Z" fill="url(#k019uball)"></path><path d="M54 160C64 172 80 180 96 180C112 180 124 172 130 158C132 172 120 186 96 188C74 188 58 176 54 160Z" fill="url(#k019utop)"></path><path d="M54 160C64 172 80 180 96 180C112 180 124 172 130 158C132 172 120 186 96 188C74 188 58 176 54 160Z" fill="url(#k-noise)" opacity="0.6"></path><path d="M54 160C64 172 80 180 96 180C112 180 124 172 130 158C132 172 120 186 96 188C74 188 58 176 54 160Z" fill="none" stroke="#000" stroke-opacity="0.55" stroke-width="4" filter="url(#k019ub3)"></path><path d="M54 160C64 172 80 180 96 180C112 180 124 172 130 158C132 172 120 186 96 188C74 188 58 176 54 160Z" fill="none" stroke="url(#k019urim)" stroke-width="2.4"></path></g><path d="M54 160C64 172 80 180 96 180C112 180 124 172 130 158C132 172 120 186 96 188C74 188 58 176 54 160Z" fill="none" stroke="#07050a" stroke-width="1.3" stroke-linejoin="round"></path></g></g></svg>