<svg xmlns="http://www.w3.org/2000/svg" viewBox="0 0 120 72"><defs><filter id="k-blur2" x="-80%" y="-80%" width="260%" height="260%"><feGaussianBlur stdDeviation="9"></feGaussianBlur></filter><radialGradient id="k-shade" cx="30%" cy="22%" r="95%"><stop offset="0" stop-color="#fff" stop-opacity=".34"></stop><stop offset=".3" stop-color="#fff" stop-opacity=".04"></stop><stop offset=".62" stop-color="#000" stop-opacity=".22"></stop><stop offset="1" stop-color="#000" stop-opacity=".62"></stop></radialGradient><pattern id="k-noise" width="1" height="1"></pattern><linearGradient id="k-rim" x1="0" x2="1" y1="0" y2="0"><stop offset="0" stop-color="#ffc98a" stop-opacity=".95"></stop><stop offset=".2" stop-color="#ffb060" stop-opacity=".25"></stop><stop offset=".45" stop-color="#ffb060" stop-opacity="0"></stop><stop offset=".85" stop-color="#8fd8ff" stop-opacity="0"></stop><stop offset="1" stop-color="#8fd8ff" stop-opacity=".45"></stop></linearGradient><filter id="k-blur" x="-80%" y="-80%" width="260%" height="260%"><feGaussianBlur stdDeviation="4"></feGaussianBlur></filter></defs><defs><linearGradient id="cg9o" x1="0" y1="0" x2="0" y2="1"><stop offset="0" stop-color="#020a0c"/><stop offset="1" stop-color="#02080c"/></linearGradient></defs><rect width="120" height="72" fill="url(#cg9o)"/><path d="M12 -4L22 76" fill="none" stroke="#5fe0cc" stroke-width="6" stroke-linecap="round" stroke-linejoin="round" opacity="0.05"/><path d="M34 -4L46 76" fill="none" stroke="#5fe0cc" stroke-width="10" stroke-linecap="round" stroke-linejoin="round" opacity="0.05"/><path d="M58 -4L72 76" fill="none" stroke="#5fe0cc" stroke-width="6" stroke-linecap="round" stroke-linejoin="round" opacity="0.05"/><path d="M80 -4L96 76" fill="none" stroke="#5fe0cc" stroke-width="10" stroke-linecap="round" stroke-linejoin="round" opacity="0.05"/><path d="M102 -4L120 76" fill="none" stroke="#5fe0cc" stroke-width="6" stroke-linecap="round" stroke-linejoin="round" opacity="0.05"/><circle cx="0" cy="58.9" r="0.9" fill="none" stroke="#d4fff8" stroke-width=".5" opacity=".3"/><circle cx="25.3" cy="46.7" r="1.2" fill="none" stroke="#d4fff8" stroke-width=".5" opacity=".3"/><circle cx="39.5" cy="48.1" r="1.5" fill="none" stroke="#d4fff8" stroke-width=".5" opacity=".3"/><circle cx="65.1" cy="43.8" r="1.4" fill="none" stroke="#d4fff8" stroke-width=".5" opacity=".3"/><circle cx="98" cy="15.5" r="1" fill="none" stroke="#d4fff8" stroke-width=".5" opacity=".3"/><circle cx="84.9" cy="44.7" r="0.7" fill="none" stroke="#d4fff8" stroke-width=".5" opacity=".3"/><circle cx="82.1" cy="29.9" r="1.7" fill="none" stroke="#d4fff8" stroke-width=".5" opacity=".3"/><circle cx="96.9" cy="7.9" r="1.2" fill="none" stroke="#d4fff8" stroke-width=".5" opacity=".3"/><circle cx="110.8" cy="44.1" r="1.4" fill="none" stroke="#d4fff8" stroke-width=".5" opacity=".3"/><ellipse cx="6" cy="72" rx="56" ry="46" fill="#ffb060" opacity="0.08" filter="url(#k-blur2)"/><ellipse cx="120" cy="10" rx="40" ry="40" fill="#5fe0cc" opacity=".12" filter="url(#k-blur2)"/><circle cx="60" cy="30" r="22" fill="#8ac05a" opacity="0.35" filter="url(#k-blur2)"/><g><clipPath id="c9p"><path d="M44 30Q44 14 60 14Q76 14 76 30Q70 34 60 32Q50 34 44 30Z"/></clipPath><path d="M44 30Q44 14 60 14Q76 14 76 30Q70 34 60 32Q50 34 44 30Z" fill="#2a4a1a"/><path d="M44 30Q44 14 60 14Q76 14 76 30Q70 34 60 32Q50 34 44 30Z" fill="url(#k-shade)"/><path d="M44 30Q44 14 60 14Q76 14 76 30Q70 34 60 32Q50 34 44 30Z" fill="url(#k-noise)" opacity="0.2"/><path d="M44 30Q44 14 60 14Q76 14 76 30Q70 34 60 32Q50 34 44 30Z" fill="none" stroke="url(#k-rim)" stroke-width="2" clip-path="url(#c9p)"/><path d="M44 30Q44 14 60 14Q76 14 76 30Q70 34 60 32Q50 34 44 30Z" fill="none" stroke="#0b0709" stroke-width="1" stroke-linejoin="round" stroke-linecap="round"/></g><path d="M44 30Q44 14 60 14Q76 14 76 30" fill="none" stroke="#d8ff9a" stroke-width="0.8" stroke-linecap="round" stroke-linejoin="round"/><path d="M52 20Q60 16 68 20" fill="none" stroke="#d8ff9a" stroke-width="0.6" stroke-linecap="round" stroke-linejoin="round" opacity="0.6"/><path d="M46 31Q42 44 46 52Q49 60 47 66" fill="none" stroke="#d8ff9a" stroke-width="0.8" stroke-linecap="round" stroke-linejoin="round" opacity="0.85"/><path d="M52 31Q56 44 52 56Q49 60 53 66" fill="none" stroke="#8ac05a" stroke-width="0.8" stroke-linecap="round" stroke-linejoin="round" opacity="0.85"/><path d="M58 31Q54 44 58 60Q61 60 59 66" fill="none" stroke="#d8ff9a" stroke-width="0.8" stroke-linecap="round" stroke-linejoin="round" opacity="0.85"/><path d="M64 31Q68 44 64 52Q61 60 65 66" fill="none" stroke="#8ac05a" stroke-width="0.8" stroke-linecap="round" stroke-linejoin="round" opacity="0.85"/><path d="M70 31Q66 44 70 56Q73 60 71 66" fill="none" stroke="#d8ff9a" stroke-width="0.8" stroke-linecap="round" stroke-linejoin="round" opacity="0.85"/><path d="M74 31Q78 44 74 60Q71 60 75 66" fill="none" stroke="#8ac05a" stroke-width="0.8" stroke-linecap="round" stroke-linejoin="round" opacity="0.85"/><path d="M48 58c-1.4 2 -1.4 3.4 0 4c1.4 -.6 1.4 -2 0 -4z" fill="#d8ff9a"/><circle cx="48" cy="60" r="2.4" fill="#d8ff9a" opacity="0.8" filter="url(#k-blur)"/><path d="M62 62c-1.4 2 -1.4 3.4 0 4c1.4 -.6 1.4 -2 0 -4z" fill="#d8ff9a"/><circle cx="62" cy="64" r="2.4" fill="#d8ff9a" opacity="0.8" filter="url(#k-blur)"/><path d="M72 56c-1.4 2 -1.4 3.4 0 4c1.4 -.6 1.4 -2 0 -4z" fill="#d8ff9a"/><circle cx="72" cy="58" r="2.4" fill="#d8ff9a" opacity="0.8" filter="url(#k-blur)"/><circle cx="60" cy="24" r="6" fill="#d8ff9a" opacity="0.5" filter="url(#k-blur)"/><circle cx="10.3" cy="10.4" r="0.6" fill="#8ac05a" opacity="0.5"/><circle cx="105" cy="40.3" r="1.1" fill="#8ac05a" opacity="0.6"/><circle cx="67" cy="20.8" r="0.5" fill="#8ac05a" opacity="0.4"/><circle cx="55.6" cy="23.3" r="0.9" fill="#8ac05a" opacity="0.7"/><circle cx="107.7" cy="31.3" r="0.5" fill="#8ac05a" opacity="0.6"/><circle cx="21.1" cy="56.8" r="1.1" fill="#8ac05a" opacity="0.5"/><circle cx="26" cy="30.3" r="0.9" fill="#8ac05a" opacity="0.6"/><circle cx="55.6" cy="22.2" r="0.8" fill="#8ac05a" opacity="0.4"/><circle cx="84.2" cy="60.3" r="1" fill="#8ac05a" opacity="0.8"/><circle cx="109.4" cy="41.2" r="0.4" fill="#8ac05a" opacity="0.4"/><circle cx="104.4" cy="26.5" r="1" fill="#8ac05a" opacity="0.5"/><circle cx="42" cy="12.9" r="0.9" fill="#8ac05a" opacity="0.4"/><rect width="120" height="72" fill="url(#cg9q)"/><rect width="120" height="72" fill="url(#k-noise)" opacity=".32"/></svg>