<svg xmlns="http://www.w3.org/2000/svg" viewBox="0 0 120 72"><defs><filter id="k-blur2" x="-80%" y="-80%" width="260%" height="260%"><feGaussianBlur stdDeviation="9"></feGaussianBlur></filter><radialGradient id="k-shade" cx="30%" cy="22%" r="95%"><stop offset="0" stop-color="#fff" stop-opacity=".34"></stop><stop offset=".3" stop-color="#fff" stop-opacity=".04"></stop><stop offset=".62" stop-color="#000" stop-opacity=".22"></stop><stop offset="1" stop-color="#000" stop-opacity=".62"></stop></radialGradient><pattern id="k-noise" width="1" height="1"></pattern><linearGradient id="k-rim" x1="0" x2="1" y1="0" y2="0"><stop offset="0" stop-color="#ffc98a" stop-opacity=".95"></stop><stop offset=".2" stop-color="#ffb060" stop-opacity=".25"></stop><stop offset=".45" stop-color="#ffb060" stop-opacity="0"></stop><stop offset=".85" stop-color="#8fd8ff" stop-opacity="0"></stop><stop offset="1" stop-color="#8fd8ff" stop-opacity=".45"></stop></linearGradient><filter id="k-blur" x="-80%" y="-80%" width="260%" height="260%"><feGaussianBlur stdDeviation="4"></feGaussianBlur></filter><linearGradient id="k-metal" x1="0" x2="1" y1="0" y2="1"><stop offset="0" stop-color="#fff" stop-opacity=".55"></stop><stop offset=".35" stop-color="#fff" stop-opacity="0"></stop><stop offset=".55" stop-color="#000" stop-opacity=".1"></stop><stop offset=".7" stop-color="#fff" stop-opacity=".25"></stop><stop offset="1" stop-color="#000" stop-opacity=".45"></stop></linearGradient></defs><defs><linearGradient id="cg1i" x1="0" y1="0" x2="0" y2="1"><stop offset="0" stop-color="#2b150b"/><stop offset="1" stop-color="#0b0605"/></linearGradient></defs><rect width="120" height="72" fill="url(#cg1i)"/><path d="M0 4H120M0 4v12M20 4v12M40 4v12M60 4v12M80 4v12M100 4v12M120 4v12M0 16H120M10 16v12M30 16v12M50 16v12M70 16v12M90 16v12M110 16v12M130 16v12M0 28H120M0 28v12M20 28v12M40 28v12M60 28v12M80 28v12M100 28v12M120 28v12M0 40H120M10 40v12M30 40v12M50 40v12M70 40v12M90 40v12M110 40v12M130 40v12M0 52H120M0 52v12M20 52v12M40 52v12M60 52v12M80 52v12M100 52v12M120 52v12" fill="none" stroke="#000" stroke-width="0.8" stroke-linecap="round" stroke-linejoin="round" opacity="0.35"/><path d="M0 4H120M0 4v12M20 4v12M40 4v12M60 4v12M80 4v12M100 4v12M120 4v12M0 16H120M10 16v12M30 16v12M50 16v12M70 16v12M90 16v12M110 16v12M130 16v12M0 28H120M0 28v12M20 28v12M40 28v12M60 28v12M80 28v12M100 28v12M120 28v12M0 40H120M10 40v12M30 40v12M50 40v12M70 40v12M90 40v12M110 40v12M130 40v12M0 52H120M0 52v12M20 52v12M40 52v12M60 52v12M80 52v12M100 52v12M120 52v12" fill="none" stroke="#ffb45a" stroke-width="0.4" stroke-linecap="round" stroke-linejoin="round" opacity="0.06" transform="translate(0.6 0.6)"/><ellipse cx="6" cy="72" rx="56" ry="46" fill="#ff8a3a" opacity="0.22" filter="url(#k-blur2)"/><ellipse cx="120" cy="10" rx="40" ry="40" fill="#6a9ed0" opacity=".12" filter="url(#k-blur2)"/><g transform="translate(106 64) scale(0.9329999999999999)"><path d="M-7 -23l1 -5l3 4M0 -26l2 -5l2 5M7 -25l3 -4l1 4M13 -26l3 -3l0 5" fill="#1a1216" stroke="#0b0709" stroke-width="0.8" stroke-linecap="round" stroke-linejoin="round"/><g><clipPath id="c1j"><path d="M-28 -8L-23 -13L-18 -15L-14 -19L-7 -23L0 -26L7 -25L13 -26L18 -21L22 -14L22 -8L19 -4L19 0H15L14 -6L10 -8L7 0H3L3 -9L-5 -10L-7 0H-11L-11 -8L-16 -7L-21 -5L-26 -5Z"/></clipPath><path d="M-28 -8L-23 -13L-18 -15L-14 -19L-7 -23L0 -26L7 -25L13 -26L18 -21L22 -14L22 -8L19 -4L19 0H15L14 -6L10 -8L7 0H3L3 -9L-5 -10L-7 0H-11L-11 -8L-16 -7L-21 -5L-26 -5Z" fill="#1a1216"/><path d="M-28 -8L-23 -13L-18 -15L-14 -19L-7 -23L0 -26L7 -25L13 -26L18 -21L22 -14L22 -8L19 -4L19 0H15L14 -6L10 -8L7 0H3L3 -9L-5 -10L-7 0H-11L-11 -8L-16 -7L-21 -5L-26 -5Z" fill="url(#k-shade)"/><path d="M-28 -8L-23 -13L-18 -15L-14 -19L-7 -23L0 -26L7 -25L13 -26L18 -21L22 -14L22 -8L19 -4L19 0H15L14 -6L10 -8L7 0H3L3 -9L-5 -10L-7 0H-11L-11 -8L-16 -7L-21 -5L-26 -5Z" fill="url(#k-noise)" opacity="0.45"/><path d="M-28 -8L-23 -13L-18 -15L-14 -19L-7 -23L0 -26L7 -25L13 -26L18 -21L22 -14L22 -8L19 -4L19 0H15L14 -6L10 -8L7 0H3L3 -9L-5 -10L-7 0H-11L-11 -8L-16 -7L-21 -5L-26 -5Z" fill="none" stroke="url(#k-rim)" stroke-width="4" clip-path="url(#c1j)"/><path d="M-28 -8L-23 -13L-18 -15L-14 -19L-7 -23L0 -26L7 -25L13 -26L18 -21L22 -14L22 -8L19 -4L19 0H15L14 -6L10 -8L7 0H3L3 -9L-5 -10L-7 0H-11L-11 -8L-16 -7L-21 -5L-26 -5Z" fill="none" stroke="#0b0709" stroke-width="1.1" stroke-linejoin="round" stroke-linecap="round"/></g><g><clipPath id="c1k"><path d="M-15 -16Q-12 -25 -2 -28Q-8 -23 -11 -15Z"/></clipPath><path d="M-15 -16Q-12 -25 -2 -28Q-8 -23 -11 -15Z" fill="#4a3e36"/><path d="M-15 -16Q-12 -25 -2 -28Q-8 -23 -11 -15Z" fill="url(#k-shade)"/><path d="M-15 -16Q-12 -25 -2 -28Q-8 -23 -11 -15Z" fill="url(#k-noise)" opacity="0.35"/><path d="M-15 -16Q-12 -25 -2 -28Q-8 -23 -11 -15Z" fill="none" stroke="url(#k-rim)" stroke-width="1.4" clip-path="url(#c1k)"/><path d="M-15 -16Q-12 -25 -2 -28Q-8 -23 -11 -15Z" fill="none" stroke="#0b0709" stroke-width="0.8" stroke-linejoin="round" stroke-linecap="round"/></g><path d="M-27 -7L-25 -5L-24 -7L-22 -5L-21 -7" fill="none" stroke="#d8ccb4" stroke-width="0.7" stroke-linecap="round" stroke-linejoin="round"/><path d="M-21 -11.6L-17.5 -12.6" fill="none" stroke="#ff9a6a" stroke-width="1.3" stroke-linecap="round" stroke-linejoin="round"/><circle cx="-19" cy="-12" r="3" fill="#ff9a6a" opacity="0.65" filter="url(#k-blur)"/></g><path d="M36 42Q60 24 98 22Q66 40 40 50Z" fill="#8a8078" opacity="0.35" filter="url(#k-blur)"/><g opacity="0.6"><circle cx="70" cy="32" r="8" fill="#6a625c"/><circle cx="64.4" cy="34.4" r="5.6" fill="#6a625c"/><circle cx="76" cy="34" r="6" fill="#6a625c"/><circle cx="68.4" cy="28.8" r="4.4" fill="#fff" opacity=".08"/></g><g opacity="0.55"><circle cx="88" cy="24" r="9" fill="#7a726a"/><circle cx="81.7" cy="26.7" r="6.3" fill="#7a726a"/><circle cx="94.8" cy="26.3" r="6.8" fill="#7a726a"/><circle cx="86.2" cy="20.4" r="5" fill="#fff" opacity=".08"/></g><g opacity="0.6"><circle cx="54" cy="38" r="6" fill="#5a524c"/><circle cx="49.8" cy="39.8" r="4.2" fill="#5a524c"/><circle cx="58.5" cy="39.5" r="4.5" fill="#5a524c"/><circle cx="52.8" cy="35.6" r="3.3" fill="#fff" opacity=".08"/></g><circle cx="40" cy="36.1" r="1.1" fill="#b8aca0" opacity="0.9"/><circle cx="104.8" cy="40.8" r="1" fill="#b8aca0" opacity="0.8"/><circle cx="98.2" cy="17.1" r="1.3" fill="#b8aca0" opacity="0.8"/><circle cx="96.2" cy="27.3" r="1" fill="#b8aca0" opacity="0.8"/><circle cx="90.7" cy="15.4" r="1.3" fill="#b8aca0" opacity="0.8"/><circle cx="69.9" cy="43.6" r="1" fill="#b8aca0" opacity="0.4"/><circle cx="40" cy="40.9" r="0.6" fill="#b8aca0" opacity="0.6"/><circle cx="68.6" cy="15.9" r="1.2" fill="#b8aca0" opacity="0.8"/><circle cx="68.8" cy="33" r="0.9" fill="#b8aca0" opacity="0.5"/><circle cx="55.7" cy="40.3" r="1.2" fill="#b8aca0" opacity="0.8"/><circle cx="54.8" cy="38.3" r="0.8" fill="#b8aca0" opacity="0.8"/><circle cx="72.9" cy="44.1" r="0.6" fill="#b8aca0" opacity="0.6"/><circle cx="78.2" cy="34.9" r="1.3" fill="#b8aca0" opacity="0.5"/><circle cx="46.4" cy="31.5" r="1" fill="#b8aca0" opacity="0.4"/><circle cx="62.7" cy="34.8" r="1.1" fill="#b8aca0" opacity="0.8"/><circle cx="93.2" cy="31" r="1" fill="#b8aca0" opacity="0.4"/><circle cx="97.8" cy="26.3" r="0.8" fill="#b8aca0" opacity="0.4"/><circle cx="62.5" cy="44.6" r="0.9" fill="#b8aca0" opacity="0.9"/><circle cx="82.1" cy="41.9" r="1.2" fill="#b8aca0" opacity="0.4"/><circle cx="56.3" cy="34.1" r="1.2" fill="#b8aca0" opacity="0.4"/><circle cx="93.3" cy="33.4" r="0.6" fill="#b8aca0" opacity="0.9"/><circle cx="60.1" cy="18.3" r="0.9" fill="#b8aca0" opacity="0.6"/><circle cx="109.5" cy="30.7" r="0.4" fill="#b8aca0" opacity="0.9"/><circle cx="79.4" cy="34.9" r="1" fill="#b8aca0" opacity="0.9"/><circle cx="65" cy="43.9" r="0.9" fill="#b8aca0" opacity="0.6"/><circle cx="108.9" cy="14.8" r="1.1" fill="#b8aca0" opacity="0.5"/><circle cx="109.9" cy="26.7" r="0.8" fill="#b8aca0" opacity="0.6"/><circle cx="106.3" cy="28.3" r="0.8" fill="#b8aca0" opacity="0.8"/><circle cx="54.7" cy="31.7" r="0.5" fill="#b8aca0" opacity="0.9"/><circle cx="45.4" cy="38" r="0.7" fill="#b8aca0" opacity="0.7"/><circle cx="52.8" cy="31.4" r="0.4" fill="#b8aca0" opacity="0.6"/><circle cx="64.5" cy="19.7" r="0.6" fill="#b8aca0" opacity="0.4"/><circle cx="64.6" cy="16.4" r="0.9" fill="#b8aca0" opacity="0.6"/><circle cx="106.8" cy="41.2" r="0.4" fill="#b8aca0" opacity="0.4"/><circle cx="50" cy="38.2" r="0.9" fill="#ff5a1e" opacity="0.6"/><circle cx="72.9" cy="19.6" r="1" fill="#ff5a1e" opacity="0.6"/><circle cx="75.5" cy="20.1" r="0.7" fill="#ff5a1e" opacity="0.5"/><circle cx="81.7" cy="29.6" r="1.1" fill="#ff5a1e" opacity="0.6"/><circle cx="69.8" cy="20.6" r="0.7" fill="#ff5a1e" opacity="0.9"/><circle cx="92.2" cy="32.8" r="0.6" fill="#ff5a1e" opacity="0.4"/><circle cx="92.3" cy="27" r="0.7" fill="#ff5a1e" opacity="0.4"/><circle cx="91.2" cy="37.6" r="1.1" fill="#ff5a1e" opacity="0.7"/><g><clipPath id="c1l"><path d="M-2 66L16 46L26 52L10 74Z"/></clipPath><path d="M-2 66L16 46L26 52L10 74Z" fill="#4a4248"/><path d="M-2 66L16 46L26 52L10 74Z" fill="url(#k-shade)"/><path d="M-2 66L16 46L26 52L10 74Z" fill="url(#k-metal)" opacity=".8"/><path d="M-2 66L16 46L26 52L10 74Z" fill="url(#k-noise)" opacity="0.35"/><path d="M-2 66L16 46L26 52L10 74Z" fill="none" stroke="url(#k-rim)" stroke-width="2" clip-path="url(#c1l)"/><path d="M-2 66L16 46L26 52L10 74Z" fill="none" stroke="#0b0709" stroke-width="1" stroke-linejoin="round" stroke-linecap="round"/></g><path d="M4 60L20 50M8 64L23 52" fill="none" stroke="#0b0709" stroke-width="0.6" stroke-linecap="round" stroke-linejoin="round"/><g><path d="M30 42L39 36" fill="none" stroke="#0b0709" stroke-width="6.4" stroke-linecap="round" stroke-linejoin="round"/><path d="M30 42L39 36" fill="none" stroke="#5a5258" stroke-width="2" stroke-linecap="round" stroke-linejoin="round"/><path d="M30 42L39 36" fill="none" stroke="#000" stroke-opacity=".35" stroke-width="0.9" stroke-linecap="round" transform="translate(0.36 0.44)"/><path d="M30 42L39 36" fill="none" stroke="#fff" stroke-opacity="0.2" stroke-width="0.44" stroke-linecap="round" transform="translate(-0.4 -0.44)"/></g><g><path d="M31 46L41 43" fill="none" stroke="#0b0709" stroke-width="6.4" stroke-linecap="round" stroke-linejoin="round"/><path d="M31 46L41 43" fill="none" stroke="#5a5258" stroke-width="2" stroke-linecap="round" stroke-linejoin="round"/><path d="M31 46L41 43" fill="none" stroke="#000" stroke-opacity=".35" stroke-width="0.9" stroke-linecap="round" transform="translate(0.36 0.44)"/><path d="M31 46L41 43" fill="none" stroke="#fff" stroke-opacity="0.2" stroke-width="0.44" stroke-linecap="round" transform="translate(-0.4 -0.44)"/></g><g><path d="M30 50L40 50" fill="none" stroke="#0b0709" stroke-width="6.4" stroke-linecap="round" stroke-linejoin="round"/><path d="M30 50L40 50" fill="none" stroke="#5a5258" stroke-width="2" stroke-linecap="round" stroke-linejoin="round"/><path d="M30 50L40 50" fill="none" stroke="#000" stroke-opacity=".35" stroke-width="0.9" stroke-linecap="round" transform="translate(0.36 0.44)"/><path d="M30 50L40 50" fill="none" stroke="#fff" stroke-opacity="0.2" stroke-width="0.44" stroke-linecap="round" transform="translate(-0.4 -0.44)"/></g><g><path d="M24 42L25 34" fill="none" stroke="#0b0709" stroke-width="6.4" stroke-linecap="round" stroke-linejoin="round"/><path d="M24 42L25 34" fill="none" stroke="#5a5258" stroke-width="2" stroke-linecap="round" stroke-linejoin="round"/><path d="M24 42L25 34" fill="none" stroke="#000" stroke-opacity=".35" stroke-width="0.9" stroke-linecap="round" transform="translate(0.36 0.44)"/><path d="M24 42L25 34" fill="none" stroke="#fff" stroke-opacity="0.2" stroke-width="0.44" stroke-linecap="round" transform="translate(-0.4 -0.44)"/></g><g><clipPath id="c1m"><path d="M17 47L24 40L31 41L31 51L25 54Z"/></clipPath><path d="M17 47L24 40L31 41L31 51L25 54Z" fill="#5a5258"/><path d="M17 47L24 40L31 41L31 51L25 54Z" fill="url(#k-shade)"/><path d="M17 47L24 40L31 41L31 51L25 54Z" fill="url(#k-metal)" opacity=".8"/><path d="M17 47L24 40L31 41L31 51L25 54Z" fill="url(#k-noise)" opacity="0.35"/><path d="M17 47L24 40L31 41L31 51L25 54Z" fill="none" stroke="url(#k-rim)" stroke-width="2" clip-path="url(#c1m)"/><path d="M17 47L24 40L31 41L31 51L25 54Z" fill="none" stroke="#0b0709" stroke-width="1" stroke-linejoin="round" stroke-linecap="round"/></g><rect width="120" height="72" fill="url(#cg1n)"/><rect width="120" height="72" fill="url(#k-noise)" opacity=".32"/></svg>