<svg xmlns="http://www.w3.org/2000/svg" viewBox="0 0 120 72"><defs><filter id="k-blur2" x="-80%" y="-80%" width="260%" height="260%"><feGaussianBlur stdDeviation="9"></feGaussianBlur></filter><pattern id="k-noise" width="1" height="1"></pattern></defs><defs><linearGradient id="cg92" x1="0" y1="0" x2="0" y2="1"><stop offset="0" stop-color="#0a2830"/><stop offset="1" stop-color="#02080c"/></linearGradient><radialGradient id="cg93" cx="50%" cy="50%" r="50%"><stop offset="0" stop-color="#5fe0cc" stop-opacity="0.02"/><stop offset="0.75" stop-color="#5fe0cc" stop-opacity="0.1"/><stop offset="1" stop-color="#d4fff8" stop-opacity="0.5"/></radialGradient></defs><rect width="120" height="72" fill="url(#cg92)"/><path d="M12 -4L22 76" fill="none" stroke="#5fe0cc" stroke-width="6" stroke-linecap="round" stroke-linejoin="round" opacity="0.05"/><path d="M34 -4L46 76" fill="none" stroke="#5fe0cc" stroke-width="10" stroke-linecap="round" stroke-linejoin="round" opacity="0.05"/><path d="M58 -4L72 76" fill="none" stroke="#5fe0cc" stroke-width="6" stroke-linecap="round" stroke-linejoin="round" opacity="0.05"/><path d="M80 -4L96 76" fill="none" stroke="#5fe0cc" stroke-width="10" stroke-linecap="round" stroke-linejoin="round" opacity="0.05"/><path d="M102 -4L120 76" fill="none" stroke="#5fe0cc" stroke-width="6" stroke-linecap="round" stroke-linejoin="round" opacity="0.05"/><circle cx="0" cy="58.9" r="0.9" fill="none" stroke="#d4fff8" stroke-width=".5" opacity=".3"/><circle cx="25.3" cy="46.7" r="1.2" fill="none" stroke="#d4fff8" stroke-width=".5" opacity=".3"/><circle cx="39.5" cy="48.1" r="1.5" fill="none" stroke="#d4fff8" stroke-width=".5" opacity=".3"/><circle cx="65.1" cy="43.8" r="1.4" fill="none" stroke="#d4fff8" stroke-width=".5" opacity=".3"/><circle cx="98" cy="15.5" r="1" fill="none" stroke="#d4fff8" stroke-width=".5" opacity=".3"/><circle cx="84.9" cy="44.7" r="0.7" fill="none" stroke="#d4fff8" stroke-width=".5" opacity=".3"/><circle cx="82.1" cy="29.9" r="1.7" fill="none" stroke="#d4fff8" stroke-width=".5" opacity=".3"/><circle cx="96.9" cy="7.9" r="1.2" fill="none" stroke="#d4fff8" stroke-width=".5" opacity=".3"/><circle cx="110.8" cy="44.1" r="1.4" fill="none" stroke="#d4fff8" stroke-width=".5" opacity=".3"/><ellipse cx="6" cy="72" rx="56" ry="46" fill="#ffb060" opacity="0.13" filter="url(#k-blur2)"/><ellipse cx="120" cy="10" rx="40" ry="40" fill="#5fe0cc" opacity=".12" filter="url(#k-blur2)"/><g transform="translate(60 58) scale(0.8)"><g stroke="#0b0709" stroke-width="1.6" stroke-linejoin="round"><path d="M-2 -31Q-9 -29 -12 -22Q-11 -16 -9 -12L-6 -21Z M-3 -31L4 -31L6 -22L7 -12L-1 -11L-9 -12L-6 -21Z M-2 -36Q0 -41 4 -40Q7 -38 6.4 -34L5 -31.4L0 -31.2Q-3 -33 -2 -36ZM-1 -38L-7 -33L-1 -32.4Z" fill="#0b0709"/><path d="M0 -12L2 -6L2 0" fill="none" stroke="#0b0709" stroke-width="5" stroke-linecap="round" stroke-linejoin="round"/><path d="M-4 -12L-5 -6L-7 0" fill="none" stroke="#0b0709" stroke-width="5" stroke-linecap="round" stroke-linejoin="round"/><path d="M4 -29L8 -22L11 -18" fill="none" stroke="#0b0709" stroke-width="4.300000000000001" stroke-linecap="round" stroke-linejoin="round"/><path d="M-2 -29L-4 -22L-3 -16" fill="none" stroke="#0b0709" stroke-width="4.300000000000001" stroke-linecap="round" stroke-linejoin="round"/></g><g transform="translate(-0.9 0.2)" opacity=".85"><path d="M-2 -31Q-9 -29 -12 -22Q-11 -16 -9 -12L-6 -21Z M-3 -31L4 -31L6 -22L7 -12L-1 -11L-9 -12L-6 -21Z M-2 -36Q0 -41 4 -40Q7 -38 6.4 -34L5 -31.4L0 -31.2Q-3 -33 -2 -36ZM-1 -38L-7 -33L-1 -32.4Z" fill="#ffb070"/><path d="M0 -12L2 -6L2 0" fill="none" stroke="#ffb070" stroke-width="3.4" stroke-linecap="round" stroke-linejoin="round"/><path d="M-4 -12L-5 -6L-7 0" fill="none" stroke="#ffb070" stroke-width="3.4" stroke-linecap="round" stroke-linejoin="round"/><path d="M4 -29L8 -22L11 -18" fill="none" stroke="#ffb070" stroke-width="2.7" stroke-linecap="round" stroke-linejoin="round"/><path d="M-2 -29L-4 -22L-3 -16" fill="none" stroke="#ffb070" stroke-width="2.7" stroke-linecap="round" stroke-linejoin="round"/></g><g transform="translate(0.9 -0.2)" opacity=".6"><path d="M-2 -31Q-9 -29 -12 -22Q-11 -16 -9 -12L-6 -21Z M-3 -31L4 -31L6 -22L7 -12L-1 -11L-9 -12L-6 -21Z M-2 -36Q0 -41 4 -40Q7 -38 6.4 -34L5 -31.4L0 -31.2Q-3 -33 -2 -36ZM-1 -38L-7 -33L-1 -32.4Z" fill="#8fb8ff"/><path d="M0 -12L2 -6L2 0" fill="none" stroke="#8fb8ff" stroke-width="3.4" stroke-linecap="round" stroke-linejoin="round"/><path d="M-4 -12L-5 -6L-7 0" fill="none" stroke="#8fb8ff" stroke-width="3.4" stroke-linecap="round" stroke-linejoin="round"/><path d="M4 -29L8 -22L11 -18" fill="none" stroke="#8fb8ff" stroke-width="2.7" stroke-linecap="round" stroke-linejoin="round"/><path d="M-2 -29L-4 -22L-3 -16" fill="none" stroke="#8fb8ff" stroke-width="2.7" stroke-linecap="round" stroke-linejoin="round"/></g><path d="M-2 -31Q-9 -29 -12 -22Q-11 -16 -9 -12L-6 -21Z M-3 -31L4 -31L6 -22L7 -12L-1 -11L-9 -12L-6 -21Z M-2 -36Q0 -41 4 -40Q7 -38 6.4 -34L5 -31.4L0 -31.2Q-3 -33 -2 -36ZM-1 -38L-7 -33L-1 -32.4Z" fill="#04141a"/><path d="M0 -12L2 -6L2 0" fill="none" stroke="#04141a" stroke-width="3.4" stroke-linecap="round" stroke-linejoin="round"/><path d="M-4 -12L-5 -6L-7 0" fill="none" stroke="#04141a" stroke-width="3.4" stroke-linecap="round" stroke-linejoin="round"/><path d="M4 -29L8 -22L11 -18" fill="none" stroke="#04141a" stroke-width="2.7" stroke-linecap="round" stroke-linejoin="round"/><path d="M-2 -29L-4 -22L-3 -16" fill="none" stroke="#04141a" stroke-width="2.7" stroke-linecap="round" stroke-linejoin="round"/><ellipse cx="4.4" cy="-34.4" rx="2" ry="2.4" fill="#000" opacity=".8"/></g><circle cx="60" cy="38" r="26" fill="url(#cg93)" stroke="#d4fff8" stroke-width=".9"/><path d="M42 22A24 24 0 0 1 60 13" fill="none" stroke="#fff" stroke-width="2" stroke-linecap="round" stroke-linejoin="round" opacity="0.7"/><path d="M78 56A24 24 0 0 0 84 44" fill="none" stroke="#ff9ad8" stroke-width="1" stroke-linecap="round" stroke-linejoin="round" opacity="0.5"/><path d="M36 44A24 24 0 0 0 44 56" fill="none" stroke="#9affd8" stroke-width="1" stroke-linecap="round" stroke-linejoin="round" opacity="0.5"/><circle cx="26" cy="20" r="4" fill="none" stroke="#d4fff8" stroke-width=".6" opacity=".7"/><circle cx="24.4" cy="18.4" r="1" fill="#fff" opacity=".8"/><circle cx="98" cy="24" r="3" fill="none" stroke="#d4fff8" stroke-width=".6" opacity=".7"/><circle cx="96.8" cy="22.8" r="0.75" fill="#fff" opacity=".8"/><circle cx="92" cy="56" r="5" fill="none" stroke="#d4fff8" stroke-width=".6" opacity=".7"/><circle cx="90" cy="54" r="1.25" fill="#fff" opacity=".8"/><circle cx="22" cy="50" r="3" fill="none" stroke="#d4fff8" stroke-width=".6" opacity=".7"/><circle cx="20.8" cy="48.8" r="0.75" fill="#fff" opacity=".8"/><circle cx="96.1" cy="44.9" r="1.3" fill="#8ac05a" opacity="0.9"/><circle cx="108.8" cy="46.1" r="1.2" fill="#8ac05a" opacity="0.5"/><circle cx="104" cy="46.2" r="1.1" fill="#8ac05a" opacity="0.5"/><circle cx="100.3" cy="47.3" r="0.8" fill="#8ac05a" opacity="0.6"/><circle cx="98.6" cy="31.7" r="1.1" fill="#8ac05a" opacity="0.8"/><circle cx="104.2" cy="37.9" r="0.6" fill="#8ac05a" opacity="0.4"/><circle cx="102.3" cy="36" r="1.2" fill="#8ac05a" opacity="0.5"/><circle cx="112.3" cy="33.5" r="0.4" fill="#8ac05a" opacity="0.7"/><rect width="120" height="72" fill="url(#cg94)"/><rect width="120" height="72" fill="url(#k-noise)" opacity=".32"/></svg>