<svg xmlns="http://www.w3.org/2000/svg" viewBox="0 0 120 72"><defs><filter id="k-blur2" x="-80%" y="-80%" width="260%" height="260%"><feGaussianBlur stdDeviation="9"></feGaussianBlur></filter><radialGradient id="k-shade" cx="30%" cy="22%" r="95%"><stop offset="0" stop-color="#fff" stop-opacity=".34"></stop><stop offset=".3" stop-color="#fff" stop-opacity=".04"></stop><stop offset=".62" stop-color="#000" stop-opacity=".22"></stop><stop offset="1" stop-color="#000" stop-opacity=".62"></stop></radialGradient><linearGradient id="k-rim" x1="0" x2="1" y1="0" y2="0"><stop offset="0" stop-color="#ffc98a" stop-opacity=".95"></stop><stop offset=".2" stop-color="#ffb060" stop-opacity=".25"></stop><stop offset=".45" stop-color="#ffb060" stop-opacity="0"></stop><stop offset=".85" stop-color="#8fd8ff" stop-opacity="0"></stop><stop offset="1" stop-color="#8fd8ff" stop-opacity=".45"></stop></linearGradient><pattern id="k-noise" width="1" height="1"></pattern><filter id="k-blur" x="-80%" y="-80%" width="260%" height="260%"><feGaussianBlur stdDeviation="4"></feGaussianBlur></filter></defs><defs><linearGradient id="cg8k" x1="0" y1="0" x2="0" y2="1"><stop offset="0" stop-color="#0a2830"/><stop offset="1" stop-color="#02080c"/></linearGradient></defs><rect width="120" height="72" fill="url(#cg8k)"/><path d="M12 -4L22 76" fill="none" stroke="#5fe0cc" stroke-width="6" stroke-linecap="round" stroke-linejoin="round" opacity="0.05"/><path d="M34 -4L46 76" fill="none" stroke="#5fe0cc" stroke-width="10" stroke-linecap="round" stroke-linejoin="round" opacity="0.05"/><path d="M58 -4L72 76" fill="none" stroke="#5fe0cc" stroke-width="6" stroke-linecap="round" stroke-linejoin="round" opacity="0.05"/><path d="M80 -4L96 76" fill="none" stroke="#5fe0cc" stroke-width="10" stroke-linecap="round" stroke-linejoin="round" opacity="0.05"/><path d="M102 -4L120 76" fill="none" stroke="#5fe0cc" stroke-width="6" stroke-linecap="round" stroke-linejoin="round" opacity="0.05"/><circle cx="0" cy="58.9" r="0.9" fill="none" stroke="#d4fff8" stroke-width=".5" opacity=".3"/><circle cx="25.3" cy="46.7" r="1.2" fill="none" stroke="#d4fff8" stroke-width=".5" opacity=".3"/><circle cx="39.5" cy="48.1" r="1.5" fill="none" stroke="#d4fff8" stroke-width=".5" opacity=".3"/><circle cx="65.1" cy="43.8" r="1.4" fill="none" stroke="#d4fff8" stroke-width=".5" opacity=".3"/><circle cx="98" cy="15.5" r="1" fill="none" stroke="#d4fff8" stroke-width=".5" opacity=".3"/><circle cx="84.9" cy="44.7" r="0.7" fill="none" stroke="#d4fff8" stroke-width=".5" opacity=".3"/><circle cx="82.1" cy="29.9" r="1.7" fill="none" stroke="#d4fff8" stroke-width=".5" opacity=".3"/><circle cx="96.9" cy="7.9" r="1.2" fill="none" stroke="#d4fff8" stroke-width=".5" opacity=".3"/><circle cx="110.8" cy="44.1" r="1.4" fill="none" stroke="#d4fff8" stroke-width=".5" opacity=".3"/><ellipse cx="6" cy="72" rx="56" ry="46" fill="#ffb060" opacity="0.13" filter="url(#k-blur2)"/><ellipse cx="120" cy="10" rx="40" ry="40" fill="#5fe0cc" opacity=".12" filter="url(#k-blur2)"/><g transform="translate(60 10)"><g opacity="0.5"><clipPath id="c8l"><path d="M-3 0h6v14l-3 4l-3 -4Z"/></clipPath><path d="M-3 0h6v14l-3 4l-3 -4Z" fill="#d4fff8"/><path d="M-3 0h6v14l-3 4l-3 -4Z" fill="url(#k-shade)"/><path d="M-3 0h6v14l-3 4l-3 -4Z" fill="none" stroke="url(#k-rim)" stroke-width="1" clip-path="url(#c8l)"/><path d="M-3 0h6v14l-3 4l-3 -4Z" fill="none" stroke="#0b0709" stroke-width="1" stroke-linejoin="round" stroke-linecap="round"/></g><path d="M-2 6h4v8l-2 3l-2 -3Z" fill="#3a6a1a"/><g><clipPath id="c8m"><path d="M-5 -8h10v8h-10Z"/></clipPath><path d="M-5 -8h10v8h-10Z" fill="#3a2418"/><path d="M-5 -8h10v8h-10Z" fill="url(#k-shade)"/><path d="M-5 -8h10v8h-10Z" fill="url(#k-noise)" opacity="0.35"/><path d="M-5 -8h10v8h-10Z" fill="none" stroke="url(#k-rim)" stroke-width="1" clip-path="url(#c8m)"/><path d="M-5 -8h10v8h-10Z" fill="none" stroke="#0b0709" stroke-width="1" stroke-linejoin="round" stroke-linecap="round"/></g></g><path d="M60 30c-2 3 -2 5 0 6c2 -1 2 -3 0 -6z" fill="#3a8a1a" stroke="#0b0709" stroke-width="0.4" stroke-linecap="round" stroke-linejoin="round"/><g transform="translate(60 52) scale(0.65)"><circle cx="0" cy="6" r="12" fill="#2e5a14" opacity="0.55" filter="url(#k-blur)"/><path d="M-3 -20h6v8C11 -9 14 -4 14 2C14 10 8 14 0 14C-8 14 -14 10 -14 2C-14 -4 -11 -9 -3 -12Z" fill="#d4fff8" opacity=".1"/><path d="M-13.4 -6H13.4C13.6 9 8 13.4 0 13.4C-8 13.4 -13.6 9 -13.4 -6Z" fill="#2e5a14"/><path d="M-13.4 -6H13.4C13.6 9 8 13.4 0 13.4C-8 13.4 -13.6 9 -13.4 -6Z" fill="url(#k-shade)"/><ellipse cx="0" cy="-6" rx="13.4" ry="1.6" fill="#fff" opacity=".35"/><path d="M-3 -20h6v8C11 -9 14 -4 14 2C14 10 8 14 0 14C-8 14 -14 10 -14 2C-14 -4 -11 -9 -3 -12Z" fill="none" stroke="#d4fff8" stroke-width="1.1" opacity=".8"/><path d="M-9 -2Q-11 4 -8 9" fill="none" stroke="#fff" stroke-width="1.4" stroke-linecap="round" stroke-linejoin="round" opacity="0.55"/><rect x="-4.2" y="-23" width="8.4" height="3.6" rx="1" fill="none" stroke="#0b0709" stroke-width=".6"/></g><path d="M47 46a13 3 0 1 0 26 0a13 3 0 1 0 -26 0" fill="none" stroke="#d8ff9a" stroke-width="0.5" stroke-linecap="round" stroke-linejoin="round" opacity="0.7"/><ellipse cx="60" cy="46" rx="10" ry="2.2" fill="none" stroke="#d8ff9a" stroke-width=".5" opacity=".5"/><ellipse cx="60" cy="46" rx="16" ry="3.52" fill="none" stroke="#d8ff9a" stroke-width=".5" opacity=".5"/><circle cx="60" cy="56" r="10" fill="#8ac05a" opacity="0.4" filter="url(#k-blur)"/><path d="M86 30L92 36L88 42L96 48" fill="none" stroke="#e2cbff" stroke-width="1" stroke-linecap="round" stroke-linejoin="round"/><rect width="120" height="72" fill="url(#cg8n)"/><rect width="120" height="72" fill="url(#k-noise)" opacity=".32"/></svg>