<svg xmlns="http://www.w3.org/2000/svg" viewBox="0 0 120 72"><defs><filter id="k-blur2" x="-80%" y="-80%" width="260%" height="260%"><feGaussianBlur stdDeviation="9"></feGaussianBlur></filter><filter id="k-blur" x="-80%" y="-80%" width="260%" height="260%"><feGaussianBlur stdDeviation="4"></feGaussianBlur></filter><radialGradient id="k-shade" cx="30%" cy="22%" r="95%"><stop offset="0" stop-color="#fff" stop-opacity=".34"></stop><stop offset=".3" stop-color="#fff" stop-opacity=".04"></stop><stop offset=".62" stop-color="#000" stop-opacity=".22"></stop><stop offset="1" stop-color="#000" stop-opacity=".62"></stop></radialGradient><pattern id="k-noise" width="1" height="1"></pattern><linearGradient id="k-rim" x1="0" x2="1" y1="0" y2="0"><stop offset="0" stop-color="#ffc98a" stop-opacity=".95"></stop><stop offset=".2" stop-color="#ffb060" stop-opacity=".25"></stop><stop offset=".45" stop-color="#ffb060" stop-opacity="0"></stop><stop offset=".85" stop-color="#8fd8ff" stop-opacity="0"></stop><stop offset="1" stop-color="#8fd8ff" stop-opacity=".45"></stop></linearGradient></defs><defs><linearGradient id="cg3x" x1="0" y1="0" x2="0" y2="1"><stop offset="0" stop-color="#2b150b"/><stop offset="1" stop-color="#0b0605"/></linearGradient></defs><rect width="120" height="72" fill="url(#cg3x)"/><path d="M0 4H120M0 4v12M20 4v12M40 4v12M60 4v12M80 4v12M100 4v12M120 4v12M0 16H120M10 16v12M30 16v12M50 16v12M70 16v12M90 16v12M110 16v12M130 16v12M0 28H120M0 28v12M20 28v12M40 28v12M60 28v12M80 28v12M100 28v12M120 28v12M0 40H120M10 40v12M30 40v12M50 40v12M70 40v12M90 40v12M110 40v12M130 40v12M0 52H120M0 52v12M20 52v12M40 52v12M60 52v12M80 52v12M100 52v12M120 52v12" fill="none" stroke="#000" stroke-width="0.8" stroke-linecap="round" stroke-linejoin="round" opacity="0.35"/><path d="M0 4H120M0 4v12M20 4v12M40 4v12M60 4v12M80 4v12M100 4v12M120 4v12M0 16H120M10 16v12M30 16v12M50 16v12M70 16v12M90 16v12M110 16v12M130 16v12M0 28H120M0 28v12M20 28v12M40 28v12M60 28v12M80 28v12M100 28v12M120 28v12M0 40H120M10 40v12M30 40v12M50 40v12M70 40v12M90 40v12M110 40v12M130 40v12M0 52H120M0 52v12M20 52v12M40 52v12M60 52v12M80 52v12M100 52v12M120 52v12" fill="none" stroke="#ffb45a" stroke-width="0.4" stroke-linecap="round" stroke-linejoin="round" opacity="0.06" transform="translate(0.6 0.6)"/><ellipse cx="6" cy="72" rx="56" ry="46" fill="#ff8a3a" opacity="0.22" filter="url(#k-blur2)"/><ellipse cx="120" cy="10" rx="40" ry="40" fill="#6a9ed0" opacity=".12" filter="url(#k-blur2)"/><path d="M16 56C40 64 34 26 58 30S80 56 98 28L112 14" fill="none" stroke="#ff5a1e" stroke-width="9" stroke-linecap="round" stroke-linejoin="round" opacity="0.45" filter="url(#k-blur)"/><path d="M16 56C40 64 34 26 58 30S80 56 98 28L112 14" fill="none" stroke="#ff5a1e" stroke-width="3.2" stroke-linecap="round" stroke-linejoin="round"/><path d="M16 56C40 64 34 26 58 30S80 56 98 28L112 14" fill="none" stroke="#ffb45a" stroke-width="1.6" stroke-linecap="round" stroke-linejoin="round"/><path d="M16 56C40 64 34 26 58 30S80 56 98 28L112 14" fill="none" stroke="#ffe6b8" stroke-width="0.6" stroke-linecap="round" stroke-linejoin="round"/><path d="M36 41.1C35.5 42.9 33.4 43.9 33.4 46A2.6 2.6 0 0 0 38.6 46C38.6 44.4 37.4 43.9 37.2 42.8C36.5 43.7 36 43.1 36 41.1Z" fill="#ff5a1e" stroke="#0b0709" stroke-width=".8"/><path d="M36 43.1C34.6 44.8 34.4 45.9 34.6 46.5A1.5 1.5 0 0 0 37.5 46.5C37.4 45.2 36.6 44.7 36 43.1Z" fill="#ffb45a"/><ellipse cx="36" cy="46.6" rx="0.6" ry="1" fill="#ffe6b8"/><path d="M52 25.1C51.5 26.9 49.4 27.9 49.4 30A2.6 2.6 0 0 0 54.6 30C54.6 28.4 53.4 27.9 53.2 26.8C52.5 27.7 52 27.1 52 25.1Z" fill="#ff5a1e" stroke="#0b0709" stroke-width=".8"/><path d="M52 27.1C50.6 28.8 50.4 29.9 50.6 30.5A1.5 1.5 0 0 0 53.5 30.5C53.4 29.2 52.6 28.7 52 27.1Z" fill="#ffb45a"/><ellipse cx="52" cy="30.6" rx="0.6" ry="1" fill="#ffe6b8"/><path d="M72 37.1C71.5 38.9 69.4 39.9 69.4 42A2.6 2.6 0 0 0 74.6 42C74.6 40.4 73.4 39.9 73.2 38.8C72.5 39.7 72 39.1 72 37.1Z" fill="#ff5a1e" stroke="#0b0709" stroke-width=".8"/><path d="M72 39.1C70.6 40.8 70.4 41.9 70.6 42.5A1.5 1.5 0 0 0 73.5 42.5C73.4 41.2 72.7 40.7 72 39.1Z" fill="#ffb45a"/><ellipse cx="72" cy="42.6" rx="0.6" ry="1" fill="#ffe6b8"/><path d="M92 29.1C91.5 30.9 89.4 31.9 89.4 34A2.6 2.6 0 0 0 94.6 34C94.6 32.4 93.4 31.9 93.2 30.8C92.5 31.7 92 31.1 92 29.1Z" fill="#ff5a1e" stroke="#0b0709" stroke-width=".8"/><path d="M92 31.1C90.6 32.8 90.4 33.9 90.6 34.5A1.5 1.5 0 0 0 93.5 34.5C93.4 33.2 92.7 32.7 92 31.1Z" fill="#ffb45a"/><ellipse cx="92" cy="34.6" rx="0.6" ry="1" fill="#ffe6b8"/><path d="M108.2 14L99.9 13.9" stroke="#ffe6b8" stroke-width="1.1" stroke-linecap="round"/><path d="M110.1 11.8L107 8.1" stroke="#ffe6b8" stroke-width="0.7" stroke-linecap="round"/><path d="M115.5 11.5L120.9 7.7" stroke="#ffe6b8" stroke-width="1" stroke-linecap="round"/><path d="M111.6 9.5L110.9 0.9" stroke="#ffe6b8" stroke-width="1.1" stroke-linecap="round"/><path d="M116.6 13.9L123.2 13.8" stroke="#ffe6b8" stroke-width="0.8" stroke-linecap="round"/><path d="M113.5 11.7L116.5 7" stroke="#ffe6b8" stroke-width="0.7" stroke-linecap="round"/><path d="M108.9 15.6L104.7 17.7" stroke="#ffe6b8" stroke-width="0.9" stroke-linecap="round"/><path d="M110 10L108.3 6.5" stroke="#ffe6b8" stroke-width="0.9" stroke-linecap="round"/><path d="M110.1 11.9L105.1 6.5" stroke="#ffe6b8" stroke-width="0.8" stroke-linecap="round"/><path d="M111.2 9.2L110.6 5.6" stroke="#ffe6b8" stroke-width="0.9" stroke-linecap="round"/><path d="M113.9 13L118.1 10.7" stroke="#ffe6b8" stroke-width="0.9" stroke-linecap="round"/><path d="M112.9 12L114.7 8.2" stroke="#ffe6b8" stroke-width="0.6" stroke-linecap="round"/><path d="M112.4 10.7L113 6.7" stroke="#ffe6b8" stroke-width="0.5" stroke-linecap="round"/><path d="M114.8 11.8L121.3 6.6" stroke="#ffe6b8" stroke-width="0.8" stroke-linecap="round"/><g><clipPath id="c3y"><path d="M6 60L18 54L20 58L10 64Z"/></clipPath><path d="M6 60L18 54L20 58L10 64Z" fill="#3a2416"/><path d="M6 60L18 54L20 58L10 64Z" fill="url(#k-shade)"/><path d="M6 60L18 54L20 58L10 64Z" fill="url(#k-noise)" opacity="0.35"/><path d="M6 60L18 54L20 58L10 64Z" fill="none" stroke="url(#k-rim)" stroke-width="2.4" clip-path="url(#c3y)"/><path d="M6 60L18 54L20 58L10 64Z" fill="none" stroke="#0b0709" stroke-width="1" stroke-linejoin="round" stroke-linecap="round"/></g><rect width="120" height="72" fill="url(#cg3z)"/><rect width="120" height="72" fill="url(#k-noise)" opacity=".32"/></svg>