<svg xmlns="http://www.w3.org/2000/svg" viewBox="0 0 120 72"><defs><filter id="k-blur" x="-80%" y="-80%" width="260%" height="260%"><feGaussianBlur stdDeviation="4"></feGaussianBlur></filter><filter id="k-blur2" x="-80%" y="-80%" width="260%" height="260%"><feGaussianBlur stdDeviation="9"></feGaussianBlur></filter><radialGradient id="k-shade" cx="30%" cy="22%" r="95%"><stop offset="0" stop-color="#fff" stop-opacity=".34"></stop><stop offset=".3" stop-color="#fff" stop-opacity=".04"></stop><stop offset=".62" stop-color="#000" stop-opacity=".22"></stop><stop offset="1" stop-color="#000" stop-opacity=".62"></stop></radialGradient><pattern id="k-noise" width="1" height="1"></pattern><linearGradient id="k-rim" x1="0" x2="1" y1="0" y2="0"><stop offset="0" stop-color="#ffc98a" stop-opacity=".95"></stop><stop offset=".2" stop-color="#ffb060" stop-opacity=".25"></stop><stop offset=".45" stop-color="#ffb060" stop-opacity="0"></stop><stop offset=".85" stop-color="#8fd8ff" stop-opacity="0"></stop><stop offset="1" stop-color="#8fd8ff" stop-opacity=".45"></stop></linearGradient></defs><defs><linearGradient id="cgff" x1="0" y1="0" x2="0" y2="1"><stop offset="0" stop-color="#1d1132"/><stop offset="1" stop-color="#05030a"/></linearGradient></defs><rect width="120" height="72" fill="url(#cgff)"/><path d="M-2 30Q30 24 60 30T122 28" fill="none" stroke="#3a2a5c" stroke-width="8" stroke-linecap="round" stroke-linejoin="round" opacity="0.35" filter="url(#k-blur)"/><ellipse cx="6" cy="72" rx="56" ry="46" fill="#ff9a6a" opacity="0.13" filter="url(#k-blur2)"/><ellipse cx="120" cy="10" rx="40" ry="40" fill="#9a8cff" opacity=".12" filter="url(#k-blur2)"/><g><clipPath id="cfg"><path d="M20 72V10H100V72Z"/></clipPath><path d="M20 72V10H100V72Z" fill="#1e1a24"/><path d="M20 72V10H100V72Z" fill="url(#k-shade)"/><path d="M20 72V10H100V72Z" fill="url(#k-noise)" opacity="0.6"/><path d="M20 72V10H100V72Z" fill="none" stroke="url(#k-rim)" stroke-width="2" clip-path="url(#cfg)"/><path d="M20 72V10H100V72Z" fill="none" stroke="#0b0709" stroke-width="1" stroke-linejoin="round" stroke-linecap="round"/></g><path d="M20 22H100M20 38H100M20 54H100M40 10V22M70 10V22M30 22V38M56 22V38M84 22V38" fill="none" stroke="#0b0709" stroke-width="0.6" stroke-linecap="round" stroke-linejoin="round" opacity="0.7"/><path d="M44 72V34Q44 18 60 18Q76 18 76 34V72Z" fill="#000"/><path d="M44 72V34Q44 18 60 18Q76 18 76 34V72" fill="none" stroke="#b48cff" stroke-width="1" stroke-linecap="round" stroke-linejoin="round" opacity="0.6"/><circle cx="60" cy="46" r="14" fill="#b48cff" opacity="0.25" filter="url(#k-blur)"/><g transform="translate(60 70) scale(0.85)"><g stroke="#0b0709" stroke-width="1.6" stroke-linejoin="round"><path d="M-2 -31Q-9 -29 -12 -22Q-11 -16 -9 -12L-6 -21Z M-3 -31L4 -31L6 -22L7 -12L-1 -11L-9 -12L-6 -21Z M-2 -36Q0 -41 4 -40Q7 -38 6.4 -34L5 -31.4L0 -31.2Q-3 -33 -2 -36ZM-1 -38L-7 -33L-1 -32.4Z" fill="#0b0709"/><path d="M0 -12L2 -6L2 0" fill="none" stroke="#0b0709" stroke-width="5" stroke-linecap="round" stroke-linejoin="round"/><path d="M-4 -12L-5 -6L-7 0" fill="none" stroke="#0b0709" stroke-width="5" stroke-linecap="round" stroke-linejoin="round"/><path d="M4 -29L8 -22L11 -18" fill="none" stroke="#0b0709" stroke-width="4.300000000000001" stroke-linecap="round" stroke-linejoin="round"/><path d="M-2 -29L-4 -22L-3 -16" fill="none" stroke="#0b0709" stroke-width="4.300000000000001" stroke-linecap="round" stroke-linejoin="round"/></g><g transform="translate(-0.9 0.2)" opacity=".85"><path d="M-2 -31Q-9 -29 -12 -22Q-11 -16 -9 -12L-6 -21Z M-3 -31L4 -31L6 -22L7 -12L-1 -11L-9 -12L-6 -21Z M-2 -36Q0 -41 4 -40Q7 -38 6.4 -34L5 -31.4L0 -31.2Q-3 -33 -2 -36ZM-1 -38L-7 -33L-1 -32.4Z" fill="#ffb070"/><path d="M0 -12L2 -6L2 0" fill="none" stroke="#ffb070" stroke-width="3.4" stroke-linecap="round" stroke-linejoin="round"/><path d="M-4 -12L-5 -6L-7 0" fill="none" stroke="#ffb070" stroke-width="3.4" stroke-linecap="round" stroke-linejoin="round"/><path d="M4 -29L8 -22L11 -18" fill="none" stroke="#ffb070" stroke-width="2.7" stroke-linecap="round" stroke-linejoin="round"/><path d="M-2 -29L-4 -22L-3 -16" fill="none" stroke="#ffb070" stroke-width="2.7" stroke-linecap="round" stroke-linejoin="round"/></g><g transform="translate(0.9 -0.2)" opacity=".6"><path d="M-2 -31Q-9 -29 -12 -22Q-11 -16 -9 -12L-6 -21Z M-3 -31L4 -31L6 -22L7 -12L-1 -11L-9 -12L-6 -21Z M-2 -36Q0 -41 4 -40Q7 -38 6.4 -34L5 -31.4L0 -31.2Q-3 -33 -2 -36ZM-1 -38L-7 -33L-1 -32.4Z" fill="#8fb8ff"/><path d="M0 -12L2 -6L2 0" fill="none" stroke="#8fb8ff" stroke-width="3.4" stroke-linecap="round" stroke-linejoin="round"/><path d="M-4 -12L-5 -6L-7 0" fill="none" stroke="#8fb8ff" stroke-width="3.4" stroke-linecap="round" stroke-linejoin="round"/><path d="M4 -29L8 -22L11 -18" fill="none" stroke="#8fb8ff" stroke-width="2.7" stroke-linecap="round" stroke-linejoin="round"/><path d="M-2 -29L-4 -22L-3 -16" fill="none" stroke="#8fb8ff" stroke-width="2.7" stroke-linecap="round" stroke-linejoin="round"/></g><path d="M-2 -31Q-9 -29 -12 -22Q-11 -16 -9 -12L-6 -21Z M-3 -31L4 -31L6 -22L7 -12L-1 -11L-9 -12L-6 -21Z M-2 -36Q0 -41 4 -40Q7 -38 6.4 -34L5 -31.4L0 -31.2Q-3 -33 -2 -36ZM-1 -38L-7 -33L-1 -32.4Z" fill="#000"/><path d="M0 -12L2 -6L2 0" fill="none" stroke="#000" stroke-width="3.4" stroke-linecap="round" stroke-linejoin="round"/><path d="M-4 -12L-5 -6L-7 0" fill="none" stroke="#000" stroke-width="3.4" stroke-linecap="round" stroke-linejoin="round"/><path d="M4 -29L8 -22L11 -18" fill="none" stroke="#000" stroke-width="2.7" stroke-linecap="round" stroke-linejoin="round"/><path d="M-2 -29L-4 -22L-3 -16" fill="none" stroke="#000" stroke-width="2.7" stroke-linecap="round" stroke-linejoin="round"/><ellipse cx="4.4" cy="-34.4" rx="2" ry="2.4" fill="#000" opacity=".8"/><circle cx="5" cy="-35" r=".7" fill="#ff4a7e"/><circle cx="5" cy="-35" r="2" fill="#ff4a7e" opacity=".35"/></g><path d="M30 70Q44 66 60 70" fill="none" stroke="#b48cff" stroke-width="0.8" stroke-linecap="round" stroke-linejoin="round" opacity="0.5"/><g opacity="0.6"><circle cx="36" cy="68" r="5" fill="#000"/><circle cx="32.5" cy="69.5" r="3.5" fill="#000"/><circle cx="39.8" cy="69.3" r="3.8" fill="#000"/><circle cx="35" cy="66" r="2.8" fill="#fff" opacity=".08"/></g><g opacity="0.6"><circle cx="84" cy="68" r="5" fill="#000"/><circle cx="80.5" cy="69.5" r="3.5" fill="#000"/><circle cx="87.8" cy="69.3" r="3.8" fill="#000"/><circle cx="83" cy="66" r="2.8" fill="#fff" opacity=".08"/></g><rect width="120" height="72" fill="url(#cgfh)"/><rect width="120" height="72" fill="url(#k-noise)" opacity=".32"/></svg>