<svg xmlns="http://www.w3.org/2000/svg" viewBox="0 0 120 72"><defs><filter id="k-blur" x="-80%" y="-80%" width="260%" height="260%"><feGaussianBlur stdDeviation="4"></feGaussianBlur></filter><filter id="k-blur2" x="-80%" y="-80%" width="260%" height="260%"><feGaussianBlur stdDeviation="9"></feGaussianBlur></filter><radialGradient id="k-shade" cx="30%" cy="22%" r="95%"><stop offset="0" stop-color="#fff" stop-opacity=".34"></stop><stop offset=".3" stop-color="#fff" stop-opacity=".04"></stop><stop offset=".62" stop-color="#000" stop-opacity=".22"></stop><stop offset="1" stop-color="#000" stop-opacity=".62"></stop></radialGradient><pattern id="k-noise" width="1" height="1"></pattern><linearGradient id="k-rim" x1="0" x2="1" y1="0" y2="0"><stop offset="0" stop-color="#ffc98a" stop-opacity=".95"></stop><stop offset=".2" stop-color="#ffb060" stop-opacity=".25"></stop><stop offset=".45" stop-color="#ffb060" stop-opacity="0"></stop><stop offset=".85" stop-color="#8fd8ff" stop-opacity="0"></stop><stop offset="1" stop-color="#8fd8ff" stop-opacity=".45"></stop></linearGradient></defs><defs><linearGradient id="cgak" x1="0" y1="0" x2="0" y2="1"><stop offset="0" stop-color="#1d1132"/><stop offset="1" stop-color="#05030a"/></linearGradient><mask id="mnal" maskUnits="userSpaceOnUse" x="0" y="0" width="120" height="72"><rect width="120" height="72" fill="#000"/><circle cx="22" cy="14" r="5" fill="#fff"/><circle cx="24.3" cy="13" r="4.6" fill="#000"/></mask></defs><rect width="120" height="72" fill="url(#cgak)"/><path d="M-2 30Q30 24 60 30T122 28" fill="none" stroke="#3a2a5c" stroke-width="8" stroke-linecap="round" stroke-linejoin="round" opacity="0.35" filter="url(#k-blur)"/><path d="M0 72V58l8-5 8 5v-8l10-6 10 6v10l6-4 8 4V52l12-7 12 7v8l8-5 8 5v-6l9-5 9 5v20Z" fill="#05030a" opacity="0.75"/><ellipse cx="6" cy="72" rx="56" ry="46" fill="#ff9a6a" opacity="0.13" filter="url(#k-blur2)"/><ellipse cx="120" cy="10" rx="40" ry="40" fill="#9a8cff" opacity=".12" filter="url(#k-blur2)"/><circle cx="22" cy="14" r="10" fill="#f2eaff" opacity="0.3" filter="url(#k-blur2)"/><circle cx="22" cy="14" r="5" fill="#f2eaff" mask="url(#mnal)"/><g transform="translate(72 64) scale(1.6)"><path d="M-7 -23l1 -5l3 4M0 -26l2 -5l2 5M7 -25l3 -4l1 4M13 -26l3 -3l0 5" fill="#1a1216" stroke="#0b0709" stroke-width="0.8" stroke-linecap="round" stroke-linejoin="round"/><g><clipPath id="cam"><path d="M-28 -8L-23 -13L-18 -15L-14 -19L-7 -23L0 -26L7 -25L13 -26L18 -21L22 -14L22 -8L19 -4L19 0H15L14 -6L10 -8L7 0H3L3 -9L-5 -10L-7 0H-11L-11 -8L-16 -7L-21 -5L-26 -5Z"/></clipPath><path d="M-28 -8L-23 -13L-18 -15L-14 -19L-7 -23L0 -26L7 -25L13 -26L18 -21L22 -14L22 -8L19 -4L19 0H15L14 -6L10 -8L7 0H3L3 -9L-5 -10L-7 0H-11L-11 -8L-16 -7L-21 -5L-26 -5Z" fill="#1a1216"/><path d="M-28 -8L-23 -13L-18 -15L-14 -19L-7 -23L0 -26L7 -25L13 -26L18 -21L22 -14L22 -8L19 -4L19 0H15L14 -6L10 -8L7 0H3L3 -9L-5 -10L-7 0H-11L-11 -8L-16 -7L-21 -5L-26 -5Z" fill="url(#k-shade)"/><path d="M-28 -8L-23 -13L-18 -15L-14 -19L-7 -23L0 -26L7 -25L13 -26L18 -21L22 -14L22 -8L19 -4L19 0H15L14 -6L10 -8L7 0H3L3 -9L-5 -10L-7 0H-11L-11 -8L-16 -7L-21 -5L-26 -5Z" fill="url(#k-noise)" opacity="0.45"/><path d="M-28 -8L-23 -13L-18 -15L-14 -19L-7 -23L0 -26L7 -25L13 -26L18 -21L22 -14L22 -8L19 -4L19 0H15L14 -6L10 -8L7 0H3L3 -9L-5 -10L-7 0H-11L-11 -8L-16 -7L-21 -5L-26 -5Z" fill="none" stroke="url(#k-rim)" stroke-width="4" clip-path="url(#cam)"/><path d="M-28 -8L-23 -13L-18 -15L-14 -19L-7 -23L0 -26L7 -25L13 -26L18 -21L22 -14L22 -8L19 -4L19 0H15L14 -6L10 -8L7 0H3L3 -9L-5 -10L-7 0H-11L-11 -8L-16 -7L-21 -5L-26 -5Z" fill="none" stroke="#0b0709" stroke-width="1.1" stroke-linejoin="round" stroke-linecap="round"/></g><g><clipPath id="can"><path d="M-15 -16Q-12 -25 -2 -28Q-8 -23 -11 -15Z"/></clipPath><path d="M-15 -16Q-12 -25 -2 -28Q-8 -23 -11 -15Z" fill="#4a3e36"/><path d="M-15 -16Q-12 -25 -2 -28Q-8 -23 -11 -15Z" fill="url(#k-shade)"/><path d="M-15 -16Q-12 -25 -2 -28Q-8 -23 -11 -15Z" fill="url(#k-noise)" opacity="0.35"/><path d="M-15 -16Q-12 -25 -2 -28Q-8 -23 -11 -15Z" fill="none" stroke="url(#k-rim)" stroke-width="1.4" clip-path="url(#can)"/><path d="M-15 -16Q-12 -25 -2 -28Q-8 -23 -11 -15Z" fill="none" stroke="#0b0709" stroke-width="0.8" stroke-linejoin="round" stroke-linecap="round"/></g><path d="M-27 -7L-25 -5L-24 -7L-22 -5L-21 -7" fill="none" stroke="#d8ccb4" stroke-width="0.7" stroke-linecap="round" stroke-linejoin="round"/><path d="M-21 -11.6L-17.5 -12.6" fill="none" stroke="#ff6a8a" stroke-width="1.3" stroke-linecap="round" stroke-linejoin="round"/><circle cx="-19" cy="-12" r="3" fill="#ff6a8a" opacity="0.65" filter="url(#k-blur)"/></g><g transform="translate(78 40)"><circle cx="0" cy="0" r="8.4" fill="#ff4a7e" opacity="0.5" filter="url(#k-blur)"/><circle r="7" fill="none" stroke="#ff4a7e" stroke-width="0.8"/><path d="M0 -10.15V-3.15M0 10.15V3.15M-10.15 0H-3.15M10.15 0H3.15" fill="none" stroke="#ff4a7e" stroke-width="0.84" stroke-linecap="round" stroke-linejoin="round"/><path d="M0 -2.2L2.2 0L0 2.2L-2.2 0Z" fill="#ff4a7e"/></g><path d="M20 50L60 42" fill="none" stroke="#ff4a7e" stroke-width="0.6" stroke-linecap="round" stroke-linejoin="round" opacity="0.6" stroke-dasharray="2 2"/><rect width="120" height="72" fill="url(#cgao)"/><rect width="120" height="72" fill="url(#k-noise)" opacity=".32"/></svg>