<svg xmlns="http://www.w3.org/2000/svg" viewBox="0 0 120 72"><defs><filter id="k-blur" x="-80%" y="-80%" width="260%" height="260%"><feGaussianBlur stdDeviation="4"></feGaussianBlur></filter><filter id="k-blur2" x="-80%" y="-80%" width="260%" height="260%"><feGaussianBlur stdDeviation="9"></feGaussianBlur></filter><radialGradient id="k-shade" cx="30%" cy="22%" r="95%"><stop offset="0" stop-color="#fff" stop-opacity=".34"></stop><stop offset=".3" stop-color="#fff" stop-opacity=".04"></stop><stop offset=".62" stop-color="#000" stop-opacity=".22"></stop><stop offset="1" stop-color="#000" stop-opacity=".62"></stop></radialGradient><pattern id="k-noise" width="1" height="1"></pattern><linearGradient id="k-rim" x1="0" x2="1" y1="0" y2="0"><stop offset="0" stop-color="#ffc98a" stop-opacity=".95"></stop><stop offset=".2" stop-color="#ffb060" stop-opacity=".25"></stop><stop offset=".45" stop-color="#ffb060" stop-opacity="0"></stop><stop offset=".85" stop-color="#8fd8ff" stop-opacity="0"></stop><stop offset="1" stop-color="#8fd8ff" stop-opacity=".45"></stop></linearGradient><linearGradient id="k-metal" x1="0" x2="1" y1="0" y2="1"><stop offset="0" stop-color="#fff" stop-opacity=".55"></stop><stop offset=".35" stop-color="#fff" stop-opacity="0"></stop><stop offset=".55" stop-color="#000" stop-opacity=".1"></stop><stop offset=".7" stop-color="#fff" stop-opacity=".25"></stop><stop offset="1" stop-color="#000" stop-opacity=".45"></stop></linearGradient></defs><defs><linearGradient id="cgcn" x1="0" y1="0" x2="0" y2="1"><stop offset="0" stop-color="#1d1132"/><stop offset="1" stop-color="#05030a"/></linearGradient></defs><rect width="120" height="72" fill="url(#cgcn)"/><path d="M-2 30Q30 24 60 30T122 28" fill="none" stroke="#3a2a5c" stroke-width="8" stroke-linecap="round" stroke-linejoin="round" opacity="0.35" filter="url(#k-blur)"/><path d="M0 72V58l8-5 8 5v-8l10-6 10 6v10l6-4 8 4V52l12-7 12 7v8l8-5 8 5v-6l9-5 9 5v20Z" fill="#05030a" opacity="0.75"/><ellipse cx="6" cy="72" rx="56" ry="46" fill="#ff9a6a" opacity="0.13" filter="url(#k-blur2)"/><ellipse cx="120" cy="10" rx="40" ry="40" fill="#9a8cff" opacity=".12" filter="url(#k-blur2)"/><g><clipPath id="cco"><path d="M10 52L110 44L112 60L12 66Z"/></clipPath><path d="M10 52L110 44L112 60L12 66Z" fill="#3a2a1e"/><path d="M10 52L110 44L112 60L12 66Z" fill="url(#k-shade)"/><path d="M10 52L110 44L112 60L12 66Z" fill="url(#k-noise)" opacity="0.35"/><path d="M10 52L110 44L112 60L12 66Z" fill="none" stroke="url(#k-rim)" stroke-width="2" clip-path="url(#cco)"/><path d="M10 52L110 44L112 60L12 66Z" fill="none" stroke="#0b0709" stroke-width="1" stroke-linejoin="round" stroke-linecap="round"/></g><path d="M10 52L110 44" fill="none" stroke="#5a4a3a" stroke-width="0.8" stroke-linecap="round" stroke-linejoin="round"/><g><clipPath id="ccp"><path d="M17 52h6v8h-6Z"/></clipPath><path d="M17 52h6v8h-6Z" fill="#2a1e16"/><path d="M17 52h6v8h-6Z" fill="url(#k-shade)"/><path d="M17 52h6v8h-6Z" fill="url(#k-noise)" opacity="0.35"/><path d="M17 52h6v8h-6Z" fill="none" stroke="#0b0709" stroke-width="1" stroke-linejoin="round" stroke-linecap="round"/></g><g><clipPath id="ccq"><path d="M33 50.7h6v8h-6Z"/></clipPath><path d="M33 50.7h6v8h-6Z" fill="#2a1e16"/><path d="M33 50.7h6v8h-6Z" fill="url(#k-shade)"/><path d="M33 50.7h6v8h-6Z" fill="url(#k-noise)" opacity="0.35"/><path d="M33 50.7h6v8h-6Z" fill="none" stroke="#0b0709" stroke-width="1" stroke-linejoin="round" stroke-linecap="round"/></g><g><clipPath id="ccr"><path d="M49 49.4h6v8h-6Z"/></clipPath><path d="M49 49.4h6v8h-6Z" fill="#2a1e16"/><path d="M49 49.4h6v8h-6Z" fill="url(#k-shade)"/><path d="M49 49.4h6v8h-6Z" fill="url(#k-noise)" opacity="0.35"/><path d="M49 49.4h6v8h-6Z" fill="none" stroke="#0b0709" stroke-width="1" stroke-linejoin="round" stroke-linecap="round"/></g><g><clipPath id="ccs"><path d="M65 48.1h6v8h-6Z"/></clipPath><path d="M65 48.1h6v8h-6Z" fill="#2a1e16"/><path d="M65 48.1h6v8h-6Z" fill="url(#k-shade)"/><path d="M65 48.1h6v8h-6Z" fill="url(#k-noise)" opacity="0.35"/><path d="M65 48.1h6v8h-6Z" fill="none" stroke="#0b0709" stroke-width="1" stroke-linejoin="round" stroke-linecap="round"/></g><g><clipPath id="cct"><path d="M81 46.8h6v8h-6Z"/></clipPath><path d="M81 46.8h6v8h-6Z" fill="#2a1e16"/><path d="M81 46.8h6v8h-6Z" fill="url(#k-shade)"/><path d="M81 46.8h6v8h-6Z" fill="url(#k-noise)" opacity="0.35"/><path d="M81 46.8h6v8h-6Z" fill="none" stroke="#0b0709" stroke-width="1" stroke-linejoin="round" stroke-linecap="round"/></g><g><clipPath id="ccu"><path d="M97 45.5h6v8h-6Z"/></clipPath><path d="M97 45.5h6v8h-6Z" fill="#2a1e16"/><path d="M97 45.5h6v8h-6Z" fill="url(#k-shade)"/><path d="M97 45.5h6v8h-6Z" fill="url(#k-noise)" opacity="0.35"/><path d="M97 45.5h6v8h-6Z" fill="none" stroke="#0b0709" stroke-width="1" stroke-linejoin="round" stroke-linecap="round"/></g><g transform="translate(20 54) rotate(-88)"><g><clipPath id="ccv"><path d="M0 -1.6Q18.7 -2.4 34 0.3Q17 1 0 1.6Z"/></clipPath><path d="M0 -1.6Q18.7 -2.4 34 0.3Q17 1 0 1.6Z" fill="#c4c4dc"/><path d="M0 -1.6Q18.7 -2.4 34 0.3Q17 1 0 1.6Z" fill="url(#k-shade)"/><path d="M0 -1.6Q18.7 -2.4 34 0.3Q17 1 0 1.6Z" fill="url(#k-metal)" opacity=".8"/><path d="M0 -1.6Q18.7 -2.4 34 0.3Q17 1 0 1.6Z" fill="url(#k-noise)" opacity="0.35"/><path d="M0 -1.6Q18.7 -2.4 34 0.3Q17 1 0 1.6Z" fill="none" stroke="url(#k-rim)" stroke-width="1.4" clip-path="url(#ccv)"/><path d="M0 -1.6Q18.7 -2.4 34 0.3Q17 1 0 1.6Z" fill="none" stroke="#0b0709" stroke-width="1" stroke-linejoin="round" stroke-linecap="round"/></g><path d="M1 -1.1Q18.7 -1.9 33 0" fill="none" stroke="#fff" stroke-width="0.5" stroke-linecap="round" stroke-linejoin="round" opacity="0.8"/><g><clipPath id="ccw"><path d="M-1.6 -3.8000000000000003h2.4v7.6000000000000005h-2.4Z"/></clipPath><path d="M-1.6 -3.8000000000000003h2.4v7.6000000000000005h-2.4Z" fill="#2a2236"/><path d="M-1.6 -3.8000000000000003h2.4v7.6000000000000005h-2.4Z" fill="url(#k-shade)"/><path d="M-1.6 -3.8000000000000003h2.4v7.6000000000000005h-2.4Z" fill="url(#k-noise)" opacity="0.35"/><path d="M-1.6 -3.8000000000000003h2.4v7.6000000000000005h-2.4Z" fill="none" stroke="#0b0709" stroke-width="1" stroke-linejoin="round" stroke-linecap="round"/></g><g><clipPath id="ccx"><path d="M-9.5 -1.3h8v2.6h-8Z"/></clipPath><path d="M-9.5 -1.3h8v2.6h-8Z" fill="#1a1420"/><path d="M-9.5 -1.3h8v2.6h-8Z" fill="url(#k-shade)"/><path d="M-9.5 -1.3h8v2.6h-8Z" fill="url(#k-noise)" opacity="0.35"/><path d="M-9.5 -1.3h8v2.6h-8Z" fill="none" stroke="#0b0709" stroke-width="1" stroke-linejoin="round" stroke-linecap="round"/></g><circle cx="-11.6" cy="0" r="2.1" fill="none" stroke="#6a5a8a" stroke-width="1.1"/></g><g transform="translate(36 52.7) rotate(-88)"><g><clipPath id="ccy"><path d="M0 -1.6Q15.4 -2.4 28 0.3Q14 1 0 1.6Z"/></clipPath><path d="M0 -1.6Q15.4 -2.4 28 0.3Q14 1 0 1.6Z" fill="#c4c4dc"/><path d="M0 -1.6Q15.4 -2.4 28 0.3Q14 1 0 1.6Z" fill="url(#k-shade)"/><path d="M0 -1.6Q15.4 -2.4 28 0.3Q14 1 0 1.6Z" fill="url(#k-metal)" opacity=".8"/><path d="M0 -1.6Q15.4 -2.4 28 0.3Q14 1 0 1.6Z" fill="url(#k-noise)" opacity="0.35"/><path d="M0 -1.6Q15.4 -2.4 28 0.3Q14 1 0 1.6Z" fill="none" stroke="url(#k-rim)" stroke-width="1.4" clip-path="url(#ccy)"/><path d="M0 -1.6Q15.4 -2.4 28 0.3Q14 1 0 1.6Z" fill="none" stroke="#0b0709" stroke-width="1" stroke-linejoin="round" stroke-linecap="round"/></g><path d="M1 -1.1Q15.4 -1.9 27 0" fill="none" stroke="#fff" stroke-width="0.5" stroke-linecap="round" stroke-linejoin="round" opacity="0.8"/><g><clipPath id="ccz"><path d="M-1.6 -3.8000000000000003h2.4v7.6000000000000005h-2.4Z"/></clipPath><path d="M-1.6 -3.8000000000000003h2.4v7.6000000000000005h-2.4Z" fill="#2a2236"/><path d="M-1.6 -3.8000000000000003h2.4v7.6000000000000005h-2.4Z" fill="url(#k-shade)"/><path d="M-1.6 -3.8000000000000003h2.4v7.6000000000000005h-2.4Z" fill="url(#k-noise)" opacity="0.35"/><path d="M-1.6 -3.8000000000000003h2.4v7.6000000000000005h-2.4Z" fill="none" stroke="#0b0709" stroke-width="1" stroke-linejoin="round" stroke-linecap="round"/></g><g><clipPath id="cd0"><path d="M-9.5 -1.3h8v2.6h-8Z"/></clipPath><path d="M-9.5 -1.3h8v2.6h-8Z" fill="#1a1420"/><path d="M-9.5 -1.3h8v2.6h-8Z" fill="url(#k-shade)"/><path d="M-9.5 -1.3h8v2.6h-8Z" fill="url(#k-noise)" opacity="0.35"/><path d="M-9.5 -1.3h8v2.6h-8Z" fill="none" stroke="#0b0709" stroke-width="1" stroke-linejoin="round" stroke-linecap="round"/></g><circle cx="-11.6" cy="0" r="2.1" fill="none" stroke="#6a5a8a" stroke-width="1.1"/></g><g transform="translate(52 51.4) rotate(-88)"><g><clipPath id="cd1"><path d="M0 -1.6Q18.7 -2.4 34 0.3Q17 1 0 1.6Z"/></clipPath><path d="M0 -1.6Q18.7 -2.4 34 0.3Q17 1 0 1.6Z" fill="#c4c4dc"/><path d="M0 -1.6Q18.7 -2.4 34 0.3Q17 1 0 1.6Z" fill="url(#k-shade)"/><path d="M0 -1.6Q18.7 -2.4 34 0.3Q17 1 0 1.6Z" fill="url(#k-metal)" opacity=".8"/><path d="M0 -1.6Q18.7 -2.4 34 0.3Q17 1 0 1.6Z" fill="url(#k-noise)" opacity="0.35"/><path d="M0 -1.6Q18.7 -2.4 34 0.3Q17 1 0 1.6Z" fill="none" stroke="url(#k-rim)" stroke-width="1.4" clip-path="url(#cd1)"/><path d="M0 -1.6Q18.7 -2.4 34 0.3Q17 1 0 1.6Z" fill="none" stroke="#0b0709" stroke-width="1" stroke-linejoin="round" stroke-linecap="round"/></g><path d="M1 -1.1Q18.7 -1.9 33 0" fill="none" stroke="#fff" stroke-width="0.5" stroke-linecap="round" stroke-linejoin="round" opacity="0.8"/><g><clipPath id="cd2"><path d="M-1.6 -3.8000000000000003h2.4v7.6000000000000005h-2.4Z"/></clipPath><path d="M-1.6 -3.8000000000000003h2.4v7.6000000000000005h-2.4Z" fill="#2a2236"/><path d="M-1.6 -3.8000000000000003h2.4v7.6000000000000005h-2.4Z" fill="url(#k-shade)"/><path d="M-1.6 -3.8000000000000003h2.4v7.6000000000000005h-2.4Z" fill="url(#k-noise)" opacity="0.35"/><path d="M-1.6 -3.8000000000000003h2.4v7.6000000000000005h-2.4Z" fill="none" stroke="#0b0709" stroke-width="1" stroke-linejoin="round" stroke-linecap="round"/></g><g><clipPath id="cd3"><path d="M-9.5 -1.3h8v2.6h-8Z"/></clipPath><path d="M-9.5 -1.3h8v2.6h-8Z" fill="#1a1420"/><path d="M-9.5 -1.3h8v2.6h-8Z" fill="url(#k-shade)"/><path d="M-9.5 -1.3h8v2.6h-8Z" fill="url(#k-noise)" opacity="0.35"/><path d="M-9.5 -1.3h8v2.6h-8Z" fill="none" stroke="#0b0709" stroke-width="1" stroke-linejoin="round" stroke-linecap="round"/></g><circle cx="-11.6" cy="0" r="2.1" fill="none" stroke="#6a5a8a" stroke-width="1.1"/></g><g transform="translate(68 50.1) rotate(-88)"><g><clipPath id="cd4"><path d="M0 -1.6Q15.4 -2.4 28 0.3Q14 1 0 1.6Z"/></clipPath><path d="M0 -1.6Q15.4 -2.4 28 0.3Q14 1 0 1.6Z" fill="#c4c4dc"/><path d="M0 -1.6Q15.4 -2.4 28 0.3Q14 1 0 1.6Z" fill="url(#k-shade)"/><path d="M0 -1.6Q15.4 -2.4 28 0.3Q14 1 0 1.6Z" fill="url(#k-metal)" opacity=".8"/><path d="M0 -1.6Q15.4 -2.4 28 0.3Q14 1 0 1.6Z" fill="url(#k-noise)" opacity="0.35"/><path d="M0 -1.6Q15.4 -2.4 28 0.3Q14 1 0 1.6Z" fill="none" stroke="url(#k-rim)" stroke-width="1.4" clip-path="url(#cd4)"/><path d="M0 -1.6Q15.4 -2.4 28 0.3Q14 1 0 1.6Z" fill="none" stroke="#0b0709" stroke-width="1" stroke-linejoin="round" stroke-linecap="round"/></g><path d="M1 -1.1Q15.4 -1.9 27 0" fill="none" stroke="#fff" stroke-width="0.5" stroke-linecap="round" stroke-linejoin="round" opacity="0.8"/><g><clipPath id="cd5"><path d="M-1.6 -3.8000000000000003h2.4v7.6000000000000005h-2.4Z"/></clipPath><path d="M-1.6 -3.8000000000000003h2.4v7.6000000000000005h-2.4Z" fill="#2a2236"/><path d="M-1.6 -3.8000000000000003h2.4v7.6000000000000005h-2.4Z" fill="url(#k-shade)"/><path d="M-1.6 -3.8000000000000003h2.4v7.6000000000000005h-2.4Z" fill="url(#k-noise)" opacity="0.35"/><path d="M-1.6 -3.8000000000000003h2.4v7.6000000000000005h-2.4Z" fill="none" stroke="#0b0709" stroke-width="1" stroke-linejoin="round" stroke-linecap="round"/></g><g><clipPath id="cd6"><path d="M-9.5 -1.3h8v2.6h-8Z"/></clipPath><path d="M-9.5 -1.3h8v2.6h-8Z" fill="#1a1420"/><path d="M-9.5 -1.3h8v2.6h-8Z" fill="url(#k-shade)"/><path d="M-9.5 -1.3h8v2.6h-8Z" fill="url(#k-noise)" opacity="0.35"/><path d="M-9.5 -1.3h8v2.6h-8Z" fill="none" stroke="#0b0709" stroke-width="1" stroke-linejoin="round" stroke-linecap="round"/></g><circle cx="-11.6" cy="0" r="2.1" fill="none" stroke="#6a5a8a" stroke-width="1.1"/></g><g transform="translate(84 48.8) rotate(-88)"><g><clipPath id="cd7"><path d="M0 -1.6Q18.7 -2.4 34 0.3Q17 1 0 1.6Z"/></clipPath><path d="M0 -1.6Q18.7 -2.4 34 0.3Q17 1 0 1.6Z" fill="#c4c4dc"/><path d="M0 -1.6Q18.7 -2.4 34 0.3Q17 1 0 1.6Z" fill="url(#k-shade)"/><path d="M0 -1.6Q18.7 -2.4 34 0.3Q17 1 0 1.6Z" fill="url(#k-metal)" opacity=".8"/><path d="M0 -1.6Q18.7 -2.4 34 0.3Q17 1 0 1.6Z" fill="url(#k-noise)" opacity="0.35"/><path d="M0 -1.6Q18.7 -2.4 34 0.3Q17 1 0 1.6Z" fill="none" stroke="url(#k-rim)" stroke-width="1.4" clip-path="url(#cd7)"/><path d="M0 -1.6Q18.7 -2.4 34 0.3Q17 1 0 1.6Z" fill="none" stroke="#0b0709" stroke-width="1" stroke-linejoin="round" stroke-linecap="round"/></g><path d="M1 -1.1Q18.7 -1.9 33 0" fill="none" stroke="#fff" stroke-width="0.5" stroke-linecap="round" stroke-linejoin="round" opacity="0.8"/><g><clipPath id="cd8"><path d="M-1.6 -3.8000000000000003h2.4v7.6000000000000005h-2.4Z"/></clipPath><path d="M-1.6 -3.8000000000000003h2.4v7.6000000000000005h-2.4Z" fill="#2a2236"/><path d="M-1.6 -3.8000000000000003h2.4v7.6000000000000005h-2.4Z" fill="url(#k-shade)"/><path d="M-1.6 -3.8000000000000003h2.4v7.6000000000000005h-2.4Z" fill="url(#k-noise)" opacity="0.35"/><path d="M-1.6 -3.8000000000000003h2.4v7.6000000000000005h-2.4Z" fill="none" stroke="#0b0709" stroke-width="1" stroke-linejoin="round" stroke-linecap="round"/></g><g><clipPath id="cd9"><path d="M-9.5 -1.3h8v2.6h-8Z"/></clipPath><path d="M-9.5 -1.3h8v2.6h-8Z" fill="#1a1420"/><path d="M-9.5 -1.3h8v2.6h-8Z" fill="url(#k-shade)"/><path d="M-9.5 -1.3h8v2.6h-8Z" fill="url(#k-noise)" opacity="0.35"/><path d="M-9.5 -1.3h8v2.6h-8Z" fill="none" stroke="#0b0709" stroke-width="1" stroke-linejoin="round" stroke-linecap="round"/></g><circle cx="-11.6" cy="0" r="2.1" fill="none" stroke="#6a5a8a" stroke-width="1.1"/></g><path d="M96 52Q100 40 108 42Q112 46 106 52Z" fill="#1a1420" stroke="#0b0709" stroke-width="0.6" stroke-linecap="round" stroke-linejoin="round"/><circle cx="60" cy="30" r="20" fill="#b48cff" opacity="0.2" filter="url(#k-blur)"/><rect width="120" height="72" fill="url(#cgda)"/><rect width="120" height="72" fill="url(#k-noise)" opacity=".32"/></svg>