<svg xmlns="http://www.w3.org/2000/svg" viewBox="0 0 120 72"><defs><filter id="k-blur2" x="-80%" y="-80%" width="260%" height="260%"><feGaussianBlur stdDeviation="9"></feGaussianBlur></filter><radialGradient id="k-shade" cx="30%" cy="22%" r="95%"><stop offset="0" stop-color="#fff" stop-opacity=".34"></stop><stop offset=".3" stop-color="#fff" stop-opacity=".04"></stop><stop offset=".62" stop-color="#000" stop-opacity=".22"></stop><stop offset="1" stop-color="#000" stop-opacity=".62"></stop></radialGradient><linearGradient id="k-metal" x1="0" x2="1" y1="0" y2="1"><stop offset="0" stop-color="#fff" stop-opacity=".55"></stop><stop offset=".35" stop-color="#fff" stop-opacity="0"></stop><stop offset=".55" stop-color="#000" stop-opacity=".1"></stop><stop offset=".7" stop-color="#fff" stop-opacity=".25"></stop><stop offset="1" stop-color="#000" stop-opacity=".45"></stop></linearGradient><pattern id="k-noise" width="1" height="1"></pattern><linearGradient id="k-rim" x1="0" x2="1" y1="0" y2="0"><stop offset="0" stop-color="#ffc98a" stop-opacity=".95"></stop><stop offset=".2" stop-color="#ffb060" stop-opacity=".25"></stop><stop offset=".45" stop-color="#ffb060" stop-opacity="0"></stop><stop offset=".85" stop-color="#8fd8ff" stop-opacity="0"></stop><stop offset="1" stop-color="#8fd8ff" stop-opacity=".45"></stop></linearGradient></defs><defs><linearGradient id="cggo" x1="0" y1="0" x2="0" y2="1"><stop offset="0" stop-color="#20242c"/><stop offset="1" stop-color="#07080b"/></linearGradient></defs><rect width="120" height="72" fill="url(#cggo)"/><path d="M0 60Q60 54 120 60V72H0Z" fill="#000" opacity="0.35"/><ellipse cx="6" cy="72" rx="56" ry="46" fill="#ffb45a" opacity="0.22" filter="url(#k-blur2)"/><ellipse cx="120" cy="10" rx="40" ry="40" fill="#8fb8e0" opacity=".12" filter="url(#k-blur2)"/><circle cx="60" cy="36" r="20" fill="#e8c47a" opacity="0.35" filter="url(#k-blur2)"/><g><clipPath id="cgp"><path d="M48 8h24v3H48ZM48 61h24v3H48Z"/></clipPath><path d="M48 8h24v3H48ZM48 61h24v3H48Z" fill="#a07a3a"/><path d="M48 8h24v3H48ZM48 61h24v3H48Z" fill="url(#k-shade)"/><path d="M48 8h24v3H48ZM48 61h24v3H48Z" fill="url(#k-metal)" opacity=".8"/><path d="M48 8h24v3H48ZM48 61h24v3H48Z" fill="url(#k-noise)" opacity="0.35"/><path d="M48 8h24v3H48ZM48 61h24v3H48Z" fill="none" stroke="url(#k-rim)" stroke-width="2.4" clip-path="url(#cgp)"/><path d="M48 8h24v3H48ZM48 61h24v3H48Z" fill="none" stroke="#0b0709" stroke-width="1" stroke-linejoin="round" stroke-linecap="round"/></g><path d="M50 11Q50 28 58 36Q50 44 50 61H70Q70 44 62 36Q70 28 70 11Z" fill="#fff6dc" opacity="0.1"/><path d="M52 13Q60 15 68 13L64 22Q62 28 60 31Q58 28 56 22Z" fill="#e8c47a"/><path d="M52 59Q52 52 60 48Q68 52 68 59Z" fill="#e8c47a" opacity="0.6"/><path d="M60 46V34" fill="none" stroke="#e8c47a" stroke-width="0.8" stroke-linecap="round" stroke-linejoin="round" stroke-dasharray="1 1.4"/><path d="M58 38l2 -3 2 3" fill="none" stroke="#fff6dc" stroke-width="0.6" stroke-linecap="round" stroke-linejoin="round"/><path d="M50 11Q50 28 58 36Q50 44 50 61H70Q70 44 62 36Q70 28 70 11Z" fill="none" stroke="#fff6dc" stroke-width="1" stroke-linecap="round" stroke-linejoin="round"/><path d="M36 50A26 26 0 0 1 40 18M84 22A26 26 0 0 1 80 54" fill="none" stroke="#e8c47a" stroke-width="1.4" stroke-linecap="round" stroke-linejoin="round"/><path d="M40 18l-5 1l4 4M80 54l5 -1l-4 -4" fill="none" stroke="#e8c47a" stroke-width="1.4" stroke-linecap="round" stroke-linejoin="round"/><g transform="translate(22 40) rotate(-16) scale(0.6)"><g><clipPath id="cgq"><path d="M-8 -12h16v24h-16Z"/></clipPath><path d="M-8 -12h16v24h-16Z" fill="#d8d0c0"/><path d="M-8 -12h16v24h-16Z" fill="url(#k-shade)"/><path d="M-8 -12h16v24h-16Z" fill="url(#k-noise)" opacity="0.5"/><path d="M-8 -12h16v24h-16Z" fill="none" stroke="url(#k-rim)" stroke-width="1.4" clip-path="url(#cgq)"/><path d="M-8 -12h16v24h-16Z" fill="none" stroke="#0b0709" stroke-width="0.8" stroke-linejoin="round" stroke-linecap="round"/></g><path d="M-5 -7h10M-5 -3h7M-5 1h9" fill="none" stroke="#3a2a1a" stroke-width="0.6" stroke-linecap="round" stroke-linejoin="round" opacity="0.6"/></g><g transform="translate(98 34) rotate(14) scale(0.6)"><g><clipPath id="cgr"><path d="M-8 -12h16v24h-16Z"/></clipPath><path d="M-8 -12h16v24h-16Z" fill="#d8d0c0"/><path d="M-8 -12h16v24h-16Z" fill="url(#k-shade)"/><path d="M-8 -12h16v24h-16Z" fill="url(#k-noise)" opacity="0.5"/><path d="M-8 -12h16v24h-16Z" fill="none" stroke="url(#k-rim)" stroke-width="1.4" clip-path="url(#cgr)"/><path d="M-8 -12h16v24h-16Z" fill="none" stroke="#0b0709" stroke-width="0.8" stroke-linejoin="round" stroke-linecap="round"/></g><path d="M-5 -7h10M-5 -3h7M-5 1h9" fill="none" stroke="#3a2a1a" stroke-width="0.6" stroke-linecap="round" stroke-linejoin="round" opacity="0.6"/></g><rect width="120" height="72" fill="url(#cggs)"/><rect width="120" height="72" fill="url(#k-noise)" opacity=".32"/></svg>