<svg xmlns="http://www.w3.org/2000/svg" viewBox="0 0 120 72"><defs><filter id="k-blur2" x="-80%" y="-80%" width="260%" height="260%"><feGaussianBlur stdDeviation="9"></feGaussianBlur></filter><radialGradient id="k-shade" cx="30%" cy="22%" r="95%"><stop offset="0" stop-color="#fff" stop-opacity=".34"></stop><stop offset=".3" stop-color="#fff" stop-opacity=".04"></stop><stop offset=".62" stop-color="#000" stop-opacity=".22"></stop><stop offset="1" stop-color="#000" stop-opacity=".62"></stop></radialGradient><pattern id="k-noise" width="1" height="1"></pattern><linearGradient id="k-rim" x1="0" x2="1" y1="0" y2="0"><stop offset="0" stop-color="#ffc98a" stop-opacity=".95"></stop><stop offset=".2" stop-color="#ffb060" stop-opacity=".25"></stop><stop offset=".45" stop-color="#ffb060" stop-opacity="0"></stop><stop offset=".85" stop-color="#8fd8ff" stop-opacity="0"></stop><stop offset="1" stop-color="#8fd8ff" stop-opacity=".45"></stop></linearGradient><filter id="k-blur" x="-80%" y="-80%" width="260%" height="260%"><feGaussianBlur stdDeviation="4"></feGaussianBlur></filter><linearGradient id="k-metal" x1="0" x2="1" y1="0" y2="1"><stop offset="0" stop-color="#fff" stop-opacity=".55"></stop><stop offset=".35" stop-color="#fff" stop-opacity="0"></stop><stop offset=".55" stop-color="#000" stop-opacity=".1"></stop><stop offset=".7" stop-color="#fff" stop-opacity=".25"></stop><stop offset="1" stop-color="#000" stop-opacity=".45"></stop></linearGradient></defs><defs><linearGradient id="cg1d" x1="0" y1="0" x2="0" y2="1"><stop offset="0" stop-color="#2b150b"/><stop offset="1" stop-color="#0b0605"/></linearGradient></defs><rect width="120" height="72" fill="url(#cg1d)"/><path d="M0 4H120M0 4v12M20 4v12M40 4v12M60 4v12M80 4v12M100 4v12M120 4v12M0 16H120M10 16v12M30 16v12M50 16v12M70 16v12M90 16v12M110 16v12M130 16v12M0 28H120M0 28v12M20 28v12M40 28v12M60 28v12M80 28v12M100 28v12M120 28v12M0 40H120M10 40v12M30 40v12M50 40v12M70 40v12M90 40v12M110 40v12M130 40v12M0 52H120M0 52v12M20 52v12M40 52v12M60 52v12M80 52v12M100 52v12M120 52v12" fill="none" stroke="#000" stroke-width="0.8" stroke-linecap="round" stroke-linejoin="round" opacity="0.35"/><path d="M0 4H120M0 4v12M20 4v12M40 4v12M60 4v12M80 4v12M100 4v12M120 4v12M0 16H120M10 16v12M30 16v12M50 16v12M70 16v12M90 16v12M110 16v12M130 16v12M0 28H120M0 28v12M20 28v12M40 28v12M60 28v12M80 28v12M100 28v12M120 28v12M0 40H120M10 40v12M30 40v12M50 40v12M70 40v12M90 40v12M110 40v12M130 40v12M0 52H120M0 52v12M20 52v12M40 52v12M60 52v12M80 52v12M100 52v12M120 52v12" fill="none" stroke="#ffb45a" stroke-width="0.4" stroke-linecap="round" stroke-linejoin="round" opacity="0.06" transform="translate(0.6 0.6)"/><ellipse cx="6" cy="72" rx="56" ry="46" fill="#ff8a3a" opacity="0.22" filter="url(#k-blur2)"/><ellipse cx="120" cy="10" rx="40" ry="40" fill="#6a9ed0" opacity=".12" filter="url(#k-blur2)"/><path d="M30 20h20M24 36h22M30 52h20" fill="none" stroke="#ffb45a" stroke-width="1.4" stroke-linecap="round" stroke-linejoin="round" opacity="0.5"/><g transform="translate(104 62) rotate(14)"><g transform="translate(0 0) scale(0.8)"><path d="M-7 -23l1 -5l3 4M0 -26l2 -5l2 5M7 -25l3 -4l1 4M13 -26l3 -3l0 5" fill="#1a1216" stroke="#0b0709" stroke-width="0.8" stroke-linecap="round" stroke-linejoin="round"/><g><clipPath id="c1e"><path d="M-28 -8L-23 -13L-18 -15L-14 -19L-7 -23L0 -26L7 -25L13 -26L18 -21L22 -14L22 -8L19 -4L19 0H15L14 -6L10 -8L7 0H3L3 -9L-5 -10L-7 0H-11L-11 -8L-16 -7L-21 -5L-26 -5Z"/></clipPath><path d="M-28 -8L-23 -13L-18 -15L-14 -19L-7 -23L0 -26L7 -25L13 -26L18 -21L22 -14L22 -8L19 -4L19 0H15L14 -6L10 -8L7 0H3L3 -9L-5 -10L-7 0H-11L-11 -8L-16 -7L-21 -5L-26 -5Z" fill="#1a1216"/><path d="M-28 -8L-23 -13L-18 -15L-14 -19L-7 -23L0 -26L7 -25L13 -26L18 -21L22 -14L22 -8L19 -4L19 0H15L14 -6L10 -8L7 0H3L3 -9L-5 -10L-7 0H-11L-11 -8L-16 -7L-21 -5L-26 -5Z" fill="url(#k-shade)"/><path d="M-28 -8L-23 -13L-18 -15L-14 -19L-7 -23L0 -26L7 -25L13 -26L18 -21L22 -14L22 -8L19 -4L19 0H15L14 -6L10 -8L7 0H3L3 -9L-5 -10L-7 0H-11L-11 -8L-16 -7L-21 -5L-26 -5Z" fill="url(#k-noise)" opacity="0.45"/><path d="M-28 -8L-23 -13L-18 -15L-14 -19L-7 -23L0 -26L7 -25L13 -26L18 -21L22 -14L22 -8L19 -4L19 0H15L14 -6L10 -8L7 0H3L3 -9L-5 -10L-7 0H-11L-11 -8L-16 -7L-21 -5L-26 -5Z" fill="none" stroke="url(#k-rim)" stroke-width="4" clip-path="url(#c1e)"/><path d="M-28 -8L-23 -13L-18 -15L-14 -19L-7 -23L0 -26L7 -25L13 -26L18 -21L22 -14L22 -8L19 -4L19 0H15L14 -6L10 -8L7 0H3L3 -9L-5 -10L-7 0H-11L-11 -8L-16 -7L-21 -5L-26 -5Z" fill="none" stroke="#0b0709" stroke-width="1.1" stroke-linejoin="round" stroke-linecap="round"/></g><g><clipPath id="c1f"><path d="M-15 -16Q-12 -25 -2 -28Q-8 -23 -11 -15Z"/></clipPath><path d="M-15 -16Q-12 -25 -2 -28Q-8 -23 -11 -15Z" fill="#4a3e36"/><path d="M-15 -16Q-12 -25 -2 -28Q-8 -23 -11 -15Z" fill="url(#k-shade)"/><path d="M-15 -16Q-12 -25 -2 -28Q-8 -23 -11 -15Z" fill="url(#k-noise)" opacity="0.35"/><path d="M-15 -16Q-12 -25 -2 -28Q-8 -23 -11 -15Z" fill="none" stroke="url(#k-rim)" stroke-width="1.4" clip-path="url(#c1f)"/><path d="M-15 -16Q-12 -25 -2 -28Q-8 -23 -11 -15Z" fill="none" stroke="#0b0709" stroke-width="0.8" stroke-linejoin="round" stroke-linecap="round"/></g><path d="M-27 -7L-25 -5L-24 -7L-22 -5L-21 -7" fill="none" stroke="#d8ccb4" stroke-width="0.7" stroke-linecap="round" stroke-linejoin="round"/><path d="M-21 -11.6L-17.5 -12.6" fill="none" stroke="#ffcf6a" stroke-width="1.3" stroke-linecap="round" stroke-linejoin="round"/><circle cx="-19" cy="-12" r="3" fill="#ffcf6a" opacity="0.65" filter="url(#k-blur)"/></g></g><path d="M74 18Q84 34 74 52" fill="none" stroke="#ffe6b8" stroke-width="2" stroke-linecap="round" stroke-linejoin="round" opacity="0.8"/><path d="M80 12Q92 34 80 58" fill="none" stroke="#ffe6b8" stroke-width="1" stroke-linecap="round" stroke-linejoin="round" opacity="0.5"/><g transform="translate(62 35) scale(1.1) rotate(8)"><g><clipPath id="c1g"><path d="M0 -20L16 -15V-2C16 9 8 16 0 20C-8 16 -16 9 -16 -2V-15Z"/></clipPath><path d="M0 -20L16 -15V-2C16 9 8 16 0 20C-8 16 -16 9 -16 -2V-15Z" fill="#6a3a1e"/><path d="M0 -20L16 -15V-2C16 9 8 16 0 20C-8 16 -16 9 -16 -2V-15Z" fill="url(#k-shade)"/><path d="M0 -20L16 -15V-2C16 9 8 16 0 20C-8 16 -16 9 -16 -2V-15Z" fill="url(#k-noise)" opacity="0.35"/><path d="M0 -20L16 -15V-2C16 9 8 16 0 20C-8 16 -16 9 -16 -2V-15Z" fill="none" stroke="url(#k-rim)" stroke-width="3" clip-path="url(#c1g)"/><path d="M0 -20L16 -15V-2C16 9 8 16 0 20C-8 16 -16 9 -16 -2V-15Z" fill="none" stroke="#0b0709" stroke-width="1.4" stroke-linejoin="round" stroke-linecap="round"/></g><path d="M0 -17L13 -13V-2C13 7 7 13 0 17C-7 13 -13 7 -13 -2V-13Z" fill="none" stroke="#b07a3a" stroke-width="2" stroke-linecap="round" stroke-linejoin="round"/><g transform="translate(0 0)"><path d="M-3.4 -6h6.8l1 9h-8.8z" fill="#b07a3a" stroke="#0b0709" stroke-width=".7"/><path d="M-2 -6a2 2 0 0 1 4 0" fill="none" stroke="#b07a3a" stroke-width="1"/><circle cx="0" cy="-1" r="4" fill="#ffb45a" opacity="0.7" filter="url(#k-blur)"/><path d="M0 -3.2C-0.4 -1.8 -2 -1 -2 0.6A2 2 0 0 0 2 0.6C2 -0.6 1.1 -1 0.9 -1.9C0.4 -1.2 0 -1.6 0 -3.2Z" fill="#ff5a1e"/><path d="M0 -1.6C-1.1 -0.3 -1.2 0.5 -1.1 1A1.1 1.1 0 0 0 1.1 1C1.1 0 0.5 -0.4 0 -1.6Z" fill="#ffb45a"/><ellipse cx="0" cy="1.1" rx="0.5" ry="0.8" fill="#ffe6b8"/></g><path d="M0 -20L16 -15V-2C16 9 8 16 0 20C-8 16 -16 9 -16 -2V-15Z" fill="url(#k-metal)" opacity=".35"/></g><path d="M79 31L84.2 25.8" stroke="#ffe6b8" stroke-width="0.9" stroke-linecap="round"/><path d="M79.3 32.2L86.4 28.5" stroke="#ffe6b8" stroke-width="0.7" stroke-linecap="round"/><path d="M79.6 32.6L82.8 31.4" stroke="#ffe6b8" stroke-width="1.1" stroke-linecap="round"/><path d="M80.2 33.7L83.9 33.4" stroke="#ffe6b8" stroke-width="0.6" stroke-linecap="round"/><path d="M78 32.5L80.8 30.5" stroke="#ffe6b8" stroke-width="0.8" stroke-linecap="round"/><path d="M79 35.3L83.5 37.4" stroke="#ffe6b8" stroke-width="0.9" stroke-linecap="round"/><path d="M78 34.9L85 38.1" stroke="#ffe6b8" stroke-width="1" stroke-linecap="round"/><path d="M79.9 35.5L83.4 36.9" stroke="#ffe6b8" stroke-width="0.5" stroke-linecap="round"/><path d="M81 34.1L86.4 34.2" stroke="#ffe6b8" stroke-width="1.1" stroke-linecap="round"/><path d="M80.4 32.5L87.1 30.1" stroke="#ffe6b8" stroke-width="1" stroke-linecap="round"/><rect width="120" height="72" fill="url(#cg1h)"/><rect width="120" height="72" fill="url(#k-noise)" opacity=".32"/></svg>