<svg xmlns="http://www.w3.org/2000/svg" viewBox="0 0 120 72"><defs><filter id="k-blur2" x="-80%" y="-80%" width="260%" height="260%"><feGaussianBlur stdDeviation="9"></feGaussianBlur></filter><radialGradient id="k-shade" cx="30%" cy="22%" r="95%"><stop offset="0" stop-color="#fff" stop-opacity=".34"></stop><stop offset=".3" stop-color="#fff" stop-opacity=".04"></stop><stop offset=".62" stop-color="#000" stop-opacity=".22"></stop><stop offset="1" stop-color="#000" stop-opacity=".62"></stop></radialGradient><linearGradient id="k-metal" x1="0" x2="1" y1="0" y2="1"><stop offset="0" stop-color="#fff" stop-opacity=".55"></stop><stop offset=".35" stop-color="#fff" stop-opacity="0"></stop><stop offset=".55" stop-color="#000" stop-opacity=".1"></stop><stop offset=".7" stop-color="#fff" stop-opacity=".25"></stop><stop offset="1" stop-color="#000" stop-opacity=".45"></stop></linearGradient><pattern id="k-noise" width="1" height="1"></pattern><linearGradient id="k-rim" x1="0" x2="1" y1="0" y2="0"><stop offset="0" stop-color="#ffc98a" stop-opacity=".95"></stop><stop offset=".2" stop-color="#ffb060" stop-opacity=".25"></stop><stop offset=".45" stop-color="#ffb060" stop-opacity="0"></stop><stop offset=".85" stop-color="#8fd8ff" stop-opacity="0"></stop><stop offset="1" stop-color="#8fd8ff" stop-opacity=".45"></stop></linearGradient></defs><defs><linearGradient id="cg65" x1="0" y1="0" x2="0" y2="1"><stop offset="0" stop-color="#0a2830"/><stop offset="1" stop-color="#02080c"/></linearGradient></defs><rect width="120" height="72" fill="url(#cg65)"/><path d="M12 -4L22 76" fill="none" stroke="#5fe0cc" stroke-width="6" stroke-linecap="round" stroke-linejoin="round" opacity="0.05"/><path d="M34 -4L46 76" fill="none" stroke="#5fe0cc" stroke-width="10" stroke-linecap="round" stroke-linejoin="round" opacity="0.05"/><path d="M58 -4L72 76" fill="none" stroke="#5fe0cc" stroke-width="6" stroke-linecap="round" stroke-linejoin="round" opacity="0.05"/><path d="M80 -4L96 76" fill="none" stroke="#5fe0cc" stroke-width="10" stroke-linecap="round" stroke-linejoin="round" opacity="0.05"/><path d="M102 -4L120 76" fill="none" stroke="#5fe0cc" stroke-width="6" stroke-linecap="round" stroke-linejoin="round" opacity="0.05"/><circle cx="0" cy="58.9" r="0.9" fill="none" stroke="#d4fff8" stroke-width=".5" opacity=".3"/><circle cx="25.3" cy="46.7" r="1.2" fill="none" stroke="#d4fff8" stroke-width=".5" opacity=".3"/><circle cx="39.5" cy="48.1" r="1.5" fill="none" stroke="#d4fff8" stroke-width=".5" opacity=".3"/><circle cx="65.1" cy="43.8" r="1.4" fill="none" stroke="#d4fff8" stroke-width=".5" opacity=".3"/><circle cx="98" cy="15.5" r="1" fill="none" stroke="#d4fff8" stroke-width=".5" opacity=".3"/><circle cx="84.9" cy="44.7" r="0.7" fill="none" stroke="#d4fff8" stroke-width=".5" opacity=".3"/><circle cx="82.1" cy="29.9" r="1.7" fill="none" stroke="#d4fff8" stroke-width=".5" opacity=".3"/><circle cx="96.9" cy="7.9" r="1.2" fill="none" stroke="#d4fff8" stroke-width=".5" opacity=".3"/><circle cx="110.8" cy="44.1" r="1.4" fill="none" stroke="#d4fff8" stroke-width=".5" opacity=".3"/><ellipse cx="6" cy="72" rx="56" ry="46" fill="#ffb060" opacity="0.13" filter="url(#k-blur2)"/><ellipse cx="120" cy="10" rx="40" ry="40" fill="#5fe0cc" opacity=".12" filter="url(#k-blur2)"/><circle cx="60" cy="36" r="20" fill="#5fe0cc" opacity="0.35" filter="url(#k-blur2)"/><g transform="rotate(-14 60 36)"><g><clipPath id="c66"><path d="M44 8h32v4H44ZM44 60h32v4H44Z"/></clipPath><path d="M44 8h32v4H44ZM44 60h32v4H44Z" fill="#b08a4a"/><path d="M44 8h32v4H44ZM44 60h32v4H44Z" fill="url(#k-shade)"/><path d="M44 8h32v4H44ZM44 60h32v4H44Z" fill="url(#k-metal)" opacity=".8"/><path d="M44 8h32v4H44ZM44 60h32v4H44Z" fill="url(#k-noise)" opacity="0.35"/><path d="M44 8h32v4H44ZM44 60h32v4H44Z" fill="none" stroke="url(#k-rim)" stroke-width="2.4" clip-path="url(#c66)"/><path d="M44 8h32v4H44ZM44 60h32v4H44Z" fill="none" stroke="#0b0709" stroke-width="1" stroke-linejoin="round" stroke-linecap="round"/></g><path d="M48 12Q48 28 58 36Q48 44 48 60H72Q72 44 62 36Q72 28 72 12Z" fill="#d4fff8" opacity="0.12"/><path d="M50 54Q50 48 60 44Q70 48 70 54Q70 59 60 59Q50 59 50 54Z" fill="#5fe0cc" opacity="0.9"/><path d="M51.5 18Q60 21 68.5 18L66 24Q62 30 60 32Q58 30 54 24Z" fill="#5fe0cc" opacity="0.9"/><path d="M60 32V44" fill="none" stroke="#d4fff8" stroke-width="0.8" stroke-linecap="round" stroke-linejoin="round"/><path d="M48 12Q48 28 58 36Q48 44 48 60H72Q72 44 62 36Q72 28 72 12Z" fill="none" stroke="#d4fff8" stroke-width="1" stroke-linecap="round" stroke-linejoin="round"/><path d="M45 12V60M75 12V60" fill="none" stroke="#b08a4a" stroke-width="1.4" stroke-linecap="round" stroke-linejoin="round"/></g><path d="M24 20A38 38 0 0 1 36 10M96 52A38 38 0 0 1 84 62" fill="none" stroke="#d4fff8" stroke-width="1.2" stroke-linecap="round" stroke-linejoin="round"/><path d="M36 10l-5 0l2 4M84 62l5 0l-2 -4" fill="none" stroke="#d4fff8" stroke-width="1.2" stroke-linecap="round" stroke-linejoin="round"/><circle cx="100" cy="14" r="6" fill="#d4fff8" opacity=".85"/><circle cx="103" cy="12" r="6" fill="#0a2830"/><circle cx="20" cy="58" r="5" fill="#ffd890" opacity=".7"/><rect width="120" height="72" fill="url(#cg67)"/><rect width="120" height="72" fill="url(#k-noise)" opacity=".32"/></svg>