<svg xmlns="http://www.w3.org/2000/svg" viewBox="0 0 120 72"><defs><filter id="k-blur2" x="-80%" y="-80%" width="260%" height="260%"><feGaussianBlur stdDeviation="9"></feGaussianBlur></filter><radialGradient id="k-shade" cx="30%" cy="22%" r="95%"><stop offset="0" stop-color="#fff" stop-opacity=".34"></stop><stop offset=".3" stop-color="#fff" stop-opacity=".04"></stop><stop offset=".62" stop-color="#000" stop-opacity=".22"></stop><stop offset="1" stop-color="#000" stop-opacity=".62"></stop></radialGradient><pattern id="k-noise" width="1" height="1"></pattern><linearGradient id="k-rim" x1="0" x2="1" y1="0" y2="0"><stop offset="0" stop-color="#ffc98a" stop-opacity=".95"></stop><stop offset=".2" stop-color="#ffb060" stop-opacity=".25"></stop><stop offset=".45" stop-color="#ffb060" stop-opacity="0"></stop><stop offset=".85" stop-color="#8fd8ff" stop-opacity="0"></stop><stop offset="1" stop-color="#8fd8ff" stop-opacity=".45"></stop></linearGradient><filter id="k-blur" x="-80%" y="-80%" width="260%" height="260%"><feGaussianBlur stdDeviation="4"></feGaussianBlur></filter></defs><defs><linearGradient id="cg82" x1="0" y1="0" x2="0" y2="1"><stop offset="0" stop-color="#0a2830"/><stop offset="1" stop-color="#02080c"/></linearGradient><radialGradient id="cg83" cx="50%" cy="50%" r="50%"><stop offset="0" stop-color="#000"/><stop offset="0.3" stop-color="#2a8ab0" stop-opacity="0.6"/><stop offset="1" stop-color="#5fe0cc" stop-opacity="0.2"/></radialGradient></defs><rect width="120" height="72" fill="url(#cg82)"/><path d="M12 -4L22 76" fill="none" stroke="#5fe0cc" stroke-width="6" stroke-linecap="round" stroke-linejoin="round" opacity="0.05"/><path d="M34 -4L46 76" fill="none" stroke="#5fe0cc" stroke-width="10" stroke-linecap="round" stroke-linejoin="round" opacity="0.05"/><path d="M58 -4L72 76" fill="none" stroke="#5fe0cc" stroke-width="6" stroke-linecap="round" stroke-linejoin="round" opacity="0.05"/><path d="M80 -4L96 76" fill="none" stroke="#5fe0cc" stroke-width="10" stroke-linecap="round" stroke-linejoin="round" opacity="0.05"/><path d="M102 -4L120 76" fill="none" stroke="#5fe0cc" stroke-width="6" stroke-linecap="round" stroke-linejoin="round" opacity="0.05"/><circle cx="0" cy="58.9" r="0.9" fill="none" stroke="#d4fff8" stroke-width=".5" opacity=".3"/><circle cx="25.3" cy="46.7" r="1.2" fill="none" stroke="#d4fff8" stroke-width=".5" opacity=".3"/><circle cx="39.5" cy="48.1" r="1.5" fill="none" stroke="#d4fff8" stroke-width=".5" opacity=".3"/><circle cx="65.1" cy="43.8" r="1.4" fill="none" stroke="#d4fff8" stroke-width=".5" opacity=".3"/><circle cx="98" cy="15.5" r="1" fill="none" stroke="#d4fff8" stroke-width=".5" opacity=".3"/><circle cx="84.9" cy="44.7" r="0.7" fill="none" stroke="#d4fff8" stroke-width=".5" opacity=".3"/><circle cx="82.1" cy="29.9" r="1.7" fill="none" stroke="#d4fff8" stroke-width=".5" opacity=".3"/><circle cx="96.9" cy="7.9" r="1.2" fill="none" stroke="#d4fff8" stroke-width=".5" opacity=".3"/><circle cx="110.8" cy="44.1" r="1.4" fill="none" stroke="#d4fff8" stroke-width=".5" opacity=".3"/><ellipse cx="6" cy="72" rx="56" ry="46" fill="#ffb060" opacity="0.13" filter="url(#k-blur2)"/><ellipse cx="120" cy="10" rx="40" ry="40" fill="#5fe0cc" opacity=".12" filter="url(#k-blur2)"/><ellipse cx="60" cy="38" rx="56" ry="24" fill="url(#cg83)"/><path d="M54 38A6 2.52 0 0 1 63.6 36.02" fill="none" stroke="#d4fff8" stroke-width="1.6" stroke-linecap="round" stroke-linejoin="round" opacity="0.9"/><path d="M66 38A6 2.52 0 0 1 56.4 39.98" fill="none" stroke="#5fe0cc" stroke-width="1.6" stroke-linecap="round" stroke-linejoin="round" opacity="0.9"/><path d="M45 38A15 6.3 0 0 1 69 33.05" fill="none" stroke="#5fe0cc" stroke-width="1.4500000000000002" stroke-linecap="round" stroke-linejoin="round" opacity="0.8200000000000001"/><path d="M75 38A15 6.3 0 0 1 51 42.95" fill="none" stroke="#d4fff8" stroke-width="1.4500000000000002" stroke-linecap="round" stroke-linejoin="round" opacity="0.8200000000000001"/><path d="M36 38A24 10.08 0 0 1 74.4 30.08" fill="none" stroke="#d4fff8" stroke-width="1.3" stroke-linecap="round" stroke-linejoin="round" opacity="0.74"/><path d="M84 38A24 10.08 0 0 1 45.6 45.92" fill="none" stroke="#5fe0cc" stroke-width="1.3" stroke-linecap="round" stroke-linejoin="round" opacity="0.74"/><path d="M27 38A33 13.86 0 0 1 79.8 27.11" fill="none" stroke="#5fe0cc" stroke-width="1.1500000000000001" stroke-linecap="round" stroke-linejoin="round" opacity="0.66"/><path d="M93 38A33 13.86 0 0 1 40.2 48.89" fill="none" stroke="#d4fff8" stroke-width="1.1500000000000001" stroke-linecap="round" stroke-linejoin="round" opacity="0.66"/><path d="M18 38A42 17.64 0 0 1 85.2 24.14" fill="none" stroke="#d4fff8" stroke-width="1" stroke-linecap="round" stroke-linejoin="round" opacity="0.5800000000000001"/><path d="M102 38A42 17.64 0 0 1 34.8 51.86" fill="none" stroke="#5fe0cc" stroke-width="1" stroke-linecap="round" stroke-linejoin="round" opacity="0.5800000000000001"/><path d="M9 38A51 21.419999999999998 0 0 1 90.6 21.169999999999998" fill="none" stroke="#5fe0cc" stroke-width="0.8500000000000001" stroke-linecap="round" stroke-linejoin="round" opacity="0.5"/><path d="M111 38A51 21.419999999999998 0 0 1 29.400000000000002 54.83" fill="none" stroke="#d4fff8" stroke-width="0.8500000000000001" stroke-linecap="round" stroke-linejoin="round" opacity="0.5"/><g transform="translate(30 36) rotate(-30)"><g transform="translate(0 0) scale(0.4)"><path d="M-7 -23l1 -5l3 4M0 -26l2 -5l2 5M7 -25l3 -4l1 4M13 -26l3 -3l0 5" fill="#1a1216" stroke="#0b0709" stroke-width="0.8" stroke-linecap="round" stroke-linejoin="round"/><g><clipPath id="c84"><path d="M-28 -8L-23 -13L-18 -15L-14 -19L-7 -23L0 -26L7 -25L13 -26L18 -21L22 -14L22 -8L19 -4L19 0H15L14 -6L10 -8L7 0H3L3 -9L-5 -10L-7 0H-11L-11 -8L-16 -7L-21 -5L-26 -5Z"/></clipPath><path d="M-28 -8L-23 -13L-18 -15L-14 -19L-7 -23L0 -26L7 -25L13 -26L18 -21L22 -14L22 -8L19 -4L19 0H15L14 -6L10 -8L7 0H3L3 -9L-5 -10L-7 0H-11L-11 -8L-16 -7L-21 -5L-26 -5Z" fill="#1a1216"/><path d="M-28 -8L-23 -13L-18 -15L-14 -19L-7 -23L0 -26L7 -25L13 -26L18 -21L22 -14L22 -8L19 -4L19 0H15L14 -6L10 -8L7 0H3L3 -9L-5 -10L-7 0H-11L-11 -8L-16 -7L-21 -5L-26 -5Z" fill="url(#k-shade)"/><path d="M-28 -8L-23 -13L-18 -15L-14 -19L-7 -23L0 -26L7 -25L13 -26L18 -21L22 -14L22 -8L19 -4L19 0H15L14 -6L10 -8L7 0H3L3 -9L-5 -10L-7 0H-11L-11 -8L-16 -7L-21 -5L-26 -5Z" fill="url(#k-noise)" opacity="0.45"/><path d="M-28 -8L-23 -13L-18 -15L-14 -19L-7 -23L0 -26L7 -25L13 -26L18 -21L22 -14L22 -8L19 -4L19 0H15L14 -6L10 -8L7 0H3L3 -9L-5 -10L-7 0H-11L-11 -8L-16 -7L-21 -5L-26 -5Z" fill="none" stroke="url(#k-rim)" stroke-width="4" clip-path="url(#c84)"/><path d="M-28 -8L-23 -13L-18 -15L-14 -19L-7 -23L0 -26L7 -25L13 -26L18 -21L22 -14L22 -8L19 -4L19 0H15L14 -6L10 -8L7 0H3L3 -9L-5 -10L-7 0H-11L-11 -8L-16 -7L-21 -5L-26 -5Z" fill="none" stroke="#0b0709" stroke-width="1.1" stroke-linejoin="round" stroke-linecap="round"/></g><g><clipPath id="c85"><path d="M-15 -16Q-12 -25 -2 -28Q-8 -23 -11 -15Z"/></clipPath><path d="M-15 -16Q-12 -25 -2 -28Q-8 -23 -11 -15Z" fill="#4a3e36"/><path d="M-15 -16Q-12 -25 -2 -28Q-8 -23 -11 -15Z" fill="url(#k-shade)"/><path d="M-15 -16Q-12 -25 -2 -28Q-8 -23 -11 -15Z" fill="url(#k-noise)" opacity="0.35"/><path d="M-15 -16Q-12 -25 -2 -28Q-8 -23 -11 -15Z" fill="none" stroke="url(#k-rim)" stroke-width="1.4" clip-path="url(#c85)"/><path d="M-15 -16Q-12 -25 -2 -28Q-8 -23 -11 -15Z" fill="none" stroke="#0b0709" stroke-width="0.8" stroke-linejoin="round" stroke-linecap="round"/></g><path d="M-27 -7L-25 -5L-24 -7L-22 -5L-21 -7" fill="none" stroke="#d8ccb4" stroke-width="0.7" stroke-linecap="round" stroke-linejoin="round"/><path d="M-21 -11.6L-17.5 -12.6" fill="none" stroke="#9affea" stroke-width="1.3" stroke-linecap="round" stroke-linejoin="round"/><circle cx="-19" cy="-12" r="3" fill="#9affea" opacity="0.65" filter="url(#k-blur)"/></g></g><g transform="translate(92 46) rotate(40)"><g transform="translate(0 0) scale(0.36700000000000005)"><path d="M-7 -23l1 -5l3 4M0 -26l2 -5l2 5M7 -25l3 -4l1 4M13 -26l3 -3l0 5" fill="#1a1216" stroke="#0b0709" stroke-width="0.8" stroke-linecap="round" stroke-linejoin="round"/><g><clipPath id="c86"><path d="M-28 -8L-23 -13L-18 -15L-14 -19L-7 -23L0 -26L7 -25L13 -26L18 -21L22 -14L22 -8L19 -4L19 0H15L14 -6L10 -8L7 0H3L3 -9L-5 -10L-7 0H-11L-11 -8L-16 -7L-21 -5L-26 -5Z"/></clipPath><path d="M-28 -8L-23 -13L-18 -15L-14 -19L-7 -23L0 -26L7 -25L13 -26L18 -21L22 -14L22 -8L19 -4L19 0H15L14 -6L10 -8L7 0H3L3 -9L-5 -10L-7 0H-11L-11 -8L-16 -7L-21 -5L-26 -5Z" fill="#1a1216"/><path d="M-28 -8L-23 -13L-18 -15L-14 -19L-7 -23L0 -26L7 -25L13 -26L18 -21L22 -14L22 -8L19 -4L19 0H15L14 -6L10 -8L7 0H3L3 -9L-5 -10L-7 0H-11L-11 -8L-16 -7L-21 -5L-26 -5Z" fill="url(#k-shade)"/><path d="M-28 -8L-23 -13L-18 -15L-14 -19L-7 -23L0 -26L7 -25L13 -26L18 -21L22 -14L22 -8L19 -4L19 0H15L14 -6L10 -8L7 0H3L3 -9L-5 -10L-7 0H-11L-11 -8L-16 -7L-21 -5L-26 -5Z" fill="url(#k-noise)" opacity="0.45"/><path d="M-28 -8L-23 -13L-18 -15L-14 -19L-7 -23L0 -26L7 -25L13 -26L18 -21L22 -14L22 -8L19 -4L19 0H15L14 -6L10 -8L7 0H3L3 -9L-5 -10L-7 0H-11L-11 -8L-16 -7L-21 -5L-26 -5Z" fill="none" stroke="url(#k-rim)" stroke-width="4" clip-path="url(#c86)"/><path d="M-28 -8L-23 -13L-18 -15L-14 -19L-7 -23L0 -26L7 -25L13 -26L18 -21L22 -14L22 -8L19 -4L19 0H15L14 -6L10 -8L7 0H3L3 -9L-5 -10L-7 0H-11L-11 -8L-16 -7L-21 -5L-26 -5Z" fill="none" stroke="#0b0709" stroke-width="1.1" stroke-linejoin="round" stroke-linecap="round"/></g><g><clipPath id="c87"><path d="M-15 -16Q-12 -25 -2 -28Q-8 -23 -11 -15Z"/></clipPath><path d="M-15 -16Q-12 -25 -2 -28Q-8 -23 -11 -15Z" fill="#4a3e36"/><path d="M-15 -16Q-12 -25 -2 -28Q-8 -23 -11 -15Z" fill="url(#k-shade)"/><path d="M-15 -16Q-12 -25 -2 -28Q-8 -23 -11 -15Z" fill="url(#k-noise)" opacity="0.35"/><path d="M-15 -16Q-12 -25 -2 -28Q-8 -23 -11 -15Z" fill="none" stroke="url(#k-rim)" stroke-width="1.4" clip-path="url(#c87)"/><path d="M-15 -16Q-12 -25 -2 -28Q-8 -23 -11 -15Z" fill="none" stroke="#0b0709" stroke-width="0.8" stroke-linejoin="round" stroke-linecap="round"/></g><path d="M-27 -7L-25 -5L-24 -7L-22 -5L-21 -7" fill="none" stroke="#d8ccb4" stroke-width="0.7" stroke-linecap="round" stroke-linejoin="round"/><path d="M-21 -11.6L-17.5 -12.6" fill="none" stroke="#9affea" stroke-width="1.3" stroke-linecap="round" stroke-linejoin="round"/><circle cx="-19" cy="-12" r="3" fill="#9affea" opacity="0.65" filter="url(#k-blur)"/></g></g><rect width="120" height="72" fill="url(#cg88)"/><rect width="120" height="72" fill="url(#k-noise)" opacity=".32"/></svg>